DarkerGrotesque-Black.ufo
<glyph name="exclam" format="2">
  <advance width="255"/>
  <unicode hex="0021"/>
  <guideline x="137" y="104" angle="90"/>
  <guideline x="401" y="194" angle="0"/>
  <guideline x="404" y="145" angle="0"/>
  <outline>
    <contour>
      <point x="136" y="-9" type="curve" smooth="yes"/>
      <point x="196" y="-9"/>
      <point x="214" y="25"/>
      <point x="214" y="69" type="curve" smooth="yes"/>
      <point x="214" y="111"/>
      <point x="196" y="145"/>
      <point x="136" y="145" type="curve" smooth="yes"/>
      <point x="73" y="145"/>
      <point x="56" y="110"/>
      <point x="56" y="69" type="curve" smooth="yes"/>
      <point x="56" y="26"/>
      <point x="72" y="-9"/>
    </contour>
    <contour>
      <point x="88" y="194" type="curve"/>
      <point x="88" y="194"/>
      <point x="113" y="200"/>
      <point x="134" y="200" type="curve"/>
      <point x="164" y="200"/>
      <point x="180" y="194"/>
      <point x="180" y="194" type="curve"/>
      <point x="212" y="370"/>
      <point x="269" y="563"/>
      <point x="134" y="563" type="curve" smooth="yes"/>
      <point x="1" y="563"/>
      <point x="57" y="374"/>
    </contour>
  </outline>
</glyph>
<glyph name="quotedbl" format="2">
  <advance width="415"/>
  <unicode hex="0022"/>
  <outline>
    <contour>
      <point x="40" y="305" type="line"/>
      <point x="71" y="305" type="line" smooth="yes"/>
      <point x="152" y="305"/>
      <point x="184" y="384"/>
      <point x="184" y="466" type="curve" smooth="yes"/>
      <point x="184" y="546"/>
      <point x="154" y="563"/>
      <point x="114" y="563" type="curve" smooth="yes"/>
      <point x="60" y="563"/>
      <point x="40" y="532"/>
      <point x="40" y="492" type="curve" smooth="yes"/>
      <point x="40" y="453"/>
      <point x="60" y="421"/>
      <point x="124" y="421" type="curve"/>
      <point x="124" y="393"/>
      <point x="107" y="390"/>
      <point x="71" y="390" type="curve" smooth="yes"/>
      <point x="40" y="390" type="line"/>
    </contour>
    <contour>
      <point x="241" y="305" type="line"/>
      <point x="272" y="305" type="line" smooth="yes"/>
      <point x="353" y="305"/>
      <point x="385" y="384"/>
      <point x="385" y="466" type="curve" smooth="yes"/>
      <point x="385" y="546"/>
      <point x="355" y="563"/>
      <point x="315" y="563" type="curve" smooth="yes"/>
      <point x="261" y="563"/>
      <point x="241" y="532"/>
      <point x="241" y="492" type="curve" smooth="yes"/>
      <point x="241" y="453"/>
      <point x="261" y="421"/>
      <point x="325" y="421" type="curve"/>
      <point x="325" y="393"/>
      <point x="308" y="390"/>
      <point x="272" y="390" type="curve" smooth="yes"/>
      <point x="241" y="390" type="line"/>
    </contour>
  </outline>
</glyph>
<glyph name="numbersign" format="2">
  <advance width="688"/>
  <unicode hex="0023"/>
  <outline>
    <contour>
      <point x="52" y="0" type="line"/>
      <point x="180" y="0" type="line"/>
      <point x="255" y="238" type="line"/>
      <point x="393" y="563" type="line"/>
      <point x="263" y="563" type="line"/>
      <point x="183" y="310" type="line"/>
    </contour>
    <contour>
      <point x="15" y="118" type="line"/>
      <point x="571" y="118" type="line"/>
      <point x="571" y="237" type="line"/>
      <point x="15" y="237" type="line"/>
    </contour>
    <contour>
      <point x="253" y="0" type="line"/>
      <point x="384" y="0" type="line"/>
      <point x="458" y="237" type="line"/>
      <point x="594" y="563" type="line"/>
      <point x="464" y="563" type="line"/>
      <point x="384" y="310" type="line"/>
    </contour>
    <contour>
      <point x="70" y="309" type="line"/>
      <point x="623" y="309" type="line"/>
      <point x="623" y="428" type="line"/>
      <point x="70" y="428" type="line"/>
    </contour>
  </outline>
</glyph>
<glyph name="dollar" format="2">
  <advance width="569"/>
  <unicode hex="0024"/>
  <guideline x="590" y="371" angle="0"/>
  <guideline x="590" y="350" angle="0"/>
  <outline>
    <contour>
      <point x="289" y="-10" type="curve" smooth="yes"/>
      <point x="409" y="-10"/>
      <point x="521" y="46"/>
      <point x="528" y="145" type="curve"/>
      <point x="544" y="374"/>
      <point x="204" y="292"/>
      <point x="204" y="399" type="curve"/>
      <point x="206" y="434"/>
      <point x="244" y="445"/>
      <point x="269" y="445" type="curve" smooth="yes"/>
      <point x="293" y="445"/>
      <point x="390" y="447"/>
      <point x="389" y="350" type="curve"/>
      <point x="521" y="371" type="line"/>
      <point x="520" y="508"/>
      <point x="413" y="573"/>
      <point x="295" y="573" type="curve" smooth="yes"/>
      <point x="141" y="573"/>
      <point x="65" y="510"/>
      <point x="59" y="417" type="curve"/>
      <point x="43" y="187"/>
      <point x="374" y="258"/>
      <point x="374" y="160" type="curve"/>
      <point x="373" y="121"/>
      <point x="324" y="113"/>
      <point x="294" y="113" type="curve"/>
      <point x="191" y="113"/>
      <point x="182" y="212"/>
      <point x="182" y="218" type="curve"/>
      <point x="45" y="193" type="line"/>
      <point x="66" y="46"/>
      <point x="187" y="-10"/>
    </contour>
    <contour>
      <point x="230" y="-108" type="line"/>
      <point x="370" y="-108" type="line"/>
      <point x="360" y="6" type="line"/>
      <point x="240" y="6" type="line"/>
    </contour>
    <contour>
      <point x="240" y="547" type="line"/>
      <point x="360" y="547" type="line"/>
      <point x="370" y="671" type="line"/>
      <point x="230" y="671" type="line"/>
    </contour>
  </outline>
</glyph>
<glyph name="percent" format="2">
  <advance width="643"/>
  <unicode hex="0025"/>
  <guideline x="311" y="454" angle="0"/>
  <guideline x="157" y="451" angle="90"/>
  <guideline x="594" y="294" angle="90"/>
  <guideline x="294" y="509" angle="0"/>
  <guideline x="294" y="563" angle="0"/>
  <guideline x="294" y="1" angle="0"/>
  <guideline x="294" y="55" angle="0"/>
  <guideline x="370" y="254" angle="321.8658"/>
  <outline>
    <contour>
      <point x="153" y="0" type="line"/>
      <point x="350" y="268" type="line"/>
      <point x="591" y="497" type="line"/>
      <point x="497" y="563" type="line"/>
      <point x="305" y="305" type="line"/>
      <point x="58" y="67" type="line"/>
    </contour>
    <contour>
      <point x="499" y="-10" type="curve"/>
      <point x="581" y="-10"/>
      <point x="617" y="39"/>
      <point x="617" y="109" type="curve"/>
      <point x="617" y="178"/>
      <point x="581" y="225"/>
      <point x="499" y="225" type="curve"/>
      <point x="418" y="225"/>
      <point x="384" y="178"/>
      <point x="384" y="109" type="curve"/>
      <point x="384" y="36"/>
      <point x="419" y="-10"/>
    </contour>
    <contour>
      <point x="497" y="77" type="curve"/>
      <point x="474" y="77"/>
      <point x="464" y="91"/>
      <point x="464" y="109" type="curve"/>
      <point x="464" y="127"/>
      <point x="474" y="143"/>
      <point x="497" y="143" type="curve"/>
      <point x="522" y="143"/>
      <point x="532" y="128"/>
      <point x="532" y="109" type="curve"/>
      <point x="532" y="91"/>
      <point x="522" y="77"/>
    </contour>
    <contour>
      <point x="142" y="338" type="curve"/>
      <point x="223" y="338"/>
      <point x="261" y="387"/>
      <point x="261" y="454" type="curve"/>
      <point x="261" y="526"/>
      <point x="223" y="573"/>
      <point x="142" y="573" type="curve"/>
      <point x="60" y="573"/>
      <point x="26" y="526"/>
      <point x="26" y="454" type="curve"/>
      <point x="26" y="384"/>
      <point x="61" y="338"/>
    </contour>
    <contour>
      <point x="140" y="425" type="curve"/>
      <point x="117" y="425"/>
      <point x="107" y="439"/>
      <point x="107" y="457" type="curve"/>
      <point x="107" y="475"/>
      <point x="117" y="491"/>
      <point x="140" y="491" type="curve"/>
      <point x="165" y="491"/>
      <point x="174" y="476"/>
      <point x="174" y="457" type="curve"/>
      <point x="174" y="439"/>
      <point x="165" y="425"/>
    </contour>
  </outline>
</glyph>
<glyph name="ampersand" format="2">
  <advance width="658"/>
  <unicode hex="0026"/>
  <guideline x="512" y="-10" angle="0"/>
  <guideline x="771" y="572" angle="0"/>
  <outline>
    <contour>
      <point x="592" y="-3" type="curve"/>
      <point x="643" y="97" type="line"/>
      <point x="589" y="120"/>
      <point x="560" y="137"/>
      <point x="537" y="149" type="curve"/>
      <point x="622" y="264"/>
      <point x="527" y="373"/>
      <point x="528" y="371" type="curve"/>
      <point x="410" y="296" type="line"/>
      <point x="451" y="265"/>
      <point x="412" y="224"/>
      <point x="412" y="226" type="curve"/>
      <point x="361" y="270"/>
      <point x="339" y="294"/>
      <point x="339" y="294" type="curve" smooth="yes"/>
      <point x="339" y="294"/>
      <point x="443" y="339"/>
      <point x="443" y="438" type="curve" smooth="yes"/>
      <point x="443" y="623"/>
      <point x="104" y="611"/>
      <point x="104" y="437" type="curve" smooth="yes"/>
      <point x="104" y="355"/>
      <point x="167" y="309"/>
      <point x="167" y="309" type="curve" smooth="yes"/>
      <point x="167" y="309"/>
      <point x="45" y="283"/>
      <point x="45" y="162" type="curve" smooth="yes"/>
      <point x="45" y="-24"/>
      <point x="307" y="-59"/>
      <point x="462" y="62" type="curve"/>
      <point x="500" y="39"/>
      <point x="544" y="18"/>
    </contour>
    <contour>
      <point x="354" y="141" type="curve"/>
      <point x="292" y="86"/>
      <point x="181" y="109"/>
      <point x="181" y="179" type="curve" smooth="yes"/>
      <point x="181" y="216"/>
      <point x="213" y="230"/>
      <point x="243" y="245" type="curve"/>
      <point x="279" y="204"/>
      <point x="307" y="178"/>
    </contour>
    <contour>
      <point x="262" y="358" type="curve"/>
      <point x="241" y="380"/>
      <point x="230" y="404"/>
      <point x="229" y="424" type="curve" smooth="yes"/>
      <point x="226" y="488"/>
      <point x="336" y="479"/>
      <point x="325" y="417" type="curve"/>
      <point x="320" y="398"/>
      <point x="301" y="379"/>
    </contour>
  </outline>
</glyph>
<glyph name="quotesingle" format="2">
  <advance width="259"/>
  <unicode hex="0027"/>
  <outline>
    <contour>
      <point x="70" y="305" type="line"/>
      <point x="101" y="305" type="line" smooth="yes"/>
      <point x="182" y="305"/>
      <point x="214" y="384"/>
      <point x="214" y="466" type="curve" smooth="yes"/>
      <point x="214" y="546"/>
      <point x="184" y="563"/>
      <point x="144" y="563" type="curve" smooth="yes"/>
      <point x="90" y="563"/>
      <point x="70" y="532"/>
      <point x="70" y="492" type="curve" smooth="yes"/>
      <point x="70" y="453"/>
      <point x="90" y="421"/>
      <point x="154" y="421" type="curve"/>
      <point x="154" y="393"/>
      <point x="137" y="390"/>
      <point x="101" y="390" type="curve" smooth="yes"/>
      <point x="70" y="390" type="line"/>
    </contour>
  </outline>
</glyph>
<glyph name="parenleft" format="2">
  <advance width="363"/>
  <unicode hex="0028"/>
  <outline>
    <contour>
      <point x="233" y="-199" type="curve"/>
      <point x="343" y="-89" type="line"/>
      <point x="343" y="-89"/>
      <point x="131" y="0"/>
      <point x="131" y="200" type="curve" smooth="yes"/>
      <point x="131" y="395"/>
      <point x="330" y="485"/>
      <point x="343" y="495" type="curve"/>
      <point x="233" y="603" type="line"/>
      <point x="233" y="603"/>
      <point x="40" y="467"/>
      <point x="40" y="200" type="curve" smooth="yes"/>
      <point x="40" y="-66"/>
      <point x="233" y="-199"/>
    </contour>
  </outline>
</glyph>
<glyph name="parenright" format="2">
  <advance width="353"/>
  <unicode hex="0029"/>
  <outline>
    <contour>
      <point x="120" y="-199" type="line"/>
      <point x="120" y="-199"/>
      <point x="313" y="-66"/>
      <point x="313" y="200" type="curve" smooth="yes"/>
      <point x="313" y="467"/>
      <point x="120" y="603"/>
      <point x="120" y="603" type="curve"/>
      <point x="10" y="495" type="line"/>
      <point x="23" y="485"/>
      <point x="222" y="395"/>
      <point x="222" y="200" type="curve" smooth="yes"/>
      <point x="222" y="0"/>
      <point x="10" y="-89"/>
      <point x="10" y="-89" type="curve"/>
    </contour>
  </outline>
</glyph>
<glyph name="asterisk" format="2">
  <advance width="387"/>
  <unicode hex="002A"/>
  <guideline x="467" y="498" angle="0"/>
  <outline>
    <contour>
      <point x="357" y="400" type="line"/>
      <point x="319" y="516" type="line"/>
      <point x="224" y="452" type="line"/>
      <point x="256" y="563" type="line"/>
      <point x="133" y="563" type="line"/>
      <point x="163" y="452" type="line"/>
      <point x="68" y="516" type="line"/>
      <point x="30" y="400" type="line"/>
      <point x="145" y="395" type="line"/>
      <point x="54" y="324" type="line"/>
      <point x="154" y="251" type="line"/>
      <point x="194" y="359" type="line"/>
      <point x="233" y="251" type="line"/>
      <point x="333" y="324" type="line"/>
      <point x="243" y="395" type="line"/>
    </contour>
  </outline>
</glyph>
<glyph name="plus" format="2">
  <advance width="380"/>
  <unicode hex="002B"/>
  <guideline x="69" y="76" angle="0"/>
  <guideline x="69" y="225" angle="0"/>
  <guideline x="69" y="376" angle="0"/>
  <outline>
    <contour>
      <point x="144" y="76" type="line"/>
      <point x="238" y="76" type="line"/>
      <point x="238" y="376" type="line"/>
      <point x="144" y="376" type="line"/>
    </contour>
    <contour>
      <point x="40" y="178" type="line"/>
      <point x="340" y="178" type="line"/>
      <point x="340" y="272" type="line"/>
      <point x="40" y="272" type="line"/>
    </contour>
  </outline>
</glyph>
<glyph name="comma" format="2">
  <advance width="264"/>
  <unicode hex="002C"/>
  <guideline x="204" y="51" angle="90"/>
  <guideline x="114" y="-84" angle="0"/>
  <outline>
    <contour>
      <point x="60" y="-116" type="line"/>
      <point x="91" y="-116" type="line" smooth="yes"/>
      <point x="172" y="-116"/>
      <point x="204" y="-37"/>
      <point x="204" y="45" type="curve" smooth="yes"/>
      <point x="204" y="125"/>
      <point x="174" y="142"/>
      <point x="134" y="142" type="curve" smooth="yes"/>
      <point x="80" y="142"/>
      <point x="60" y="111"/>
      <point x="60" y="71" type="curve" smooth="yes"/>
      <point x="60" y="32"/>
      <point x="80" y="0"/>
      <point x="144" y="0" type="curve"/>
      <point x="144" y="-28"/>
      <point x="127" y="-31"/>
      <point x="91" y="-31" type="curve" smooth="yes"/>
      <point x="60" y="-31" type="line"/>
    </contour>
  </outline>
</glyph>
<glyph name="hyphen" format="2">
  <advance width="317"/>
  <unicode hex="002D"/>
  <outline>
    <contour>
      <point x="40" y="178" type="line"/>
      <point x="262" y="178" type="line"/>
      <point x="262" y="272" type="line"/>
      <point x="40" y="272" type="line"/>
    </contour>
  </outline>
</glyph>
<glyph name="period" format="2">
  <advance width="246"/>
  <unicode hex="002E"/>
  <outline>
    <contour>
      <point x="114" y="0" type="curve" smooth="yes"/>
      <point x="174" y="0"/>
      <point x="191" y="34"/>
      <point x="191" y="78" type="curve" smooth="yes"/>
      <point x="191" y="119"/>
      <point x="174" y="153"/>
      <point x="114" y="153" type="curve" smooth="yes"/>
      <point x="52" y="153"/>
      <point x="35" y="119"/>
      <point x="35" y="78" type="curve" smooth="yes"/>
      <point x="35" y="35"/>
      <point x="51" y="0"/>
    </contour>
  </outline>
</glyph>
<glyph name="slash" format="2">
  <advance width="419"/>
  <unicode hex="002F"/>
  <outline>
    <contour>
      <point x="25" y="0" type="line"/>
      <point x="155" y="0" type="line"/>
      <point x="409" y="563" type="line"/>
      <point x="279" y="563" type="line"/>
    </contour>
  </outline>
</glyph>
<glyph name="zero" format="2">
  <advance width="576"/>
  <unicode hex="0030"/>
  <guideline x="505" y="106" angle="0"/>
  <guideline x="433" y="-14" angle="0"/>
  <guideline x="505" y="573" angle="0"/>
  <guideline x="433" y="453" angle="0"/>
  <guideline x="42" y="628" angle="90"/>
  <guideline x="166" y="171" angle="90"/>
  <guideline x="410" y="628" angle="90"/>
  <guideline x="534" y="171" angle="90"/>
  <outline>
    <contour>
      <point x="288" y="-14" type="curve"/>
      <point x="464" y="-14"/>
      <point x="546" y="106"/>
      <point x="546" y="280" type="curve"/>
      <point x="546" y="458"/>
      <point x="464" y="573"/>
      <point x="288" y="573" type="curve"/>
      <point x="109" y="573"/>
      <point x="30" y="457"/>
      <point x="30" y="280" type="curve"/>
      <point x="30" y="100"/>
      <point x="114" y="-14"/>
    </contour>
    <contour>
      <point x="287" y="101" type="curve"/>
      <point x="198" y="101"/>
      <point x="159" y="158"/>
      <point x="159" y="280" type="curve"/>
      <point x="159" y="406"/>
      <point x="200" y="458"/>
      <point x="287" y="458" type="curve"/>
      <point x="377" y="458"/>
      <point x="417" y="402"/>
      <point x="417" y="280" type="curve"/>
      <point x="417" y="157"/>
      <point x="376" y="101"/>
    </contour>
  </outline>
</glyph>
<glyph name="one" format="2">
  <advance width="424"/>
  <unicode hex="0031"/>
  <guideline x="-41" y="207" angle="90"/>
  <guideline x="227" y="44" angle="90"/>
  <guideline x="342" y="210" angle="90"/>
  <guideline x="479" y="122" angle="0"/>
  <guideline x="157" y="135" angle="90"/>
  <guideline x="479" y="153" angle="0"/>
  <guideline x="246" y="301" angle="0"/>
  <guideline x="244" y="109" angle="0"/>
  <outline>
    <contour>
      <point x="379" y="119" type="line"/>
      <point x="305" y="119" type="line"/>
      <point x="305" y="563" type="line"/>
      <point x="181" y="563" type="line"/>
      <point x="173" y="454"/>
      <point x="63" y="461"/>
      <point x="45" y="467" type="curve"/>
      <point x="45" y="312" type="line"/>
      <point x="59" y="312"/>
      <point x="150" y="304"/>
      <point x="166" y="414" type="curve"/>
      <point x="166" y="119" type="line"/>
      <point x="71" y="119" type="line"/>
      <point x="71" y="0" type="line"/>
      <point x="379" y="0" type="line"/>
    </contour>
  </outline>
</glyph>
<glyph name="two" format="2">
  <advance width="547"/>
  <unicode hex="0032"/>
  <guideline x="223" y="315" angle="0"/>
  <guideline x="223" y="294" angle="0"/>
  <outline>
    <contour>
      <point x="45" y="0" type="line"/>
      <point x="502" y="0" type="line"/>
      <point x="502" y="119" type="line"/>
      <point x="182" y="119" type="line"/>
      <point x="219" y="126"/>
      <point x="402" y="171"/>
      <point x="472" y="312" type="curve"/>
      <point x="542" y="454"/>
      <point x="429" y="573"/>
      <point x="285" y="573" type="curve" smooth="yes"/>
      <point x="139" y="573"/>
      <point x="28" y="481"/>
      <point x="53" y="323" type="curve"/>
      <point x="183" y="304" type="line"/>
      <point x="162" y="409"/>
      <point x="206" y="456"/>
      <point x="271" y="456" type="curve" smooth="yes"/>
      <point x="329" y="456"/>
      <point x="382" y="406"/>
      <point x="341" y="321" type="curve"/>
      <point x="278" y="195"/>
      <point x="47" y="118"/>
      <point x="45" y="116" type="curve"/>
    </contour>
  </outline>
</glyph>
<glyph name="three" format="2">
  <advance width="541"/>
  <unicode hex="0033"/>
  <guideline x="475" y="-10" angle="0"/>
  <guideline x="373" y="628" angle="90"/>
  <guideline x="400" y="628" angle="90"/>
  <guideline x="252" y="326" angle="0"/>
  <guideline x="497" y="171" angle="90"/>
  <guideline x="306" y="229" angle="0"/>
  <guideline x="214" y="208" angle="0"/>
  <guideline x="240" y="373" angle="0"/>
  <guideline x="148" y="352" angle="0"/>
  <outline>
    <contour>
      <point x="283" y="-10" type="curve"/>
      <point x="414" y="-10"/>
      <point x="506" y="49"/>
      <point x="506" y="154" type="curve"/>
      <point x="506" y="222"/>
      <point x="458" y="279"/>
      <point x="379" y="283" type="curve"/>
      <point x="461" y="288"/>
      <point x="497" y="349"/>
      <point x="497" y="414" type="curve"/>
      <point x="497" y="510"/>
      <point x="418" y="573"/>
      <point x="271" y="573" type="curve"/>
      <point x="90" y="573"/>
      <point x="46" y="422"/>
      <point x="46" y="380" type="curve"/>
      <point x="170" y="358" type="line"/>
      <point x="170" y="408"/>
      <point x="209" y="458"/>
      <point x="275" y="458" type="curve"/>
      <point x="335" y="458"/>
      <point x="373" y="425"/>
      <point x="373" y="378" type="curve"/>
      <point x="373" y="330"/>
      <point x="322" y="323"/>
      <point x="280" y="323" type="curve"/>
      <point x="224" y="323" type="line"/>
      <point x="224" y="252" type="line"/>
      <point x="277" y="252" type="line"/>
      <point x="334" y="252"/>
      <point x="375" y="232"/>
      <point x="375" y="187" type="curve"/>
      <point x="375" y="146"/>
      <point x="342" y="110"/>
      <point x="286" y="110" type="curve"/>
      <point x="209" y="110"/>
      <point x="169" y="159"/>
      <point x="169" y="232" type="curve"/>
      <point x="35" y="212" type="line"/>
      <point x="32" y="64"/>
      <point x="129" y="-10"/>
    </contour>
  </outline>
</glyph>
<glyph name="four" format="2">
  <advance width="551"/>
  <unicode hex="0034"/>
  <outline>
    <contour>
      <point x="35" y="101" type="line"/>
      <point x="511" y="101" type="line"/>
      <point x="511" y="220" type="line"/>
      <point x="171" y="220" type="line"/>
      <point x="317" y="308"/>
      <point x="394" y="450"/>
      <point x="394" y="563" type="curve"/>
      <point x="242" y="563" type="line"/>
      <point x="242" y="452"/>
      <point x="180" y="280"/>
      <point x="35" y="220" type="curve"/>
    </contour>
    <contour>
      <point x="309" y="0" type="line"/>
      <point x="448" y="0" type="line"/>
      <point x="448" y="281" type="line"/>
      <point x="309" y="281" type="line"/>
    </contour>
  </outline>
</glyph>
<glyph name="five" format="2">
  <advance width="540"/>
  <unicode hex="0035"/>
  <guideline x="279" y="183" angle="0"/>
  <guideline x="279" y="162" angle="0"/>
  <outline>
    <contour>
      <point x="269" y="-10" type="curve"/>
      <point x="405" y="-10"/>
      <point x="491" y="88"/>
      <point x="499" y="184" type="curve" smooth="yes"/>
      <point x="507" y="279"/>
      <point x="448" y="373"/>
      <point x="316" y="373" type="curve"/>
      <point x="205" y="373"/>
      <point x="164" y="291"/>
      <point x="164" y="291" type="curve"/>
      <point x="181" y="444" type="line"/>
      <point x="472" y="444" type="line"/>
      <point x="472" y="563" type="line"/>
      <point x="86" y="563" type="line"/>
      <point x="54" y="258" type="line"/>
      <point x="201" y="236" type="line"/>
      <point x="202" y="238"/>
      <point x="219" y="282"/>
      <point x="273" y="282" type="curve"/>
      <point x="336" y="282"/>
      <point x="365" y="232"/>
      <point x="360" y="186" type="curve" smooth="yes"/>
      <point x="355" y="145"/>
      <point x="326" y="106"/>
      <point x="273" y="106" type="curve"/>
      <point x="209" y="106"/>
      <point x="182" y="159"/>
      <point x="178" y="183" type="curve"/>
      <point x="40" y="162" type="line"/>
      <point x="49" y="87"/>
      <point x="115" y="-10"/>
    </contour>
  </outline>
</glyph>
<glyph name="six" format="2">
  <advance width="566"/>
  <unicode hex="0036"/>
  <guideline x="505" y="427" angle="0"/>
  <guideline x="413" y="406" angle="0"/>
  <guideline x="245" y="229" angle="0"/>
  <guideline x="153" y="208" angle="0"/>
  <outline>
    <contour>
      <point x="288" y="-10" type="curve"/>
      <point x="579" y="-10"/>
      <point x="601" y="357"/>
      <point x="332" y="357" type="curve"/>
      <point x="212" y="358"/>
      <point x="176" y="264"/>
      <point x="176" y="262" type="curve"/>
      <point x="163" y="433"/>
      <point x="261" y="452"/>
      <point x="289" y="452" type="curve"/>
      <point x="361" y="452"/>
      <point x="374" y="405"/>
      <point x="374" y="405" type="curve"/>
      <point x="513" y="428" type="line"/>
      <point x="513" y="428"/>
      <point x="487" y="573"/>
      <point x="297" y="573" type="curve"/>
      <point x="135" y="573"/>
      <point x="41" y="436"/>
      <point x="41" y="281" type="curve" smooth="yes"/>
      <point x="41" y="117"/>
      <point x="124" y="-10"/>
    </contour>
    <contour>
      <point x="297" y="105" type="curve"/>
      <point x="256" y="105"/>
      <point x="204" y="122"/>
      <point x="193" y="174" type="curve"/>
      <point x="193" y="229"/>
      <point x="240" y="276"/>
      <point x="300" y="276" type="curve"/>
      <point x="422" y="273"/>
      <point x="421" y="105"/>
    </contour>
  </outline>
</glyph>
<glyph name="seven" format="2">
  <advance width="551"/>
  <unicode hex="0037"/>
  <outline>
    <contour>
      <point x="240" y="0" type="curve"/>
      <point x="101" y="0" type="line"/>
      <point x="101" y="230"/>
      <point x="227" y="397"/>
      <point x="380" y="442" type="curve"/>
      <point x="49" y="442" type="line"/>
      <point x="49" y="563" type="line"/>
      <point x="506" y="563" type="line"/>
      <point x="506" y="444" type="line"/>
      <point x="425" y="415"/>
      <point x="240" y="314"/>
    </contour>
  </outline>
</glyph>
<glyph name="eight" format="2">
  <advance width="581"/>
  <unicode hex="0038"/>
  <guideline x="104" y="52" angle="90"/>
  <guideline x="236" y="52" angle="90"/>
  <guideline x="371" y="52" angle="90"/>
  <guideline x="503" y="52" angle="90"/>
  <guideline x="479" y="573" angle="0"/>
  <guideline x="407" y="453" angle="0"/>
  <guideline x="423" y="573" angle="0"/>
  <guideline x="271" y="298" angle="0"/>
  <guideline x="350" y="330" angle="0"/>
  <outline>
    <contour>
      <point x="289" y="-11" type="curve"/>
      <point x="432" y="-11"/>
      <point x="541" y="47"/>
      <point x="541" y="156" type="curve"/>
      <point x="541" y="233"/>
      <point x="488" y="287"/>
      <point x="393" y="298" type="curve"/>
      <point x="495" y="312"/>
      <point x="508" y="391"/>
      <point x="508" y="422" type="curve"/>
      <point x="508" y="511"/>
      <point x="424" y="573"/>
      <point x="289" y="573" type="curve"/>
      <point x="159" y="573"/>
      <point x="72" y="513"/>
      <point x="72" y="422" type="curve"/>
      <point x="72" y="391"/>
      <point x="86" y="312"/>
      <point x="187" y="298" type="curve"/>
      <point x="94" y="289"/>
      <point x="40" y="230"/>
      <point x="40" y="156" type="curve"/>
      <point x="40" y="50"/>
      <point x="147" y="-11"/>
    </contour>
    <contour>
      <point x="290" y="95" type="curve"/>
      <point x="220" y="95"/>
      <point x="175" y="128"/>
      <point x="175" y="179" type="curve"/>
      <point x="175" y="240"/>
      <point x="220" y="266"/>
      <point x="290" y="266" type="curve"/>
      <point x="360" y="266"/>
      <point x="405" y="240"/>
      <point x="405" y="179" type="curve"/>
      <point x="405" y="128"/>
      <point x="360" y="95"/>
    </contour>
    <contour>
      <point x="289" y="330" type="curve"/>
      <point x="232" y="330"/>
      <point x="195" y="355"/>
      <point x="195" y="395" type="curve"/>
      <point x="195" y="447"/>
      <point x="232" y="468"/>
      <point x="289" y="468" type="curve"/>
      <point x="347" y="468"/>
      <point x="385" y="447"/>
      <point x="385" y="395" type="curve"/>
      <point x="385" y="355"/>
      <point x="350" y="330"/>
    </contour>
  </outline>
</glyph>
<glyph name="nine" format="2">
  <advance width="564"/>
  <unicode hex="0039"/>
  <guideline x="-41" y="165" angle="0"/>
  <guideline x="709" y="316" angle="0"/>
  <guideline x="188" y="38" angle="90"/>
  <guideline x="63" y="38" angle="90"/>
  <outline>
    <contour>
      <point x="265" y="-10" type="curve"/>
      <point x="446" y="-10"/>
      <point x="517" y="131"/>
      <point x="517" y="286" type="curve" smooth="yes"/>
      <point x="517" y="432"/>
      <point x="451" y="573"/>
      <point x="266" y="573" type="curve"/>
      <point x="-25" y="573"/>
      <point x="-46" y="205"/>
      <point x="222" y="205" type="curve"/>
      <point x="342" y="205"/>
      <point x="378" y="301"/>
      <point x="378" y="301" type="curve"/>
      <point x="381" y="130"/>
      <point x="299" y="115"/>
      <point x="265" y="115" type="curve"/>
      <point x="193" y="115"/>
      <point x="180" y="162"/>
      <point x="180" y="162" type="curve"/>
      <point x="41" y="135" type="line"/>
      <point x="41" y="135"/>
      <point x="67" y="-10"/>
    </contour>
    <contour>
      <point x="256" y="285" type="curve"/>
      <point x="135" y="288"/>
      <point x="147" y="461"/>
      <point x="265" y="461" type="curve"/>
      <point x="306" y="461"/>
      <point x="349" y="444"/>
      <point x="361" y="387" type="curve"/>
      <point x="361" y="328"/>
      <point x="319" y="285"/>
    </contour>
  </outline>
</glyph>
<glyph name="colon" format="2">
  <advance width="266"/>
  <unicode hex="003A"/>
  <outline>
    <contour>
      <point x="134" y="19" type="curve" smooth="yes"/>
      <point x="195" y="19"/>
      <point x="211" y="54"/>
      <point x="211" y="97" type="curve" smooth="yes"/>
      <point x="211" y="138"/>
      <point x="195" y="172"/>
      <point x="134" y="172" type="curve" smooth="yes"/>
      <point x="71" y="172"/>
      <point x="55" y="138"/>
      <point x="55" y="97" type="curve" smooth="yes"/>
      <point x="55" y="54"/>
      <point x="71" y="19"/>
    </contour>
    <contour>
      <point x="134" y="242" type="curve" smooth="yes"/>
      <point x="195" y="242"/>
      <point x="211" y="277"/>
      <point x="211" y="320" type="curve" smooth="yes"/>
      <point x="211" y="360"/>
      <point x="195" y="395"/>
      <point x="134" y="395" type="curve" smooth="yes"/>
      <point x="72" y="395"/>
      <point x="55" y="361"/>
      <point x="55" y="320" type="curve" smooth="yes"/>
      <point x="55" y="276"/>
      <point x="72" y="242"/>
    </contour>
  </outline>
</glyph>
<glyph name="semicolon" format="2">
  <advance width="279"/>
  <unicode hex="003B"/>
  <guideline x="150" y="172" angle="90"/>
  <outline>
    <contour>
      <point x="147" y="264" type="curve" smooth="yes"/>
      <point x="207" y="264"/>
      <point x="224" y="298"/>
      <point x="224" y="342" type="curve" smooth="yes"/>
      <point x="224" y="383"/>
      <point x="207" y="417"/>
      <point x="147" y="417" type="curve" smooth="yes"/>
      <point x="84" y="417"/>
      <point x="68" y="383"/>
      <point x="68" y="342" type="curve" smooth="yes"/>
      <point x="68" y="299"/>
      <point x="84" y="264"/>
    </contour>
    <contour>
      <point x="76" y="-116" type="line"/>
      <point x="107" y="-116" type="line" smooth="yes"/>
      <point x="188" y="-116"/>
      <point x="220" y="-37"/>
      <point x="220" y="45" type="curve" smooth="yes"/>
      <point x="220" y="125"/>
      <point x="190" y="142"/>
      <point x="150" y="142" type="curve" smooth="yes"/>
      <point x="96" y="142"/>
      <point x="76" y="111"/>
      <point x="76" y="71" type="curve" smooth="yes"/>
      <point x="76" y="32"/>
      <point x="96" y="0"/>
      <point x="160" y="0" type="curve"/>
      <point x="160" y="-28"/>
      <point x="143" y="-31"/>
      <point x="107" y="-31" type="curve" smooth="yes"/>
      <point x="76" y="-31" type="line"/>
    </contour>
  </outline>
</glyph>
<glyph name="less" format="2">
  <advance width="445"/>
  <unicode hex="003C"/>
  <outline>
    <contour>
      <point x="390" y="427" type="line"/>
      <point x="45" y="238" type="line"/>
      <point x="390" y="49" type="line"/>
      <point x="390" y="156" type="line"/>
      <point x="141" y="238" type="line"/>
      <point x="390" y="321" type="line"/>
    </contour>
  </outline>
</glyph>
<glyph name="equal" format="2">
  <advance width="445"/>
  <unicode hex="003D"/>
  <outline>
    <contour>
      <point x="40" y="256" type="line"/>
      <point x="390" y="256" type="line"/>
      <point x="390" y="346" type="line"/>
      <point x="40" y="346" type="line"/>
    </contour>
    <contour>
      <point x="40" y="99" type="line"/>
      <point x="390" y="99" type="line"/>
      <point x="390" y="189" type="line"/>
      <point x="40" y="189" type="line"/>
    </contour>
  </outline>
</glyph>
<glyph name="greater" format="2">
  <advance width="435"/>
  <unicode hex="003E"/>
  <guideline x="167" y="76" angle="0"/>
  <guideline x="167" y="376" angle="0"/>
  <outline>
    <contour>
      <point x="45" y="427" type="line"/>
      <point x="45" y="321" type="line"/>
      <point x="294" y="238" type="line"/>
      <point x="45" y="156" type="line"/>
      <point x="45" y="49" type="line"/>
      <point x="390" y="238" type="line"/>
    </contour>
  </outline>
</glyph>
<glyph name="question" format="2">
  <advance width="460"/>
  <unicode hex="003F"/>
  <guideline x="224" y="405" angle="0"/>
  <guideline x="403" y="194" angle="0"/>
  <guideline x="406" y="145" angle="0"/>
  <outline>
    <contour>
      <point x="284" y="194" type="line"/>
      <point x="284" y="263"/>
      <point x="435" y="307"/>
      <point x="435" y="424" type="curve" smooth="yes"/>
      <point x="435" y="512"/>
      <point x="350" y="573"/>
      <point x="235" y="573" type="curve" smooth="yes"/>
      <point x="72" y="573"/>
      <point x="32" y="452"/>
      <point x="55" y="368" type="curve"/>
      <point x="186" y="368" type="line"/>
      <point x="186" y="380"/>
      <point x="172" y="453"/>
      <point x="244" y="453" type="curve" smooth="yes"/>
      <point x="284" y="453"/>
      <point x="297" y="431"/>
      <point x="294" y="404" type="curve" smooth="yes"/>
      <point x="287" y="341"/>
      <point x="157" y="264"/>
      <point x="157" y="194" type="curve"/>
    </contour>
    <contour>
      <point x="219" y="-9" type="curve" smooth="yes"/>
      <point x="280" y="-9"/>
      <point x="297" y="24"/>
      <point x="297" y="68" type="curve" smooth="yes"/>
      <point x="297" y="111"/>
      <point x="280" y="145"/>
      <point x="219" y="145" type="curve" smooth="yes"/>
      <point x="157" y="145"/>
      <point x="139" y="111"/>
      <point x="139" y="68" type="curve" smooth="yes"/>
      <point x="139" y="27"/>
      <point x="156" y="-9"/>
    </contour>
  </outline>
</glyph>
<glyph name="at" format="2">
  <advance width="895"/>
  <unicode hex="0040"/>
  <outline>
    <contour>
      <point x="45" y="-223"/>
      <point x="500" y="-255"/>
      <point x="752" y="-121" type="curve"/>
      <point x="681" y="1" type="line"/>
      <point x="448" y="-118"/>
      <point x="180" y="-39"/>
      <point x="194" y="188" type="curve"/>
      <point x="200" y="285"/>
      <point x="250" y="365"/>
      <point x="325" y="410" type="curve" smooth="yes"/>
      <point x="455" y="488"/>
      <point x="675" y="455"/>
      <point x="745" y="316" type="curve" smooth="yes"/>
      <point x="793" y="221"/>
      <point x="760" y="98"/>
      <point x="674" y="98" type="curve"/>
      <point x="625" y="98"/>
      <point x="637" y="156"/>
      <point x="645" y="198" type="curve"/>
      <point x="674" y="339" type="line"/>
      <point x="570" y="339" type="line"/>
      <point x="553" y="201" type="line"/>
      <point x="541" y="135" type="line"/>
      <point x="533" y="89"/>
      <point x="547" y="40"/>
      <point x="630" y="40" type="curve"/>
      <point x="790" y="40"/>
      <point x="876" y="196"/>
      <point x="835" y="338" type="curve" smooth="yes"/>
      <point x="773" y="551"/>
      <point x="459" y="606"/>
      <point x="259" y="511" type="curve" smooth="yes"/>
      <point x="128" y="449"/>
      <point x="45" y="323"/>
      <point x="45" y="166" type="curve"/>
    </contour>
    <contour>
      <point x="412" y="47" type="curve"/>
      <point x="489" y="47"/>
      <point x="556" y="106"/>
      <point x="570" y="198" type="curve"/>
      <point x="586" y="287"/>
      <point x="542" y="352"/>
      <point x="455" y="352" type="curve"/>
      <point x="377" y="352"/>
      <point x="311" y="287"/>
      <point x="297" y="201" type="curve"/>
      <point x="284" y="113"/>
      <point x="326" y="47"/>
    </contour>
    <contour>
      <point x="450" y="123" type="curve"/>
      <point x="407" y="123"/>
      <point x="389" y="154"/>
      <point x="395" y="199" type="curve"/>
      <point x="402" y="246"/>
      <point x="436" y="277"/>
      <point x="477" y="277" type="curve"/>
      <point x="524" y="277"/>
      <point x="537" y="245"/>
      <point x="529" y="200" type="curve"/>
      <point x="525" y="179"/>
      <point x="513" y="123"/>
    </contour>
  </outline>
</glyph>
<glyph name="A" format="2">
  <advance width="591"/>
  <unicode hex="0041"/>
  <guideline x="330" y="505" angle="0"/>
  <guideline x="308" y="563" angle="0"/>
  <outline>
    <contour>
      <point x="428" y="0" type="line"/>
      <point x="577" y="0" type="line"/>
      <point x="409" y="563" type="line"/>
      <point x="180" y="563" type="line"/>
      <point x="297" y="505" type="line"/>
    </contour>
    <contour>
      <point x="18" y="0" type="line"/>
      <point x="168" y="0" type="line"/>
      <point x="297" y="505" type="line"/>
      <point x="409" y="563" type="line"/>
      <point x="180" y="563" type="line"/>
    </contour>
    <contour>
      <point x="153" y="141" type="line"/>
      <point x="439" y="141" type="line"/>
      <point x="443" y="247" type="line"/>
      <point x="148" y="247" type="line"/>
    </contour>
  </outline>
</glyph>
<glyph name="B" format="2">
  <advance width="584"/>
  <unicode hex="0042"/>
  <guideline x="454" y="131" angle="90"/>
  <guideline x="556" y="136" angle="90"/>
  <guideline x="239" y="563" angle="0"/>
  <guideline x="198" y="334" angle="0"/>
  <guideline x="124" y="131" angle="90"/>
  <guideline x="293" y="136" angle="90"/>
  <outline>
    <contour>
      <point x="50" y="0" type="line"/>
      <point x="293" y="0" type="line" smooth="yes"/>
      <point x="377" y="0"/>
      <point x="549" y="0"/>
      <point x="549" y="154" type="curve" smooth="yes"/>
      <point x="549" y="227"/>
      <point x="510" y="281"/>
      <point x="364" y="286" type="curve"/>
      <point x="364" y="290" type="line"/>
      <point x="491" y="297"/>
      <point x="521" y="351"/>
      <point x="521" y="415" type="curve" smooth="yes"/>
      <point x="521" y="563"/>
      <point x="359" y="563"/>
      <point x="293" y="563" type="curve" smooth="yes"/>
      <point x="50" y="563" type="line"/>
    </contour>
    <contour>
      <point x="188" y="111" type="line"/>
      <point x="188" y="238" type="line"/>
      <point x="280" y="238" type="line" smooth="yes"/>
      <point x="345" y="238"/>
      <point x="405" y="238"/>
      <point x="405" y="175" type="curve" smooth="yes"/>
      <point x="405" y="111"/>
      <point x="344" y="111"/>
      <point x="280" y="111" type="curve" smooth="yes"/>
    </contour>
    <contour>
      <point x="187" y="342" type="line"/>
      <point x="187" y="451" type="line"/>
      <point x="275" y="451" type="line" smooth="yes"/>
      <point x="331" y="451"/>
      <point x="384" y="451"/>
      <point x="384" y="398" type="curve" smooth="yes"/>
      <point x="384" y="342"/>
      <point x="325" y="342"/>
      <point x="275" y="342" type="curve" smooth="yes"/>
    </contour>
  </outline>
</glyph>
<glyph name="C" format="2">
  <advance width="608"/>
  <unicode hex="0043"/>
  <guideline x="511" y="355" angle="0"/>
  <guideline x="382" y="220" angle="90"/>
  <guideline x="511" y="215" angle="0"/>
  <guideline x="382" y="127" angle="0"/>
  <guideline x="382" y="-10" angle="0"/>
  <outline>
    <contour>
      <point x="303" y="-10" type="curve" smooth="yes"/>
      <point x="476" y="-10"/>
      <point x="563" y="95"/>
      <point x="583" y="214" type="curve"/>
      <point x="438" y="214" type="line"/>
      <point x="427" y="134"/>
      <point x="351" y="121"/>
      <point x="305" y="121" type="curve" smooth="yes"/>
      <point x="199" y="121"/>
      <point x="152" y="182"/>
      <point x="152" y="288" type="curve" smooth="yes"/>
      <point x="152" y="384"/>
      <point x="202" y="441"/>
      <point x="306" y="441" type="curve" smooth="yes"/>
      <point x="349" y="441"/>
      <point x="427" y="432"/>
      <point x="437" y="356" type="curve"/>
      <point x="581" y="356" type="line"/>
      <point x="563" y="470"/>
      <point x="476" y="573"/>
      <point x="306" y="573" type="curve" smooth="yes"/>
      <point x="141" y="573"/>
      <point x="16" y="463"/>
      <point x="14" y="277" type="curve" smooth="yes"/>
      <point x="12" y="87"/>
      <point x="142" y="-10"/>
    </contour>
  </outline>
</glyph>
<glyph name="D" format="2">
  <advance width="625"/>
  <unicode hex="0044"/>
  <guideline x="128" y="562" angle="0"/>
  <guideline x="121" y="468" angle="0"/>
  <guideline x="169" y="563" angle="0"/>
  <guideline x="121" y="468" angle="0"/>
  <guideline x="465" y="132" angle="90"/>
  <guideline x="567" y="137" angle="90"/>
  <guideline x="128" y="94" angle="0"/>
  <guideline x="121" y="0" angle="0"/>
  <outline>
    <contour>
      <point x="198" y="114" type="line"/>
      <point x="237" y="114"/>
      <point x="256" y="114"/>
      <point x="264" y="114" type="curve"/>
      <point x="372" y="114"/>
      <point x="436" y="144"/>
      <point x="436" y="283" type="curve"/>
      <point x="436" y="389"/>
      <point x="372" y="443"/>
      <point x="264" y="443" type="curve"/>
      <point x="198" y="443" type="line"/>
    </contour>
    <contour>
      <point x="585" y="282" type="curve"/>
      <point x="585" y="60"/>
      <point x="443" y="0"/>
      <point x="221" y="0" type="curve"/>
      <point x="198" y="0"/>
      <point x="152" y="0"/>
      <point x="60" y="0" type="curve"/>
      <point x="60" y="563" type="line"/>
      <point x="158" y="563"/>
      <point x="200" y="563"/>
      <point x="221" y="563" type="curve"/>
      <point x="443" y="563"/>
      <point x="585" y="469"/>
    </contour>
  </outline>
</glyph>
<glyph name="E" format="2">
  <advance width="523"/>
  <unicode hex="0045"/>
  <guideline x="70" y="131" angle="90"/>
  <guideline x="185" y="136" angle="90"/>
  <guideline x="130" y="332" angle="0"/>
  <guideline x="123" y="238" angle="0"/>
  <outline>
    <contour>
      <point x="187" y="111" type="line"/>
      <point x="187" y="229" type="line"/>
      <point x="402" y="229" type="line"/>
      <point x="402" y="341" type="line"/>
      <point x="187" y="341" type="line"/>
      <point x="187" y="444" type="line"/>
      <point x="476" y="444" type="line"/>
      <point x="476" y="563" type="line"/>
      <point x="50" y="563" type="line"/>
      <point x="50" y="0" type="line"/>
      <point x="487" y="0" type="line"/>
      <point x="487" y="111" type="line"/>
    </contour>
  </outline>
</glyph>
<glyph name="F" format="2">
  <advance width="470"/>
  <unicode hex="0046"/>
  <outline>
    <contour>
      <point x="197" y="0" type="line"/>
      <point x="197" y="236" type="line"/>
      <point x="400" y="236" type="line"/>
      <point x="400" y="347" type="line"/>
      <point x="197" y="347" type="line"/>
      <point x="197" y="444" type="line"/>
      <point x="472" y="444" type="line"/>
      <point x="472" y="563" type="line"/>
      <point x="60" y="563" type="line"/>
      <point x="60" y="0" type="line"/>
    </contour>
  </outline>
</glyph>
<glyph name="G" format="2">
  <advance width="636"/>
  <unicode hex="0047"/>
  <guideline x="527" y="355" angle="0"/>
  <guideline x="398" y="573" angle="0"/>
  <guideline x="398" y="436" angle="0"/>
  <outline>
    <contour>
      <point x="290" y="-10" type="curve" smooth="yes"/>
      <point x="380" y="-10"/>
      <point x="443" y="27"/>
      <point x="468" y="72" type="curve"/>
      <point x="470" y="72" type="line"/>
      <point x="500" y="0" type="line"/>
      <point x="593" y="0" type="line"/>
      <point x="593" y="292" type="line"/>
      <point x="376" y="292" type="line"/>
      <point x="376" y="192" type="line"/>
      <point x="467" y="192" type="line"/>
      <point x="443" y="138"/>
      <point x="380" y="126"/>
      <point x="330" y="126" type="curve" smooth="yes"/>
      <point x="216" y="126"/>
      <point x="154" y="181"/>
      <point x="154" y="289" type="curve"/>
      <point x="153" y="377"/>
      <point x="199" y="442"/>
      <point x="311" y="442" type="curve" smooth="yes"/>
      <point x="363" y="442"/>
      <point x="431" y="426"/>
      <point x="447" y="356" type="curve"/>
      <point x="582" y="377" type="line"/>
      <point x="552" y="505"/>
      <point x="476" y="573"/>
      <point x="311" y="573" type="curve" smooth="yes"/>
      <point x="144" y="573"/>
      <point x="21" y="470"/>
      <point x="16" y="278" type="curve" smooth="yes"/>
      <point x="11" y="88"/>
      <point x="123" y="-10"/>
    </contour>
  </outline>
</glyph>
<glyph name="H" format="2">
  <advance width="595"/>
  <unicode hex="0048"/>
  <outline>
    <contour>
      <point x="190" y="0" type="line"/>
      <point x="190" y="563" type="line"/>
      <point x="50" y="563" type="line"/>
      <point x="50" y="0" type="line"/>
    </contour>
    <contour>
      <point x="405" y="563" type="line"/>
      <point x="405" y="0" type="line"/>
      <point x="545" y="0" type="line"/>
      <point x="545" y="563" type="line"/>
    </contour>
    <contour>
      <point x="494" y="230" type="line"/>
      <point x="494" y="336" type="line"/>
      <point x="110" y="336" type="line"/>
      <point x="110" y="230" type="line"/>
    </contour>
  </outline>
</glyph>
<glyph name="I" format="2">
  <advance width="415"/>
  <unicode hex="0049"/>
  <outline>
    <contour>
      <point x="347" y="119" type="line"/>
      <point x="63" y="119" type="line"/>
      <point x="63" y="0" type="line"/>
      <point x="347" y="0" type="line"/>
    </contour>
    <contour>
      <point x="63" y="444" type="line"/>
      <point x="347" y="444" type="line"/>
      <point x="347" y="563" type="line"/>
      <point x="63" y="563" type="line"/>
    </contour>
    <contour>
      <point x="136" y="18" type="line"/>
      <point x="275" y="18" type="line"/>
      <point x="275" y="545" type="line"/>
      <point x="136" y="545" type="line"/>
    </contour>
  </outline>
</glyph>
<glyph name="J" format="2">
  <advance width="508"/>
  <unicode hex="004A"/>
  <guideline x="128" y="181" angle="0"/>
  <outline>
    <contour>
      <point x="243" y="-10" type="curve"/>
      <point x="421" y="-10"/>
      <point x="448" y="90"/>
      <point x="448" y="246" type="curve"/>
      <point x="448" y="545" type="line"/>
      <point x="308" y="545" type="line"/>
      <point x="308" y="222" type="line"/>
      <point x="308" y="133"/>
      <point x="286" y="110"/>
      <point x="238" y="110" type="curve"/>
      <point x="182" y="110"/>
      <point x="167" y="149"/>
      <point x="167" y="195" type="curve"/>
      <point x="35" y="195" type="line"/>
      <point x="35" y="75"/>
      <point x="92" y="-10"/>
    </contour>
    <contour>
      <point x="190" y="457" type="line"/>
      <point x="448" y="457" type="line"/>
      <point x="448" y="563" type="line"/>
      <point x="190" y="563" type="line"/>
    </contour>
  </outline>
</glyph>
<glyph name="K" format="2">
  <advance width="604"/>
  <unicode hex="004B"/>
  <guideline x="588"/>
  <outline>
    <contour>
      <point x="197" y="169" type="line"/>
      <point x="583" y="550" type="line"/>
      <point x="583" y="563" type="line"/>
      <point x="401" y="563" type="line"/>
      <point x="197" y="322" type="line"/>
    </contour>
    <contour>
      <point x="60" y="0" type="line"/>
      <point x="199" y="0" type="line"/>
      <point x="199" y="563" type="line"/>
      <point x="60" y="563" type="line"/>
    </contour>
    <contour>
      <point x="436" y="0" type="line"/>
      <point x="595" y="0" type="line"/>
      <point x="595" y="13" type="line"/>
      <point x="350" y="385" type="line"/>
      <point x="249" y="286" type="line"/>
    </contour>
  </outline>
</glyph>
<glyph name="L" format="2">
  <advance width="473"/>
  <unicode hex="004C"/>
  <outline>
    <contour>
      <point x="60" y="0" type="line"/>
      <point x="200" y="0" type="line"/>
      <point x="200" y="563" type="line"/>
      <point x="60" y="563" type="line"/>
    </contour>
    <contour>
      <point x="60" y="0" type="line"/>
      <point x="443" y="0" type="line"/>
      <point x="443" y="119" type="line"/>
      <point x="60" y="119" type="line"/>
    </contour>
  </outline>
</glyph>
<glyph name="M" format="2">
  <advance width="766"/>
  <unicode hex="004D"/>
  <guideline x="351" y="501" angle="0"/>
  <outline>
    <contour>
      <point x="60" y="0" type="line"/>
      <point x="205" y="0" type="line"/>
      <point x="196" y="504" type="line"/>
      <point x="198" y="504" type="line"/>
      <point x="284" y="0" type="line"/>
      <point x="487" y="0" type="line"/>
      <point x="575" y="504" type="line"/>
      <point x="576" y="504" type="line"/>
      <point x="566" y="0" type="line"/>
      <point x="711" y="0" type="line"/>
      <point x="711" y="563" type="line"/>
      <point x="469" y="563" type="line"/>
      <point x="388" y="58" type="line"/>
      <point x="386" y="58" type="line"/>
      <point x="303" y="563" type="line"/>
      <point x="60" y="563" type="line"/>
    </contour>
  </outline>
</glyph>
<glyph name="N" format="2">
  <advance width="630"/>
  <unicode hex="004E"/>
  <outline>
    <contour>
      <point x="429" y="563" type="line"/>
      <point x="429" y="61" type="line"/>
      <point x="427" y="61" type="line"/>
      <point x="303" y="563" type="line"/>
      <point x="55" y="563" type="line"/>
      <point x="55" y="0" type="line"/>
      <point x="200" y="0" type="line"/>
      <point x="200" y="502" type="line"/>
      <point x="202" y="502" type="line"/>
      <point x="307" y="0" type="line"/>
      <point x="575" y="0" type="line"/>
      <point x="575" y="563" type="line"/>
    </contour>
  </outline>
</glyph>
<glyph name="O" format="2">
  <advance width="619"/>
  <unicode hex="004F"/>
  <guideline x="538" y="275" angle="0"/>
  <guideline x="382" y="573" angle="0"/>
  <guideline x="382" y="436" angle="0"/>
  <outline>
    <contour>
      <point x="302" y="-14" type="curve" smooth="yes"/>
      <point x="489" y="-14"/>
      <point x="588" y="106"/>
      <point x="588" y="280" type="curve" smooth="yes"/>
      <point x="588" y="458"/>
      <point x="489" y="573"/>
      <point x="302" y="573" type="curve" smooth="yes"/>
      <point x="110" y="573"/>
      <point x="14" y="457"/>
      <point x="14" y="280" type="curve" smooth="yes"/>
      <point x="14" y="100"/>
      <point x="115" y="-14"/>
    </contour>
    <contour>
      <point x="300" y="121" type="curve" smooth="yes"/>
      <point x="199" y="121"/>
      <point x="150" y="195"/>
      <point x="150" y="280" type="curve" smooth="yes"/>
      <point x="150" y="373"/>
      <point x="202" y="442"/>
      <point x="300" y="442" type="curve" smooth="yes"/>
      <point x="401" y="442"/>
      <point x="451" y="368"/>
      <point x="451" y="280" type="curve" smooth="yes"/>
      <point x="451" y="193"/>
      <point x="401" y="121"/>
    </contour>
  </outline>
</glyph>
<glyph name="P" format="2">
  <advance width="508"/>
  <unicode hex="0050"/>
  <guideline x="135" y="468" angle="0"/>
  <outline>
    <contour>
      <point x="190" y="0" type="line"/>
      <point x="190" y="563" type="line"/>
      <point x="50" y="563" type="line"/>
      <point x="50" y="0" type="line"/>
    </contour>
    <contour>
      <point x="171" y="563" type="line"/>
      <point x="171" y="451" type="line"/>
      <point x="267" y="451" type="line"/>
      <point x="324" y="451"/>
      <point x="369" y="424"/>
      <point x="369" y="367" type="curve"/>
      <point x="369" y="311"/>
      <point x="323" y="282"/>
      <point x="267" y="282" type="curve"/>
      <point x="172" y="282" type="line"/>
      <point x="172" y="184" type="line"/>
      <point x="288" y="184" type="line"/>
      <point x="412" y="184"/>
      <point x="495" y="253"/>
      <point x="495" y="365" type="curve"/>
      <point x="495" y="497"/>
      <point x="416" y="563"/>
      <point x="288" y="563" type="curve"/>
    </contour>
  </outline>
</glyph>
<glyph name="Q" format="2">
  <advance width="636"/>
  <unicode hex="0051"/>
  <guideline x="323" y="46" angle="90"/>
  <guideline x="273" y="-139" angle="0"/>
  <guideline x="273" y="-366" angle="0"/>
  <guideline x="213" y="69" angle="0"/>
  <guideline x="262" y="-82" angle="90"/>
  <outline>
    <contour>
      <point x="319" y="-14" type="curve" smooth="yes"/>
      <point x="507" y="-14"/>
      <point x="606" y="106"/>
      <point x="606" y="280" type="curve" smooth="yes"/>
      <point x="606" y="457"/>
      <point x="507" y="573"/>
      <point x="319" y="573" type="curve" smooth="yes"/>
      <point x="126" y="573"/>
      <point x="30" y="456"/>
      <point x="30" y="280" type="curve" smooth="yes"/>
      <point x="30" y="100"/>
      <point x="131" y="-14"/>
    </contour>
    <contour>
      <point x="400" y="-141" type="curve"/>
      <point x="393" y="-141"/>
      <point x="484" y="-140"/>
      <point x="492" y="-140" type="curve"/>
      <point x="494" y="-35" type="line"/>
      <point x="468" y="-35"/>
      <point x="438" y="-36"/>
      <point x="444" y="-36" type="curve"/>
      <point x="390" y="-36"/>
      <point x="395" y="-36"/>
      <point x="395" y="25" type="curve"/>
      <point x="395" y="69" type="line"/>
      <point x="262" y="69" type="line"/>
      <point x="262" y="14" type="line"/>
      <point x="262" y="-147"/>
      <point x="342" y="-141"/>
    </contour>
    <contour>
      <point x="317" y="124" type="curve" smooth="yes"/>
      <point x="219" y="124"/>
      <point x="172" y="188"/>
      <point x="172" y="285" type="curve" smooth="yes"/>
      <point x="172" y="387"/>
      <point x="222" y="447"/>
      <point x="317" y="447" type="curve" smooth="yes"/>
      <point x="415" y="447"/>
      <point x="463" y="382"/>
      <point x="463" y="285" type="curve" smooth="yes"/>
      <point x="463" y="187"/>
      <point x="415" y="124"/>
    </contour>
  </outline>
</glyph>
<glyph name="R" format="2">
  <advance width="578"/>
  <unicode hex="0052"/>
  <guideline x="165" y="468" angle="0"/>
  <guideline x="172" y="334" angle="0"/>
  <guideline x="498" y="-10" angle="0"/>
  <outline>
    <contour>
      <point x="50" y="0" type="line"/>
      <point x="190" y="0" type="line"/>
      <point x="190" y="223" type="line"/>
      <point x="342" y="237"/>
      <point x="348" y="194"/>
      <point x="348" y="130" type="curve" smooth="yes"/>
      <point x="348" y="-20"/>
      <point x="470" y="-38"/>
      <point x="545" y="25" type="curve"/>
      <point x="545" y="101" type="line"/>
      <point x="427" y="53"/>
      <point x="505" y="233"/>
      <point x="393" y="233" type="curve"/>
      <point x="469" y="233"/>
      <point x="517" y="291"/>
      <point x="517" y="393" type="curve" smooth="yes"/>
      <point x="517" y="516"/>
      <point x="426" y="563"/>
      <point x="279" y="563" type="curve" smooth="yes"/>
      <point x="50" y="563" type="line"/>
    </contour>
    <contour>
      <point x="190" y="321" type="line"/>
      <point x="190" y="451" type="line"/>
      <point x="242" y="451" type="line" smooth="yes"/>
      <point x="340" y="451"/>
      <point x="393" y="455"/>
      <point x="393" y="381" type="curve" smooth="yes"/>
      <point x="393" y="314"/>
      <point x="351" y="321"/>
      <point x="260" y="321" type="curve" smooth="yes"/>
    </contour>
  </outline>
</glyph>
<glyph name="S" format="2">
  <advance width="584"/>
  <unicode hex="0053"/>
  <guideline x="651" y="352" angle="0"/>
  <guideline x="328" y="563" angle="0"/>
  <guideline x="537" y="193" angle="180"/>
  <guideline x="400" y="435" angle="0"/>
  <outline>
    <contour>
      <point x="282" y="-10" type="curve" smooth="yes"/>
      <point x="431" y="-10"/>
      <point x="529" y="47"/>
      <point x="536" y="145" type="curve" smooth="yes"/>
      <point x="553" y="378"/>
      <point x="187" y="293"/>
      <point x="187" y="398" type="curve" smooth="yes"/>
      <point x="187" y="432"/>
      <point x="223" y="442"/>
      <point x="273" y="442" type="curve" smooth="yes"/>
      <point x="319" y="442"/>
      <point x="394" y="432"/>
      <point x="394" y="370" type="curve"/>
      <point x="529" y="370" type="line"/>
      <point x="528" y="508"/>
      <point x="413" y="573"/>
      <point x="289" y="573" type="curve" smooth="yes"/>
      <point x="134" y="573"/>
      <point x="45" y="514"/>
      <point x="38" y="416" type="curve" smooth="yes"/>
      <point x="22" y="186"/>
      <point x="380" y="257"/>
      <point x="380" y="161" type="curve" smooth="yes"/>
      <point x="380" y="121"/>
      <point x="331" y="116"/>
      <point x="293" y="116" type="curve" smooth="yes"/>
      <point x="179" y="116"/>
      <point x="163" y="178"/>
      <point x="163" y="194" type="curve"/>
      <point x="23" y="194" type="line"/>
      <point x="23" y="46"/>
      <point x="155" y="-10"/>
    </contour>
  </outline>
</glyph>
<glyph name="T" format="2">
  <advance width="480"/>
  <unicode hex="0054"/>
  <outline>
    <contour>
      <point x="302" y="545" type="line"/>
      <point x="162" y="545" type="line"/>
      <point x="162" y="0" type="line"/>
      <point x="302" y="0" type="line"/>
    </contour>
    <contour>
      <point x="10" y="444" type="line"/>
      <point x="455" y="444" type="line"/>
      <point x="455" y="563" type="line"/>
      <point x="10" y="563" type="line"/>
    </contour>
  </outline>
</glyph>
<glyph name="U" format="2">
  <advance width="614"/>
  <unicode hex="0055"/>
  <outline>
    <contour>
      <point x="310" y="-14" type="curve"/>
      <point x="482" y="-14"/>
      <point x="566" y="76"/>
      <point x="566" y="240" type="curve"/>
      <point x="566" y="563" type="line"/>
      <point x="416" y="563" type="line"/>
      <point x="416" y="241" type="line"/>
      <point x="416" y="129"/>
      <point x="356" y="119"/>
      <point x="310" y="119" type="curve"/>
      <point x="272" y="119"/>
      <point x="205" y="130"/>
      <point x="205" y="241" type="curve"/>
      <point x="205" y="563" type="line"/>
      <point x="55" y="563" type="line"/>
      <point x="55" y="240" type="line"/>
      <point x="55" y="79"/>
      <point x="142" y="-14"/>
    </contour>
  </outline>
</glyph>
<glyph name="V" format="2">
  <advance width="595"/>
  <unicode hex="0056"/>
  <outline>
    <contour>
      <point x="442" y="563" type="line"/>
      <point x="304" y="57" type="line"/>
      <point x="168" y="563" type="line"/>
      <point x="15" y="563" type="line"/>
      <point x="189" y="0" type="line"/>
      <point x="421" y="0" type="line"/>
      <point x="595" y="563" type="line"/>
    </contour>
  </outline>
</glyph>
<glyph name="W" format="2">
  <advance width="802"/>
  <unicode hex="0057"/>
  <outline>
    <contour>
      <point x="328" y="563" type="line"/>
      <point x="242" y="57" type="line"/>
      <point x="168" y="563" type="line"/>
      <point x="20" y="563" type="line"/>
      <point x="131" y="0" type="line"/>
      <point x="355" y="0" type="line"/>
      <point x="402" y="387" type="line"/>
      <point x="476" y="563" type="line"/>
    </contour>
    <contour>
      <point x="634" y="563" type="line"/>
      <point x="567" y="57" type="line"/>
      <point x="476" y="563" type="line"/>
      <point x="326" y="563" type="line"/>
      <point x="402" y="387" type="line"/>
      <point x="455" y="0" type="line"/>
      <point x="678" y="0" type="line"/>
      <point x="782" y="563" type="line"/>
    </contour>
  </outline>
</glyph>
<glyph name="X" format="2">
  <advance width="591"/>
  <unicode hex="0058"/>
  <outline>
    <contour>
      <point x="16" y="0" type="line"/>
      <point x="178" y="0" type="line"/>
      <point x="303" y="210" type="line"/>
      <point x="429" y="0" type="line"/>
      <point x="591" y="0" type="line"/>
      <point x="397" y="295" type="line"/>
      <point x="575" y="563" type="line"/>
      <point x="413" y="563" type="line"/>
      <point x="303" y="376" type="line"/>
      <point x="193" y="563" type="line"/>
      <point x="29" y="563" type="line"/>
      <point x="209" y="295" type="line"/>
    </contour>
  </outline>
</glyph>
<glyph name="Y" format="2">
  <advance width="464"/>
  <unicode hex="0059"/>
  <outline>
    <contour>
      <point x="162" y="194" type="line"/>
      <point x="302" y="194" type="line"/>
      <point x="499" y="563" type="line"/>
      <point x="342" y="563" type="line"/>
      <point x="235" y="312" type="line"/>
      <point x="128" y="563" type="line"/>
      <point x="-29" y="563" type="line"/>
    </contour>
    <contour>
      <point x="163" y="0" type="line"/>
      <point x="302" y="0" type="line"/>
      <point x="302" y="207" type="line"/>
      <point x="163" y="207" type="line"/>
    </contour>
  </outline>
</glyph>
<glyph name="Z" format="2">
  <advance width="583"/>
  <unicode hex="005A"/>
  <outline>
    <contour>
      <point x="50" y="0" type="line"/>
      <point x="534" y="0" type="line"/>
      <point x="534" y="119" type="line"/>
      <point x="236" y="119" type="line"/>
      <point x="535" y="444" type="line"/>
      <point x="535" y="563" type="line"/>
      <point x="69" y="563" type="line"/>
      <point x="69" y="444" type="line"/>
      <point x="356" y="444" type="line"/>
      <point x="50" y="117" type="line"/>
    </contour>
  </outline>
</glyph>
<glyph name="bracketleft" format="2">
  <advance width="326"/>
  <unicode hex="005B"/>
  <guideline x="306" y="116" angle="90"/>
  <guideline x="491" y="-89" angle="0"/>
  <outline>
    <contour>
      <point x="306" y="-199" type="line"/>
      <point x="35" y="-199" type="line"/>
      <point x="35" y="603" type="line"/>
      <point x="306" y="603" type="line"/>
      <point x="306" y="473" type="line"/>
      <point x="175" y="473" type="line"/>
      <point x="175" y="-68" type="line"/>
      <point x="306" y="-69" type="line"/>
    </contour>
  </outline>
</glyph>
<glyph name="backslash" format="2">
  <advance width="399"/>
  <unicode hex="005C"/>
  <guideline x="354" y="281" angle="0"/>
  <outline>
    <contour>
      <point x="224" y="0" type="line"/>
      <point x="-30" y="563" type="line"/>
      <point x="100" y="563" type="line"/>
      <point x="354" y="0" type="line"/>
    </contour>
  </outline>
</glyph>
<glyph name="bracketright" format="2">
  <advance width="326"/>
  <unicode hex="005D"/>
  <outline>
    <contour>
      <point x="35" y="-199" type="line"/>
      <point x="306" y="-199" type="line"/>
      <point x="306" y="603" type="line"/>
      <point x="35" y="603" type="line"/>
      <point x="35" y="473" type="line"/>
      <point x="166" y="473" type="line"/>
      <point x="166" y="-68" type="line"/>
      <point x="35" y="-69" type="line"/>
    </contour>
  </outline>
</glyph>
<glyph name="asciicircum" format="2">
  <advance width="480"/>
  <unicode hex="005E"/>
  <guideline x="52" y="335" angle="0"/>
  <outline>
    <contour>
      <point x="30" y="320" type="line"/>
      <point x="159" y="320" type="line"/>
      <point x="239" y="460" type="line"/>
      <point x="241" y="460" type="line"/>
      <point x="322" y="320" type="line"/>
      <point x="450" y="320" type="line"/>
      <point x="450" y="352" type="line"/>
      <point x="240" y="562" type="line"/>
      <point x="30" y="352" type="line"/>
    </contour>
  </outline>
</glyph>
<glyph name="underscore" format="2">
  <advance width="617"/>
  <unicode hex="005F"/>
  <outline>
    <contour>
      <point x="40" y="0" type="line"/>
      <point x="562" y="0" type="line"/>
      <point x="562" y="94" type="line"/>
      <point x="40" y="94" type="line"/>
    </contour>
  </outline>
</glyph>
<glyph name="a" format="2">
  <advance width="480"/>
  <unicode hex="0061"/>
  <guideline x="454" y="-6" angle="90"/>
  <guideline x="361" y="367" angle="90"/>
  <guideline x="484" y="47" angle="270"/>
  <guideline x="310" y="-6" angle="90"/>
  <guideline x="86" y="199" angle="0"/>
  <guideline x="323" y="248" angle="90"/>
  <guideline x="418" y="0" angle="0"/>
  <guideline x="317" y="424" angle="0"/>
  <guideline x="116" y="280" angle="0"/>
  <guideline x="175" y="64" angle="90"/>
  <guideline x="116" y="338" angle="0"/>
  <guideline x="418" y="292" angle="0"/>
  <outline>
    <contour>
      <point x="174" y="-10" type="curve" smooth="yes"/>
      <point x="278" y="-10"/>
      <point x="306" y="56"/>
      <point x="304" y="56" type="curve"/>
      <point x="306" y="56" type="line"/>
      <point x="328" y="0" type="line"/>
      <point x="450" y="0" type="line"/>
      <point x="450" y="414" type="line"/>
      <point x="306" y="414" type="line"/>
      <point x="306" y="338" type="line"/>
      <point x="304" y="338" type="line" smooth="yes"/>
      <point x="305" y="338"/>
      <point x="282" y="414"/>
      <point x="174" y="414" type="curve" smooth="yes"/>
      <point x="61" y="414"/>
      <point x="24" y="330"/>
      <point x="24" y="200" type="curve" smooth="yes"/>
      <point x="24" y="70"/>
      <point x="61" y="-10"/>
    </contour>
    <contour>
      <point x="233" y="105" type="curve" smooth="yes"/>
      <point x="165" y="105"/>
      <point x="160" y="151"/>
      <point x="160" y="199" type="curve" smooth="yes"/>
      <point x="160" y="246"/>
      <point x="165" y="292"/>
      <point x="233" y="292" type="curve" smooth="yes"/>
      <point x="301" y="292"/>
      <point x="306" y="247"/>
      <point x="306" y="199" type="curve" smooth="yes"/>
      <point x="306" y="152"/>
      <point x="301" y="105"/>
    </contour>
  </outline>
</glyph>
<glyph name="b" format="2">
  <advance width="513"/>
  <unicode hex="0062"/>
  <guideline x="329" y="140" angle="90"/>
  <guideline x="124" y="338" angle="0"/>
  <guideline x="424" y="157" angle="0"/>
  <guideline x="426" y="292" angle="0"/>
  <guideline x="124" y="270" angle="0"/>
  <guideline x="333" y="161" angle="90"/>
  <guideline x="50" y="-81" angle="90"/>
  <guideline x="426" y="59" angle="0"/>
  <guideline x="475" y="204" angle="90"/>
  <guideline x="424" y="239" angle="0"/>
  <guideline x="172" y="-81" angle="90"/>
  <outline>
    <contour>
      <point x="313" y="-10" type="curve" smooth="yes"/>
      <point x="438" y="-10"/>
      <point x="475" y="69"/>
      <point x="475" y="198" type="curve" smooth="yes"/>
      <point x="475" y="335"/>
      <point x="436" y="414"/>
      <point x="313" y="414" type="curve" smooth="yes"/>
      <point x="212" y="414"/>
      <point x="185" y="338"/>
      <point x="185" y="338" type="curve" smooth="yes"/>
      <point x="183" y="338" type="line"/>
      <point x="183" y="563" type="line"/>
      <point x="39" y="563" type="line"/>
      <point x="39" y="0" type="line"/>
      <point x="161" y="0" type="line"/>
      <point x="183" y="56" type="line"/>
      <point x="185" y="56" type="line"/>
      <point x="185" y="56"/>
      <point x="218" y="-10"/>
    </contour>
    <contour>
      <point x="261" y="105" type="curve" smooth="yes"/>
      <point x="190" y="105"/>
      <point x="183" y="151"/>
      <point x="183" y="199" type="curve" smooth="yes"/>
      <point x="183" y="247"/>
      <point x="190" y="292"/>
      <point x="261" y="292" type="curve" smooth="yes"/>
      <point x="332" y="292"/>
      <point x="339" y="247"/>
      <point x="339" y="199" type="curve" smooth="yes"/>
      <point x="339" y="151"/>
      <point x="332" y="105"/>
    </contour>
  </outline>
</glyph>
<glyph name="c" format="2">
  <advance width="486"/>
  <unicode hex="0063"/>
  <guideline x="16" y="112" angle="90"/>
  <guideline x="513" y="146" angle="90"/>
  <guideline x="287" y="-17" angle="0"/>
  <guideline x="244" y="109" angle="0"/>
  <guideline x="483" y="163" angle="0"/>
  <guideline x="483" y="150" angle="0"/>
  <guideline x="474" y="250" angle="0"/>
  <guideline x="443" y="226" angle="0"/>
  <outline>
    <contour>
      <point x="245" y="-10" type="curve" smooth="yes"/>
      <point x="385" y="-10"/>
      <point x="456" y="85"/>
      <point x="456" y="173" type="curve"/>
      <point x="329" y="173" type="line"/>
      <point x="322" y="128"/>
      <point x="289" y="109"/>
      <point x="253" y="109" type="curve" smooth="yes"/>
      <point x="190" y="109"/>
      <point x="164" y="149"/>
      <point x="164" y="212" type="curve" smooth="yes"/>
      <point x="164" y="263"/>
      <point x="191" y="298"/>
      <point x="251" y="298" type="curve" smooth="yes"/>
      <point x="297" y="298"/>
      <point x="322" y="279"/>
      <point x="329" y="240" type="curve"/>
      <point x="456" y="240" type="line"/>
      <point x="456" y="322"/>
      <point x="386" y="416"/>
      <point x="246" y="416" type="curve" smooth="yes"/>
      <point x="125" y="416"/>
      <point x="31" y="337"/>
      <point x="28" y="200" type="curve" smooth="yes"/>
      <point x="28" y="59"/>
      <point x="128" y="-10"/>
    </contour>
  </outline>
</glyph>
<glyph name="d" format="2">
  <advance width="523"/>
  <unicode hex="0064"/>
  <guideline x="385" y="-10" angle="0"/>
  <guideline x="335" y="414" angle="90"/>
  <guideline x="462" y="563" angle="90"/>
  <outline>
    <contour>
      <point x="200" y="-10" type="curve" smooth="yes"/>
      <point x="295" y="-10"/>
      <point x="328" y="56"/>
      <point x="328" y="56" type="curve"/>
      <point x="330" y="56" type="line"/>
      <point x="352" y="0" type="line"/>
      <point x="474" y="0" type="line"/>
      <point x="474" y="563" type="line"/>
      <point x="330" y="563" type="line"/>
      <point x="330" y="338" type="line"/>
      <point x="328" y="338" type="line" smooth="yes"/>
      <point x="328" y="338"/>
      <point x="301" y="414"/>
      <point x="200" y="414" type="curve" smooth="yes"/>
      <point x="77" y="414"/>
      <point x="38" y="335"/>
      <point x="38" y="198" type="curve" smooth="yes"/>
      <point x="38" y="69"/>
      <point x="75" y="-10"/>
    </contour>
    <contour>
      <point x="252" y="105" type="curve" smooth="yes"/>
      <point x="181" y="105"/>
      <point x="174" y="151"/>
      <point x="174" y="199" type="curve" smooth="yes"/>
      <point x="174" y="247"/>
      <point x="181" y="292"/>
      <point x="252" y="292" type="curve" smooth="yes"/>
      <point x="323" y="292"/>
      <point x="330" y="247"/>
      <point x="330" y="199" type="curve" smooth="yes"/>
      <point x="330" y="151"/>
      <point x="323" y="105"/>
    </contour>
  </outline>
</glyph>
<glyph name="e" format="2">
  <advance width="474"/>
  <unicode hex="0065"/>
  <outline>
    <contour>
      <point x="235" y="-10" type="curve" smooth="yes"/>
      <point x="362" y="-10"/>
      <point x="428" y="64"/>
      <point x="434" y="153" type="curve"/>
      <point x="299" y="153" type="line"/>
      <point x="295" y="125"/>
      <point x="270" y="105"/>
      <point x="232" y="105" type="curve" smooth="yes"/>
      <point x="186" y="105"/>
      <point x="155" y="130"/>
      <point x="155" y="189" type="curve"/>
      <point x="435" y="189" type="line"/>
      <point x="435" y="196"/>
      <point x="435" y="215"/>
      <point x="435" y="215" type="curve" smooth="yes"/>
      <point x="435" y="340"/>
      <point x="348" y="417"/>
      <point x="230" y="417" type="curve" smooth="yes"/>
      <point x="106" y="417"/>
      <point x="19" y="333"/>
      <point x="23" y="197" type="curve" smooth="yes"/>
      <point x="26" y="92"/>
      <point x="85" y="-10"/>
    </contour>
    <contour>
      <point x="157" y="245" type="line"/>
      <point x="157" y="245"/>
      <point x="154" y="305"/>
      <point x="227" y="305" type="curve" smooth="yes"/>
      <point x="299" y="305"/>
      <point x="295" y="245"/>
      <point x="295" y="245" type="curve"/>
    </contour>
  </outline>
</glyph>
<glyph name="f" format="2">
  <advance width="309"/>
  <unicode hex="0066"/>
  <guideline x="295" y="201" angle="90"/>
  <guideline x="117" y="447" angle="0"/>
  <outline>
    <contour>
      <point x="69" y="0" type="line"/>
      <point x="208" y="0" type="line"/>
      <point x="208" y="482" type="line"/>
      <point x="295" y="482" type="line"/>
      <point x="295" y="589" type="line"/>
      <point x="199" y="589" type="line" smooth="yes"/>
      <point x="119" y="589"/>
      <point x="69" y="558"/>
      <point x="69" y="459" type="curve" smooth="yes"/>
    </contour>
    <contour>
      <point x="20" y="319" type="line"/>
      <point x="295" y="319" type="line"/>
      <point x="295" y="414" type="line"/>
      <point x="20" y="414" type="line"/>
    </contour>
  </outline>
</glyph>
<glyph name="h" format="2">
  <advance width="506"/>
  <unicode hex="0068"/>
  <guideline x="436" y="-28" angle="90"/>
  <guideline x="309" y="-28" angle="90"/>
  <guideline x="165" y="-28" angle="90"/>
  <guideline x="38" y="-28" angle="90"/>
  <guideline x="243" y="142" angle="0"/>
  <outline>
    <contour>
      <point x="45" y="0" type="line"/>
      <point x="189" y="0" type="line"/>
      <point x="189" y="199" type="line" smooth="yes"/>
      <point x="189" y="242"/>
      <point x="190" y="292"/>
      <point x="256" y="292" type="curve" smooth="yes"/>
      <point x="323" y="292"/>
      <point x="325" y="242"/>
      <point x="325" y="199" type="curve" smooth="yes"/>
      <point x="325" y="0" type="line"/>
      <point x="461" y="0" type="line"/>
      <point x="461" y="198" type="line" smooth="yes"/>
      <point x="461" y="254"/>
      <point x="461" y="414"/>
      <point x="314" y="414" type="curve" smooth="yes"/>
      <point x="213" y="414"/>
      <point x="191" y="338"/>
      <point x="191" y="338" type="curve" smooth="yes"/>
      <point x="189" y="338" type="line"/>
      <point x="189" y="563" type="line"/>
      <point x="45" y="563" type="line"/>
    </contour>
  </outline>
</glyph>
<glyph name="i" format="2">
  <advance width="238"/>
  <unicode hex="0069"/>
  <outline>
    <contour>
      <point x="50" y="0" type="line"/>
      <point x="190" y="0" type="line"/>
      <point x="190" y="414" type="line"/>
      <point x="189" y="414"/>
      <point x="52" y="414"/>
      <point x="50" y="414" type="curve"/>
    </contour>
    <contour>
      <point x="120" y="461" type="curve" smooth="yes"/>
      <point x="174" y="462"/>
      <point x="189" y="491"/>
      <point x="189" y="531" type="curve" smooth="yes"/>
      <point x="189" y="568"/>
      <point x="174" y="599"/>
      <point x="120" y="599" type="curve" smooth="yes"/>
      <point x="64" y="599"/>
      <point x="49" y="568"/>
      <point x="49" y="531" type="curve" smooth="yes"/>
      <point x="49" y="492"/>
      <point x="63" y="460"/>
    </contour>
  </outline>
</glyph>
<glyph name="j" format="2">
  <advance width="279"/>
  <unicode hex="006A"/>
  <guideline x="-18" y="51" angle="90"/>
  <outline>
    <contour>
      <point x="156" y="430" type="curve" smooth="yes"/>
      <point x="213" y="430"/>
      <point x="228" y="462"/>
      <point x="228" y="503" type="curve" smooth="yes"/>
      <point x="228" y="543"/>
      <point x="213" y="575"/>
      <point x="156" y="575" type="curve" smooth="yes"/>
      <point x="96" y="575"/>
      <point x="81" y="543"/>
      <point x="81" y="503" type="curve" smooth="yes"/>
      <point x="81" y="462"/>
      <point x="96" y="430"/>
    </contour>
    <contour>
      <point x="84" y="414" type="line"/>
      <point x="84" y="-92" type="line"/>
      <point x="17" y="-92" type="line"/>
      <point x="17" y="-199" type="line"/>
      <point x="94" y="-199" type="line" smooth="yes"/>
      <point x="174" y="-199"/>
      <point x="224" y="-168"/>
      <point x="224" y="-69" type="curve" smooth="yes"/>
      <point x="224" y="414" type="line"/>
    </contour>
  </outline>
</glyph>
<glyph name="k" format="2">
  <advance width="468"/>
  <unicode hex="006B"/>
  <guideline x="488" y="151" angle="90"/>
  <outline>
    <contour>
      <point x="175" y="0" type="line"/>
      <point x="175" y="563" type="line"/>
      <point x="35" y="563" type="line"/>
      <point x="35" y="0" type="line"/>
    </contour>
    <contour>
      <point x="266" y="312" type="line"/>
      <point x="164" y="214" type="line"/>
      <point x="309" y="1" type="line"/>
      <point x="474" y="1" type="line"/>
    </contour>
    <contour>
      <point x="173" y="96" type="line"/>
      <point x="471" y="417" type="line"/>
      <point x="303" y="417" type="line"/>
      <point x="173" y="249" type="line"/>
    </contour>
  </outline>
</glyph>
<glyph name="l" format="2">
  <advance width="226"/>
  <unicode hex="006C"/>
  <outline>
    <contour>
      <point x="45" y="0" type="line"/>
      <point x="181" y="0" type="line"/>
      <point x="181" y="563" type="line"/>
      <point x="45" y="563" type="line"/>
    </contour>
  </outline>
</glyph>
<glyph name="m" format="2">
  <advance width="659"/>
  <unicode hex="006D"/>
  <outline>
    <contour>
      <point x="35" y="0" type="line"/>
      <point x="158" y="0" type="line"/>
      <point x="158" y="199" type="line" smooth="yes"/>
      <point x="158" y="239"/>
      <point x="158" y="292"/>
      <point x="216" y="292" type="curve" smooth="yes"/>
      <point x="275" y="292"/>
      <point x="275" y="236"/>
      <point x="275" y="199" type="curve" smooth="yes"/>
      <point x="275" y="0" type="line"/>
      <point x="391" y="0" type="line"/>
      <point x="391" y="198" type="line" smooth="yes"/>
      <point x="391" y="254"/>
      <point x="401" y="414"/>
      <point x="275" y="414" type="curve" smooth="yes"/>
      <point x="189" y="414"/>
      <point x="160" y="338"/>
      <point x="160" y="338" type="curve" smooth="yes"/>
      <point x="158" y="338" type="line"/>
      <point x="158" y="414" type="line"/>
      <point x="35" y="414" type="line"/>
    </contour>
    <contour>
      <point x="372" y="338" type="line"/>
      <point x="391" y="199" type="line"/>
      <point x="391" y="239"/>
      <point x="391" y="292"/>
      <point x="449" y="292" type="curve" smooth="yes"/>
      <point x="508" y="292"/>
      <point x="508" y="236"/>
      <point x="508" y="199" type="curve" smooth="yes"/>
      <point x="508" y="0" type="line"/>
      <point x="624" y="0" type="line"/>
      <point x="624" y="198" type="line" smooth="yes"/>
      <point x="624" y="255"/>
      <point x="629" y="414"/>
      <point x="502" y="414" type="curve" smooth="yes"/>
      <point x="414" y="414"/>
      <point x="379" y="338"/>
      <point x="379" y="338" type="curve" smooth="yes"/>
    </contour>
  </outline>
</glyph>
<glyph name="n" format="2">
  <advance width="486"/>
  <unicode hex="006E"/>
  <guideline x="157" y="300" angle="90"/>
  <guideline x="294" y="300" angle="90"/>
  <guideline x="243" y="300" angle="90"/>
  <guideline x="321" y="300" angle="90"/>
  <guideline x="36" y="300" angle="90"/>
  <outline>
    <contour>
      <point x="35" y="0" type="line"/>
      <point x="179" y="0" type="line"/>
      <point x="179" y="199" type="line" smooth="yes"/>
      <point x="179" y="242"/>
      <point x="180" y="292"/>
      <point x="246" y="292" type="curve" smooth="yes"/>
      <point x="313" y="292"/>
      <point x="315" y="242"/>
      <point x="315" y="199" type="curve" smooth="yes"/>
      <point x="315" y="0" type="line"/>
      <point x="451" y="0" type="line"/>
      <point x="451" y="198" type="line" smooth="yes"/>
      <point x="451" y="261"/>
      <point x="462" y="414"/>
      <point x="311" y="414" type="curve" smooth="yes"/>
      <point x="205" y="414"/>
      <point x="181" y="338"/>
      <point x="181" y="338" type="curve" smooth="yes"/>
      <point x="179" y="338" type="line"/>
      <point x="156" y="412" type="line"/>
      <point x="35" y="412" type="line"/>
    </contour>
  </outline>
</glyph>
<glyph name="o" format="2">
  <advance width="487"/>
  <unicode hex="006F"/>
  <guideline x="220" y="93" angle="0"/>
  <guideline x="235" y="319" angle="0"/>
  <guideline x="239" y="43" angle="90"/>
  <outline>
    <contour>
      <point x="239" y="-10" type="curve"/>
      <point x="388" y="-10"/>
      <point x="457" y="82"/>
      <point x="457" y="202" type="curve"/>
      <point x="457" y="330"/>
      <point x="382" y="415"/>
      <point x="239" y="415" type="curve"/>
      <point x="92" y="414"/>
      <point x="18" y="325"/>
      <point x="20" y="202" type="curve"/>
      <point x="20" y="79"/>
      <point x="92" y="-10"/>
    </contour>
    <contour>
      <point x="239" y="106" type="curve"/>
      <point x="164" y="106"/>
      <point x="154" y="159"/>
      <point x="154" y="207" type="curve"/>
      <point x="154" y="256"/>
      <point x="164" y="309"/>
      <point x="239" y="309" type="curve"/>
      <point x="313" y="309"/>
      <point x="323" y="256"/>
      <point x="323" y="207" type="curve"/>
      <point x="323" y="159"/>
      <point x="313" y="106"/>
    </contour>
  </outline>
</glyph>
<glyph name="p" format="2">
  <advance width="510"/>
  <unicode hex="0070"/>
  <guideline x="377" y="199" angle="0"/>
  <guideline x="49" y="-81" angle="90"/>
  <guideline x="171" y="-81" angle="90"/>
  <outline>
    <contour>
      <point x="318" y="-10" type="curve" smooth="yes"/>
      <point x="441" y="-10"/>
      <point x="483" y="66"/>
      <point x="483" y="198" type="curve" smooth="yes"/>
      <point x="483" y="332"/>
      <point x="443" y="414"/>
      <point x="318" y="414" type="curve" smooth="yes"/>
      <point x="217" y="414"/>
      <point x="195" y="338"/>
      <point x="195" y="338" type="curve" smooth="yes"/>
      <point x="193" y="338" type="line"/>
      <point x="171" y="414" type="line"/>
      <point x="49" y="414" type="line"/>
      <point x="49" y="-199" type="line"/>
      <point x="193" y="-199" type="line"/>
      <point x="193" y="56" type="line"/>
      <point x="195" y="56" type="line"/>
      <point x="195" y="56"/>
      <point x="223" y="-10"/>
    </contour>
    <contour>
      <point x="271" y="105" type="curve" smooth="yes"/>
      <point x="200" y="105"/>
      <point x="193" y="151"/>
      <point x="193" y="199" type="curve" smooth="yes"/>
      <point x="193" y="247"/>
      <point x="200" y="292"/>
      <point x="271" y="292" type="curve" smooth="yes"/>
      <point x="342" y="292"/>
      <point x="349" y="247"/>
      <point x="349" y="199" type="curve" smooth="yes"/>
      <point x="349" y="151"/>
      <point x="342" y="105"/>
    </contour>
  </outline>
</glyph>
<glyph name="q" format="2">
  <advance width="510"/>
  <unicode hex="0071"/>
  <guideline x="133" y="198" angle="0"/>
  <outline>
    <contour>
      <point x="192" y="-10" type="curve" smooth="yes"/>
      <point x="287" y="-10"/>
      <point x="315" y="56"/>
      <point x="315" y="56" type="curve"/>
      <point x="317" y="56" type="line"/>
      <point x="317" y="-199" type="line"/>
      <point x="461" y="-199" type="line"/>
      <point x="461" y="414" type="line"/>
      <point x="339" y="414" type="line"/>
      <point x="317" y="338" type="line"/>
      <point x="315" y="338" type="line" smooth="yes"/>
      <point x="315" y="338"/>
      <point x="293" y="414"/>
      <point x="192" y="414" type="curve" smooth="yes"/>
      <point x="67" y="414"/>
      <point x="27" y="332"/>
      <point x="27" y="198" type="curve" smooth="yes"/>
      <point x="27" y="66"/>
      <point x="69" y="-10"/>
    </contour>
    <contour>
      <point x="239" y="105" type="curve" smooth="yes"/>
      <point x="168" y="105"/>
      <point x="161" y="151"/>
      <point x="161" y="199" type="curve" smooth="yes"/>
      <point x="161" y="247"/>
      <point x="168" y="292"/>
      <point x="239" y="292" type="curve" smooth="yes"/>
      <point x="310" y="292"/>
      <point x="317" y="247"/>
      <point x="317" y="199" type="curve" smooth="yes"/>
      <point x="317" y="151"/>
      <point x="310" y="105"/>
    </contour>
  </outline>
</glyph>
<glyph name="r" format="2">
  <advance width="374"/>
  <unicode hex="0072"/>
  <guideline x="332" y="333" angle="90"/>
  <outline>
    <contour>
      <point x="35" y="0" type="line"/>
      <point x="175" y="0" type="line"/>
      <point x="175" y="203" type="line"/>
      <point x="176" y="293" type="line"/>
      <point x="167" y="414" type="line"/>
      <point x="35" y="414" type="line"/>
    </contour>
    <contour>
      <point x="175" y="165" type="line"/>
      <point x="175" y="250"/>
      <point x="231" y="259"/>
      <point x="331" y="259" type="curve" smooth="yes"/>
      <point x="341" y="259" type="line"/>
      <point x="341" y="414" type="line"/>
      <point x="332" y="414" type="line" smooth="yes"/>
      <point x="200" y="414"/>
      <point x="170" y="307"/>
      <point x="172" y="258" type="curve" smooth="yes"/>
    </contour>
  </outline>
</glyph>
<glyph name="s" format="2">
  <advance width="427"/>
  <unicode hex="0073"/>
  <guideline x="339" y="429" angle="0"/>
  <guideline x="339" y="144" angle="0"/>
  <guideline x="361" y="317" angle="0"/>
  <guideline x="339" y="-10" angle="0"/>
  <outline>
    <contour>
      <point x="221" y="-10" type="curve" smooth="yes"/>
      <point x="333" y="-10"/>
      <point x="400" y="32"/>
      <point x="400" y="110" type="curve" smooth="yes"/>
      <point x="400" y="258"/>
      <point x="157" y="225"/>
      <point x="157" y="296" type="curve" smooth="yes"/>
      <point x="157" y="309"/>
      <point x="165" y="325"/>
      <point x="204" y="325" type="curve" smooth="yes"/>
      <point x="240" y="325"/>
      <point x="276" y="312"/>
      <point x="276" y="266" type="curve"/>
      <point x="402" y="266" type="line"/>
      <point x="399" y="372"/>
      <point x="317" y="429"/>
      <point x="197" y="429" type="curve" smooth="yes"/>
      <point x="101" y="429"/>
      <point x="30" y="392"/>
      <point x="30" y="307" type="curve" smooth="yes"/>
      <point x="30" y="152"/>
      <point x="267" y="179"/>
      <point x="267" y="120" type="curve" smooth="yes"/>
      <point x="267" y="112"/>
      <point x="262" y="90"/>
      <point x="217" y="90" type="curve" smooth="yes"/>
      <point x="146" y="90"/>
      <point x="151" y="145"/>
      <point x="151" y="148" type="curve"/>
      <point x="23" y="148" type="line"/>
      <point x="23" y="-8"/>
      <point x="196" y="-10"/>
    </contour>
  </outline>
</glyph>
<glyph name="t" format="2">
  <advance width="334"/>
  <unicode hex="0074"/>
  <guideline x="71" y="308" angle="90"/>
  <guideline x="299" y="27" angle="90"/>
  <guideline x="149" y="0" angle="0"/>
  <guideline x="73" y="-26" angle="90"/>
  <guideline x="107" y="130" angle="0"/>
  <guideline x="203" y="49" angle="90"/>
  <outline>
    <contour>
      <point x="203" y="0" type="curve"/>
      <point x="299" y="0" type="line"/>
      <point x="299" y="107" type="line"/>
      <point x="203" y="107" type="line"/>
      <point x="203" y="332" type="line"/>
      <point x="73" y="332" type="line"/>
      <point x="73" y="130" type="line" smooth="yes"/>
      <point x="73" y="31"/>
      <point x="123" y="0"/>
    </contour>
    <contour>
      <point x="15" y="319" type="line"/>
      <point x="296" y="319" type="line"/>
      <point x="296" y="414" type="line"/>
      <point x="203" y="414" type="line"/>
      <point x="203" y="519" type="line"/>
      <point x="93" y="519" type="line"/>
      <point x="93" y="426"/>
      <point x="62" y="414"/>
      <point x="15" y="414" type="curve"/>
    </contour>
  </outline>
</glyph>
<glyph name="u" format="2">
  <advance width="476"/>
  <unicode hex="0075"/>
  <guideline x="410" y="59" angle="0"/>
  <guideline x="341" y="-10" angle="0"/>
  <outline>
    <contour>
      <point x="170" y="-10" type="curve" smooth="yes"/>
      <point x="276" y="-10"/>
      <point x="300" y="66"/>
      <point x="300" y="66" type="curve" smooth="yes"/>
      <point x="302" y="66" type="line"/>
      <point x="325" y="0" type="line"/>
      <point x="446" y="0" type="line"/>
      <point x="446" y="414" type="line"/>
      <point x="302" y="414" type="line"/>
      <point x="302" y="205" type="line" smooth="yes"/>
      <point x="302" y="162"/>
      <point x="301" y="112"/>
      <point x="235" y="112" type="curve" smooth="yes"/>
      <point x="168" y="112"/>
      <point x="166" y="162"/>
      <point x="166" y="205" type="curve" smooth="yes"/>
      <point x="166" y="414" type="line"/>
      <point x="30" y="414" type="line"/>
      <point x="30" y="206" type="line" smooth="yes"/>
      <point x="30" y="143"/>
      <point x="19" y="-10"/>
    </contour>
  </outline>
</glyph>
<glyph name="v" format="2">
  <advance width="481"/>
  <unicode hex="0076"/>
  <guideline x="110" y="395" angle="0"/>
  <guideline x="314" y="116" angle="0"/>
  <outline>
    <contour>
      <point x="314" y="414" type="line"/>
      <point x="228" y="116" type="line"/>
      <point x="226" y="116" type="line"/>
      <point x="134" y="414" type="line"/>
      <point x="0" y="414" type="line"/>
      <point x="0" y="394" type="line"/>
      <point x="129" y="0" type="line"/>
      <point x="322" y="0" type="line"/>
      <point x="450" y="395" type="line"/>
      <point x="450" y="414" type="line"/>
    </contour>
  </outline>
</glyph>
<glyph name="w" format="2">
  <advance width="669"/>
  <unicode hex="0077"/>
  <guideline x="115" y="395" angle="0"/>
  <guideline x="314" y="116" angle="0"/>
  <guideline x="110" y="395" angle="0"/>
  <outline>
    <contour>
      <point x="91" y="0" type="line"/>
      <point x="288" y="0" type="line"/>
      <point x="323" y="175" type="line"/>
      <point x="325" y="175" type="line"/>
      <point x="363" y="0" type="line"/>
      <point x="556" y="0" type="line"/>
      <point x="642" y="395" type="line"/>
      <point x="642" y="416" type="line"/>
      <point x="505" y="416" type="line"/>
      <point x="460" y="116" type="line"/>
      <point x="458" y="116" type="line"/>
      <point x="383" y="416" type="line"/>
      <point x="264" y="416" type="line"/>
      <point x="193" y="116" type="line"/>
      <point x="191" y="116" type="line"/>
      <point x="147" y="416" type="line"/>
      <point x="9" y="416" type="line"/>
      <point x="9" y="395" type="line"/>
    </contour>
  </outline>
</glyph>
<glyph name="x" format="2">
  <advance width="474"/>
  <unicode hex="0078"/>
  <guideline x="-4" y="215" angle="90"/>
  <guideline x="241" y="215" angle="0"/>
  <outline>
    <contour>
      <point x="-10" y="0" type="line"/>
      <point x="141" y="0" type="line"/>
      <point x="229" y="134" type="line"/>
      <point x="318" y="0" type="line"/>
      <point x="468" y="0" type="line"/>
      <point x="318" y="214" type="line"/>
      <point x="459" y="414" type="line"/>
      <point x="307" y="414" type="line"/>
      <point x="229" y="291" type="line"/>
      <point x="150" y="414" type="line"/>
      <point x="-1" y="414" type="line"/>
      <point x="141" y="214" type="line"/>
    </contour>
  </outline>
</glyph>
<glyph name="y" format="2">
  <advance width="474"/>
  <unicode hex="0079"/>
  <guideline x="108" y="-93" angle="0"/>
  <outline>
    <contour>
      <point x="0" y="-199" type="line"/>
      <point x="93" y="-199" type="line"/>
      <point x="188" y="-199"/>
      <point x="222" y="-183"/>
      <point x="277" y="-48" type="curve"/>
      <point x="464" y="414" type="line"/>
      <point x="321" y="414" type="line"/>
      <point x="228" y="132" type="line"/>
      <point x="143" y="414" type="line"/>
      <point x="0" y="414" type="line"/>
      <point x="161" y="-9" type="line"/>
      <point x="149" y="-37" type="line" smooth="yes"/>
      <point x="119" y="-95"/>
      <point x="100" y="-93"/>
      <point x="70" y="-93" type="curve"/>
      <point x="0" y="-93" type="line"/>
    </contour>
  </outline>
</glyph>
<glyph name="z" format="2">
  <advance width="459"/>
  <unicode hex="007A"/>
  <outline>
    <contour>
      <point x="35" y="0" type="line"/>
      <point x="414" y="0" type="line"/>
      <point x="414" y="102" type="line"/>
      <point x="202" y="102" type="line"/>
      <point x="414" y="319" type="line"/>
      <point x="414" y="417" type="line"/>
      <point x="49" y="417" type="line"/>
      <point x="49" y="316" type="line"/>
      <point x="255" y="316" type="line"/>
      <point x="35" y="100" type="line"/>
    </contour>
  </outline>
</glyph>
<glyph name="braceleft" format="2">
  <advance width="392"/>
  <unicode hex="007B"/>
  <guideline x="130" y="-306" angle="90"/>
  <outline>
    <contour>
      <point x="362" y="-196" type="curve"/>
      <point x="362" y="-66" type="line"/>
      <point x="216" y="-98"/>
      <point x="243" y="-25"/>
      <point x="252" y="36" type="curve"/>
      <point x="268" y="132"/>
      <point x="243" y="191"/>
      <point x="135" y="203" type="curve"/>
      <point x="243" y="214"/>
      <point x="267" y="276"/>
      <point x="252" y="372" type="curve"/>
      <point x="243" y="432"/>
      <point x="216" y="506"/>
      <point x="362" y="473" type="curve"/>
      <point x="362" y="603" type="line"/>
      <point x="130" y="641"/>
      <point x="77" y="567"/>
      <point x="113" y="370" type="curve"/>
      <point x="130" y="271"/>
      <point x="60" y="271"/>
      <point x="30" y="271" type="curve"/>
      <point x="30" y="137" type="line"/>
      <point x="60" y="137"/>
      <point x="130" y="137"/>
      <point x="113" y="38" type="curve"/>
      <point x="76" y="-159"/>
      <point x="130" y="-247"/>
    </contour>
  </outline>
</glyph>
<glyph name="braceright" format="2">
  <advance width="402"/>
  <unicode hex="007D"/>
  <outline>
    <contour>
      <point x="40" y="-196" type="line"/>
      <point x="304" y="-213"/>
      <point x="326" y="-159"/>
      <point x="289" y="38" type="curve"/>
      <point x="272" y="137"/>
      <point x="342" y="137"/>
      <point x="372" y="137" type="curve"/>
      <point x="372" y="271" type="line"/>
      <point x="342" y="271"/>
      <point x="272" y="271"/>
      <point x="289" y="370" type="curve"/>
      <point x="325" y="567"/>
      <point x="303" y="620"/>
      <point x="40" y="603" type="curve"/>
      <point x="40" y="473" type="line"/>
      <point x="186" y="506"/>
      <point x="159" y="432"/>
      <point x="150" y="372" type="curve"/>
      <point x="135" y="276"/>
      <point x="159" y="214"/>
      <point x="267" y="203" type="curve"/>
      <point x="159" y="191"/>
      <point x="134" y="132"/>
      <point x="150" y="36" type="curve"/>
      <point x="159" y="-25"/>
      <point x="186" y="-98"/>
      <point x="40" y="-66" type="curve"/>
    </contour>
  </outline>
</glyph>
<glyph name="asciitilde" format="2">
  <advance width="389"/>
  <unicode hex="007E"/>
  <guideline x="592" y="333" angle="0"/>
  <outline>
    <contour>
      <point x="180" y="258"/>
      <point x="178" y="200"/>
      <point x="254" y="200" type="curve" smooth="yes"/>
      <point x="344" y="200"/>
      <point x="344" y="283"/>
      <point x="344" y="333" type="curve"/>
      <point x="266" y="333" type="line"/>
      <point x="266" y="299"/>
      <point x="266" y="279"/>
      <point x="246" y="279" type="curve" smooth="yes"/>
      <point x="213" y="279"/>
      <point x="209" y="337"/>
      <point x="135" y="337" type="curve" smooth="yes"/>
      <point x="37" y="337"/>
      <point x="45" y="236"/>
      <point x="45" y="205" type="curve"/>
      <point x="123" y="205" type="line"/>
      <point x="123" y="239"/>
      <point x="123" y="258"/>
      <point x="144" y="258" type="curve" smooth="yes"/>
    </contour>
  </outline>
</glyph>
<glyph name="exclamdown" format="2">
  <advance width="228"/>
  <unicode hex="00A1"/>
  <outline>
    <contour>
      <point x="110" y="373" type="curve" smooth="yes"/>
      <point x="50" y="373"/>
      <point x="35" y="340"/>
      <point x="35" y="299" type="curve" smooth="yes"/>
      <point x="35" y="260"/>
      <point x="51" y="228"/>
      <point x="110" y="228" type="curve" smooth="yes"/>
      <point x="167" y="228"/>
      <point x="183" y="260"/>
      <point x="183" y="299" type="curve" smooth="yes"/>
      <point x="183" y="341"/>
      <point x="167" y="373"/>
    </contour>
    <contour>
      <point x="58" y="167" type="curve"/>
      <point x="29" y="-85"/>
      <point x="-7" y="-199"/>
      <point x="108" y="-199" type="curve" smooth="yes"/>
      <point x="225" y="-199"/>
      <point x="188" y="-81"/>
      <point x="159" y="167" type="curve"/>
      <point x="159" y="167"/>
      <point x="144" y="161"/>
      <point x="109" y="161" type="curve"/>
      <point x="82" y="161"/>
      <point x="58" y="167"/>
    </contour>
  </outline>
</glyph>
<glyph name="cent" format="2">
  <advance width="479"/>
  <unicode hex="00A2"/>
  <outline>
    <contour>
      <point x="238" y="-10" type="curve"/>
      <point x="378" y="-10"/>
      <point x="437" y="75"/>
      <point x="449" y="163" type="curve"/>
      <point x="322" y="186" type="line"/>
      <point x="312" y="134"/>
      <point x="290" y="109"/>
      <point x="241" y="109" type="curve"/>
      <point x="178" y="109"/>
      <point x="157" y="149"/>
      <point x="157" y="212" type="curve"/>
      <point x="157" y="263"/>
      <point x="179" y="298"/>
      <point x="239" y="298" type="curve"/>
      <point x="298" y="298"/>
      <point x="311" y="277"/>
      <point x="322" y="226" type="curve"/>
      <point x="449" y="250" type="line"/>
      <point x="438" y="332"/>
      <point x="379" y="416"/>
      <point x="239" y="416" type="curve"/>
      <point x="118" y="416"/>
      <point x="24" y="337"/>
      <point x="21" y="200" type="curve"/>
      <point x="21" y="59"/>
      <point x="121" y="-10"/>
    </contour>
    <contour>
      <point x="169" y="-108" type="line"/>
      <point x="309" y="-108" type="line"/>
      <point x="299" y="16" type="line"/>
      <point x="179" y="16" type="line"/>
    </contour>
    <contour>
      <point x="179" y="389" type="line"/>
      <point x="299" y="389" type="line"/>
      <point x="309" y="513" type="line"/>
      <point x="169" y="513" type="line"/>
    </contour>
  </outline>
</glyph>
<glyph name="sterling" format="2">
  <advance width="720"/>
  <unicode hex="00A3"/>
  <guideline x="614" y="-10" angle="0"/>
  <guideline x="422" y="573" angle="0"/>
  <guideline x="590" y="195" angle="0"/>
  <guideline x="590" y="174" angle="0"/>
  <guideline x="590" y="371" angle="0"/>
  <guideline x="590" y="350" angle="0"/>
  <outline>
    <contour>
      <point x="139" y="-15" type="line"/>
      <point x="142" y="-13"/>
      <point x="144" y="-12"/>
      <point x="145" y="-11" type="curve"/>
      <point x="277" y="63"/>
      <point x="346" y="-11"/>
      <point x="475" y="-11" type="curve" smooth="yes"/>
      <point x="585" y="-11"/>
      <point x="633" y="63"/>
      <point x="603" y="195" type="curve"/>
      <point x="467" y="174" type="line"/>
      <point x="480" y="143"/>
      <point x="478" y="111"/>
      <point x="455" y="96" type="curve"/>
      <point x="408" y="69"/>
      <point x="328" y="159"/>
      <point x="227" y="105" type="curve"/>
      <point x="270" y="140"/>
      <point x="319" y="182"/>
      <point x="265" y="291" type="curve"/>
      <point x="207" y="401"/>
      <point x="252" y="447"/>
      <point x="305" y="455" type="curve" smooth="yes"/>
      <point x="344" y="461"/>
      <point x="413" y="455"/>
      <point x="434" y="350" type="curve"/>
      <point x="566" y="371" type="line"/>
      <point x="558" y="476"/>
      <point x="505" y="573"/>
      <point x="336" y="573" type="curve"/>
      <point x="139" y="573"/>
      <point x="66" y="422"/>
      <point x="143" y="280" type="curve"/>
      <point x="197" y="178"/>
      <point x="122" y="123"/>
      <point x="76" y="89" type="curve"/>
    </contour>
    <contour>
      <point x="53" y="211" type="line"/>
      <point x="413" y="210" type="line"/>
      <point x="413" y="310" type="line"/>
      <point x="53" y="310" type="line"/>
    </contour>
  </outline>
</glyph>
<glyph name="currency" format="2">
  <advance width="600"/>
  <unicode hex="00A4"/>
  <outline>
    <contour>
      <point x="468" y="9" type="line"/>
      <point x="414" y="86" type="line"/>
      <point x="441" y="117"/>
      <point x="455" y="160"/>
      <point x="455" y="212" type="curve"/>
      <point x="455" y="270"/>
      <point x="437" y="317"/>
      <point x="404" y="347" type="curve"/>
      <point x="451" y="412" type="line"/>
      <point x="416" y="412" type="line"/>
      <point x="382" y="363" type="line"/>
      <point x="359" y="376"/>
      <point x="332" y="382"/>
      <point x="300" y="382" type="curve"/>
      <point x="266" y="382"/>
      <point x="238" y="375"/>
      <point x="216" y="362" type="curve"/>
      <point x="181" y="412" type="line"/>
      <point x="147" y="412" type="line"/>
      <point x="194" y="347" type="line"/>
      <point x="161" y="317"/>
      <point x="144" y="270"/>
      <point x="144" y="212" type="curve"/>
      <point x="144" y="159"/>
      <point x="158" y="116"/>
      <point x="185" y="86" type="curve"/>
      <point x="131" y="9" type="line"/>
      <point x="162" y="9" type="line"/>
      <point x="204" y="69" type="line"/>
      <point x="229" y="51"/>
      <point x="261" y="41"/>
      <point x="300" y="41" type="curve"/>
      <point x="337" y="41"/>
      <point x="369" y="51"/>
      <point x="393" y="68" type="curve"/>
      <point x="434" y="9" type="line"/>
    </contour>
    <contour>
      <point x="300" y="62" type="curve"/>
      <point x="265" y="62"/>
      <point x="238" y="71"/>
      <point x="217" y="86" type="curve"/>
      <point x="182" y="118"/>
      <point x="166" y="168"/>
      <point x="166" y="212" type="curve"/>
      <point x="166" y="263"/>
      <point x="179" y="303"/>
      <point x="207" y="329" type="curve"/>
      <point x="207" y="330"/>
      <point x="227" y="344"/>
      <point x="228" y="345" type="curve"/>
      <point x="247" y="355"/>
      <point x="271" y="361"/>
      <point x="300" y="361" type="curve"/>
      <point x="327" y="361"/>
      <point x="351" y="355"/>
      <point x="370" y="345" type="curve"/>
      <point x="378" y="341"/>
      <point x="386" y="336"/>
      <point x="392" y="330" type="curve"/>
      <point x="420" y="303"/>
      <point x="433" y="263"/>
      <point x="433" y="212" type="curve"/>
      <point x="433" y="168"/>
      <point x="422" y="130"/>
      <point x="401" y="104" type="curve"/>
      <point x="401" y="104"/>
      <point x="369" y="71"/>
      <point x="394" y="97" type="curve"/>
      <point x="390" y="93"/>
      <point x="386" y="89"/>
      <point x="381" y="85" type="curve"/>
      <point x="360" y="71"/>
      <point x="333" y="62"/>
    </contour>
  </outline>
</glyph>
<glyph name="yen" format="2">
  <advance width="578"/>
  <unicode hex="00A5"/>
  <outline>
    <contour>
      <point x="221" y="194" type="line"/>
      <point x="361" y="194" type="line"/>
      <point x="558" y="563" type="line"/>
      <point x="401" y="563" type="line"/>
      <point x="294" y="312" type="line"/>
      <point x="187" y="563" type="line"/>
      <point x="30" y="563" type="line"/>
    </contour>
    <contour>
      <point x="104" y="75" type="line"/>
      <point x="483" y="75" type="line"/>
      <point x="483" y="150" type="line"/>
      <point x="104" y="150" type="line"/>
    </contour>
    <contour>
      <point x="104" y="192" type="line"/>
      <point x="483" y="196" type="line"/>
      <point x="483" y="267" type="line"/>
      <point x="104" y="267" type="line"/>
    </contour>
    <contour>
      <point x="222" y="0" type="line"/>
      <point x="361" y="0" type="line"/>
      <point x="361" y="207" type="line"/>
      <point x="222" y="207" type="line"/>
    </contour>
  </outline>
</glyph>
<glyph name="brokenbar" format="2">
  <advance width="260"/>
  <unicode hex="00A6"/>
  <guideline x="274" y="-151" angle="0"/>
  <outline>
    <contour>
      <point x="60" y="307" type="line"/>
      <point x="200" y="307" type="line"/>
      <point x="200" y="601" type="line"/>
      <point x="60" y="601" type="line"/>
    </contour>
    <contour>
      <point x="60" y="-151" type="line"/>
      <point x="200" y="-151" type="line"/>
      <point x="200" y="143" type="line"/>
      <point x="60" y="143" type="line"/>
    </contour>
  </outline>
</glyph>
<glyph name="copyright" format="2">
  <advance width="600"/>
  <unicode hex="00A9"/>
  <guideline x="328" y="282" angle="0"/>
  <guideline x="328" y="77" angle="90"/>
  <guideline x="618" y="195" angle="90"/>
  <guideline x="544" y="195" angle="90"/>
  <guideline x="109" y="195" angle="90"/>
  <guideline x="35" y="195" angle="90"/>
  <outline>
    <contour>
      <point x="328" y="-10" type="curve"/>
      <point x="486" y="-10"/>
      <point x="618" y="120"/>
      <point x="618" y="283" type="curve"/>
      <point x="618" y="441"/>
      <point x="486" y="573"/>
      <point x="328" y="573" type="curve"/>
      <point x="165" y="573"/>
      <point x="35" y="441"/>
      <point x="35" y="283" type="curve"/>
      <point x="35" y="120"/>
      <point x="165" y="-10"/>
    </contour>
    <contour>
      <point x="328" y="63" type="curve"/>
      <point x="191" y="63"/>
      <point x="109" y="145"/>
      <point x="109" y="281" type="curve"/>
      <point x="109" y="415"/>
      <point x="191" y="498"/>
      <point x="328" y="498" type="curve"/>
      <point x="461" y="498"/>
      <point x="544" y="415"/>
      <point x="544" y="281" type="curve"/>
      <point x="544" y="145"/>
      <point x="461" y="63"/>
    </contour>
    <contour>
      <point x="325" y="116" type="curve"/>
      <point x="425" y="116"/>
      <point x="474" y="179"/>
      <point x="486" y="245" type="curve"/>
      <point x="405" y="271" type="line"/>
      <point x="396" y="216"/>
      <point x="371" y="194"/>
      <point x="328" y="194" type="curve"/>
      <point x="269" y="194"/>
      <point x="245" y="228"/>
      <point x="245" y="286" type="curve"/>
      <point x="245" y="338"/>
      <point x="269" y="372"/>
      <point x="328" y="372" type="curve"/>
      <point x="379" y="372"/>
      <point x="396" y="350"/>
      <point x="405" y="308" type="curve"/>
      <point x="486" y="323" type="line"/>
      <point x="474" y="386"/>
      <point x="427" y="447"/>
      <point x="328" y="447" type="curve"/>
      <point x="235" y="447"/>
      <point x="164" y="384"/>
      <point x="162" y="279" type="curve"/>
      <point x="162" y="172"/>
      <point x="235" y="116"/>
    </contour>
  </outline>
</glyph>
<glyph name="ordfeminine" format="2">
  <advance width="350"/>
  <unicode hex="00AA"/>
  <outline>
    <contour>
      <point x="132" y="406" type="curve" smooth="yes"/>
      <point x="203" y="406"/>
      <point x="222" y="450"/>
      <point x="221" y="450" type="curve"/>
      <point x="222" y="450" type="line"/>
      <point x="237" y="413" type="line"/>
      <point x="321" y="413" type="line"/>
      <point x="321" y="695" type="line"/>
      <point x="222" y="695" type="line"/>
      <point x="221" y="643" type="line" smooth="yes"/>
      <point x="221" y="642"/>
      <point x="206" y="695"/>
      <point x="132" y="695" type="curve" smooth="yes"/>
      <point x="55" y="695"/>
      <point x="30" y="637"/>
      <point x="30" y="549" type="curve" smooth="yes"/>
      <point x="30" y="460"/>
      <point x="55" y="406"/>
    </contour>
    <contour>
      <point x="172" y="485" type="curve" smooth="yes"/>
      <point x="126" y="485"/>
      <point x="122" y="516"/>
      <point x="122" y="548" type="curve" smooth="yes"/>
      <point x="122" y="580"/>
      <point x="126" y="612"/>
      <point x="172" y="612" type="curve" smooth="yes"/>
      <point x="218" y="612"/>
      <point x="222" y="581"/>
      <point x="222" y="548" type="curve" smooth="yes"/>
      <point x="222" y="516"/>
      <point x="218" y="485"/>
    </contour>
  </outline>
</glyph>
<glyph name="guillemetleft" format="2">
  <advance width="600"/>
  <unicode hex="00AB"/>
  <outline>
    <contour>
      <point x="338" y="544" type="line"/>
      <point x="28" y="295" type="line"/>
      <point x="338" y="43" type="line"/>
      <point x="338" y="128" type="line"/>
      <point x="137" y="295" type="line"/>
      <point x="338" y="452" type="line"/>
    </contour>
    <contour>
      <point x="528" y="544" type="line"/>
      <point x="218" y="295" type="line"/>
      <point x="528" y="43" type="line"/>
      <point x="528" y="138" type="line"/>
      <point x="327" y="295" type="line"/>
      <point x="528" y="442" type="line"/>
    </contour>
  </outline>
</glyph>
<glyph name="logicalnot" format="2">
  <advance width="317"/>
  <unicode hex="00AC"/>
  <outline>
    <contour>
      <point x="40" y="181" type="line"/>
      <point x="262" y="181" type="line"/>
      <point x="262" y="267" type="line"/>
      <point x="40" y="267" type="line"/>
    </contour>
    <contour>
      <point x="175" y="103" type="line"/>
      <point x="262" y="103" type="line"/>
      <point x="262" y="267" type="line"/>
      <point x="175" y="267" type="line"/>
    </contour>
  </outline>
</glyph>
<glyph name="registered" format="2">
  <advance width="408"/>
  <unicode hex="00AE"/>
  <guideline x="203" y="400" angle="0"/>
  <guideline x="74" y="195" angle="90"/>
  <guideline x="203" y="195" angle="90"/>
  <guideline x="30" y="195" angle="90"/>
  <outline>
    <contour>
      <point x="203" y="229" type="curve"/>
      <point x="297" y="229"/>
      <point x="373" y="306"/>
      <point x="373" y="400" type="curve"/>
      <point x="373" y="496"/>
      <point x="297" y="572"/>
      <point x="203" y="572" type="curve"/>
      <point x="107" y="572"/>
      <point x="30" y="496"/>
      <point x="30" y="400" type="curve"/>
      <point x="30" y="306"/>
      <point x="107" y="229"/>
    </contour>
    <contour>
      <point x="203" y="272" type="curve"/>
      <point x="121" y="272"/>
      <point x="74" y="330"/>
      <point x="74" y="400" type="curve"/>
      <point x="74" y="471"/>
      <point x="121" y="529"/>
      <point x="203" y="529" type="curve"/>
      <point x="283" y="529"/>
      <point x="330" y="471"/>
      <point x="330" y="400" type="curve"/>
      <point x="330" y="330"/>
      <point x="283" y="272"/>
    </contour>
    <contour>
      <point x="138" y="322" type="line"/>
      <point x="178" y="322" type="line"/>
      <point x="178" y="386" type="line"/>
      <point x="222" y="391"/>
      <point x="223" y="377"/>
      <point x="223" y="360" type="curve"/>
      <point x="223" y="316"/>
      <point x="259" y="312"/>
      <point x="280" y="330" type="curve"/>
      <point x="280" y="352" type="line"/>
      <point x="247" y="338"/>
      <point x="269" y="388"/>
      <point x="227" y="388" type="curve"/>
      <point x="259" y="388"/>
      <point x="273" y="405"/>
      <point x="273" y="435" type="curve"/>
      <point x="273" y="470"/>
      <point x="247" y="483"/>
      <point x="203" y="483" type="curve"/>
      <point x="138" y="483" type="line"/>
    </contour>
    <contour>
      <point x="178" y="414" type="line"/>
      <point x="178" y="451" type="line"/>
      <point x="194" y="451" type="line"/>
      <point x="221" y="451"/>
      <point x="235" y="452"/>
      <point x="235" y="431" type="curve"/>
      <point x="235" y="413"/>
      <point x="224" y="414"/>
      <point x="198" y="414" type="curve"/>
    </contour>
  </outline>
</glyph>
<glyph name="macron" format="2">
  <advance width="382"/>
  <unicode hex="00AF"/>
  <outline>
    <contour>
      <point x="40" y="726" type="line"/>
      <point x="342" y="726" type="line"/>
      <point x="342" y="820" type="line"/>
      <point x="40" y="820" type="line"/>
    </contour>
  </outline>
</glyph>
<glyph name="degree" format="2">
  <advance width="295"/>
  <unicode hex="00B0"/>
  <outline>
    <contour>
      <point x="147" y="338" type="curve"/>
      <point x="228" y="338"/>
      <point x="267" y="387"/>
      <point x="267" y="454" type="curve"/>
      <point x="267" y="526"/>
      <point x="228" y="573"/>
      <point x="147" y="573" type="curve"/>
      <point x="64" y="573"/>
      <point x="30" y="526"/>
      <point x="30" y="454" type="curve"/>
      <point x="30" y="384"/>
      <point x="65" y="338"/>
    </contour>
    <contour>
      <point x="145" y="425" type="curve"/>
      <point x="122" y="425"/>
      <point x="112" y="439"/>
      <point x="112" y="457" type="curve"/>
      <point x="112" y="475"/>
      <point x="122" y="491"/>
      <point x="145" y="491" type="curve"/>
      <point x="170" y="491"/>
      <point x="179" y="476"/>
      <point x="179" y="457" type="curve"/>
      <point x="179" y="439"/>
      <point x="170" y="425"/>
    </contour>
  </outline>
</glyph>
<glyph name="plusminus" format="2">
  <advance width="317"/>
  <unicode hex="00B1"/>
  <outline>
    <contour>
      <point x="40" y="36" type="line"/>
      <point x="262" y="36" type="line"/>
      <point x="262" y="112" type="line"/>
      <point x="40" y="112" type="line"/>
    </contour>
    <contour>
      <point x="116" y="155" type="line"/>
      <point x="192" y="155" type="line"/>
      <point x="192" y="377" type="line"/>
      <point x="116" y="377" type="line"/>
    </contour>
    <contour>
      <point x="40" y="230" type="line"/>
      <point x="262" y="230" type="line"/>
      <point x="262" y="306" type="line"/>
      <point x="40" y="306" type="line"/>
    </contour>
  </outline>
</glyph>
<glyph name="twosuperior" format="2">
  <advance width="251"/>
  <unicode hex="00B2"/>
  <outline>
    <contour>
      <point x="15" y="414" type="line"/>
      <point x="236" y="414" type="line"/>
      <point x="236" y="472" type="line"/>
      <point x="81" y="472" type="line"/>
      <point x="99" y="475"/>
      <point x="188" y="497"/>
      <point x="222" y="565" type="curve"/>
      <point x="255" y="633"/>
      <point x="201" y="691"/>
      <point x="131" y="691" type="curve" smooth="yes"/>
      <point x="61" y="691"/>
      <point x="7" y="647"/>
      <point x="19" y="570" type="curve"/>
      <point x="82" y="561" type="line"/>
      <point x="72" y="612"/>
      <point x="93" y="634"/>
      <point x="124" y="634" type="curve" smooth="yes"/>
      <point x="153" y="634"/>
      <point x="178" y="610"/>
      <point x="158" y="569" type="curve"/>
      <point x="128" y="508"/>
      <point x="16" y="471"/>
      <point x="15" y="470" type="curve"/>
    </contour>
  </outline>
</glyph>
<glyph name="micro" format="2">
  <advance width="600"/>
  <unicode hex="00B5"/>
  <outline>
    <contour>
      <point x="92" y="-158" type="line"/>
      <point x="229" y="-158" type="line"/>
      <point x="229" y="20" type="line"/>
      <point x="232" y="20" type="line"/>
      <point x="245" y="2"/>
      <point x="263" y="-11"/>
      <point x="301" y="-11" type="curve"/>
      <point x="347" y="-11"/>
      <point x="354" y="9"/>
      <point x="371" y="31" type="curve"/>
      <point x="374" y="31" type="line"/>
      <point x="387" y="0" type="line"/>
      <point x="508" y="0" type="line"/>
      <point x="508" y="413" type="line"/>
      <point x="365" y="413" type="line"/>
      <point x="365" y="204" type="line"/>
      <point x="365" y="161"/>
      <point x="363" y="112"/>
      <point x="298" y="112" type="curve"/>
      <point x="231" y="112"/>
      <point x="229" y="161"/>
      <point x="229" y="204" type="curve"/>
      <point x="229" y="413" type="line"/>
      <point x="93" y="413" type="line"/>
    </contour>
  </outline>
</glyph>
<glyph name="paragraph" format="2">
  <advance width="547"/>
  <unicode hex="00B6"/>
  <outline>
    <contour>
      <point x="248" y="-88" type="line"/>
      <point x="336" y="-88" type="line"/>
      <point x="336" y="701" type="line"/>
      <point x="283" y="701" type="line"/>
      <point x="220" y="701" type="line" smooth="yes"/>
      <point x="108" y="700"/>
      <point x="16" y="649"/>
      <point x="16" y="508" type="curve" smooth="yes"/>
      <point x="16" y="362"/>
      <point x="109" y="316"/>
      <point x="221" y="315" type="curve" smooth="yes"/>
      <point x="248" y="315" type="line"/>
    </contour>
    <contour>
      <point x="390" y="-89" type="line"/>
      <point x="480" y="-89" type="line"/>
      <point x="480" y="700" type="line"/>
      <point x="390" y="700" type="line"/>
    </contour>
    <contour>
      <point x="267" y="610" type="line"/>
      <point x="531" y="610" type="line"/>
      <point x="531" y="700" type="line"/>
      <point x="263" y="700" type="line"/>
    </contour>
  </outline>
</glyph>
<glyph name="ordmasculine" format="2">
  <advance width="332"/>
  <unicode hex="00BA"/>
  <outline>
    <contour>
      <point x="166" y="415" type="curve"/>
      <point x="270" y="415"/>
      <point x="317" y="478"/>
      <point x="317" y="563" type="curve"/>
      <point x="317" y="650"/>
      <point x="265" y="708"/>
      <point x="166" y="708" type="curve"/>
      <point x="64" y="707"/>
      <point x="14" y="647"/>
      <point x="15" y="563" type="curve"/>
      <point x="15" y="476"/>
      <point x="64" y="415"/>
    </contour>
    <contour>
      <point x="166" y="495" type="curve"/>
      <point x="114" y="495"/>
      <point x="107" y="532"/>
      <point x="107" y="565" type="curve"/>
      <point x="107" y="599"/>
      <point x="114" y="637"/>
      <point x="166" y="637" type="curve"/>
      <point x="217" y="637"/>
      <point x="225" y="599"/>
      <point x="225" y="565" type="curve"/>
      <point x="225" y="532"/>
      <point x="217" y="495"/>
    </contour>
  </outline>
</glyph>
<glyph name="guillemetright" format="2">
  <advance width="530"/>
  <unicode hex="00BB"/>
  <outline>
    <contour>
      <point x="205" y="544" type="line"/>
      <point x="205" y="452" type="line"/>
      <point x="406" y="295" type="line"/>
      <point x="205" y="128" type="line"/>
      <point x="205" y="43" type="line"/>
      <point x="515" y="295" type="line"/>
    </contour>
    <contour>
      <point x="15" y="544" type="line"/>
      <point x="15" y="442" type="line"/>
      <point x="216" y="295" type="line"/>
      <point x="15" y="138" type="line"/>
      <point x="15" y="43" type="line"/>
      <point x="325" y="295" type="line"/>
    </contour>
  </outline>
</glyph>
<glyph name="questiondown" format="2">
  <advance width="453"/>
  <unicode hex="00BF"/>
  <outline>
    <contour>
      <point x="193" y="180" type="line"/>
      <point x="193" y="111"/>
      <point x="42" y="67"/>
      <point x="42" y="-50" type="curve" smooth="yes"/>
      <point x="42" y="-138"/>
      <point x="127" y="-199"/>
      <point x="242" y="-199" type="curve" smooth="yes"/>
      <point x="405" y="-199"/>
      <point x="445" y="-78"/>
      <point x="422" y="6" type="curve"/>
      <point x="291" y="6" type="line"/>
      <point x="291" y="-6"/>
      <point x="305" y="-79"/>
      <point x="233" y="-79" type="curve" smooth="yes"/>
      <point x="193" y="-79"/>
      <point x="180" y="-57"/>
      <point x="183" y="-30" type="curve" smooth="yes"/>
      <point x="190" y="33"/>
      <point x="320" y="110"/>
      <point x="320" y="180" type="curve"/>
    </contour>
    <contour>
      <point x="258" y="383" type="curve" smooth="yes"/>
      <point x="197" y="383"/>
      <point x="180" y="350"/>
      <point x="180" y="306" type="curve" smooth="yes"/>
      <point x="180" y="263"/>
      <point x="197" y="229"/>
      <point x="258" y="229" type="curve" smooth="yes"/>
      <point x="320" y="229"/>
      <point x="338" y="263"/>
      <point x="338" y="306" type="curve" smooth="yes"/>
      <point x="338" y="347"/>
      <point x="321" y="383"/>
    </contour>
  </outline>
</glyph>
<glyph name="AE" format="2">
  <advance width="877"/>
  <unicode hex="00C6"/>
  <guideline x="88" y="505" angle="0"/>
  <guideline x="66" y="563" angle="0"/>
  <outline>
    <contour>
      <point x="404" y="0" type="line"/>
      <point x="841" y="0" type="line"/>
      <point x="841" y="111" type="line"/>
      <point x="541" y="111" type="line"/>
      <point x="541" y="229" type="line"/>
      <point x="756" y="229" type="line"/>
      <point x="756" y="341" type="line"/>
      <point x="541" y="341" type="line"/>
      <point x="541" y="444" type="line"/>
      <point x="830" y="444" type="line"/>
      <point x="830" y="563" type="line"/>
      <point x="404" y="563" type="line"/>
    </contour>
    <contour>
      <point x="153" y="141" type="line"/>
      <point x="439" y="141" type="line"/>
      <point x="443" y="247" type="line"/>
      <point x="148" y="247" type="line"/>
    </contour>
    <contour>
      <point x="18" y="0" type="line"/>
      <point x="168" y="0" type="line"/>
      <point x="432" y="563" type="line"/>
      <point x="300" y="563" type="line"/>
    </contour>
  </outline>
</glyph>
<glyph name="Eth" format="2">
  <advance width="600"/>
  <unicode hex="00D0"/>
  <outline>
    <contour>
      <point x="60" y="0" type="line"/>
      <point x="152" y="0"/>
      <point x="198" y="0"/>
      <point x="221" y="0" type="curve"/>
      <point x="443" y="0"/>
      <point x="585" y="60"/>
      <point x="585" y="282" type="curve"/>
      <point x="585" y="469"/>
      <point x="443" y="563"/>
      <point x="221" y="563" type="curve"/>
      <point x="200" y="563"/>
      <point x="158" y="563"/>
      <point x="60" y="563" type="curve"/>
    </contour>
    <contour>
      <point x="0" y="241" type="line"/>
      <point x="315" y="241" type="line"/>
      <point x="315" y="331" type="line"/>
      <point x="0" y="331" type="line"/>
    </contour>
    <contour>
      <point x="198" y="114" type="curve"/>
      <point x="198" y="443" type="line"/>
      <point x="264" y="443" type="line"/>
      <point x="372" y="443"/>
      <point x="436" y="389"/>
      <point x="436" y="283" type="curve"/>
      <point x="436" y="144"/>
      <point x="372" y="114"/>
      <point x="264" y="114" type="curve"/>
      <point x="256" y="114"/>
      <point x="237" y="114"/>
    </contour>
  </outline>
</glyph>
<glyph name="multiply" format="2">
  <advance width="326"/>
  <unicode hex="00D7"/>
  <outline>
    <contour>
      <point x="291" y="281" type="line"/>
      <point x="225" y="214" type="line"/>
      <point x="291" y="148" type="line"/>
      <point x="230" y="87" type="line"/>
      <point x="164" y="153" type="line"/>
      <point x="96" y="85" type="line"/>
      <point x="35" y="147" type="line"/>
      <point x="102" y="214" type="line"/>
      <point x="35" y="282" type="line"/>
      <point x="96" y="343" type="line"/>
      <point x="164" y="276" type="line"/>
      <point x="230" y="342" type="line"/>
    </contour>
  </outline>
</glyph>
<glyph name="Oslash" format="2">
  <advance width="600"/>
  <unicode hex="00D8"/>
  <guideline x="311" y="277" angle="90"/>
  <guideline x="396" y="277" angle="0"/>
  <outline>
    <contour>
      <point x="81" y="-27" type="line"/>
      <point x="111" y="-44" type="line"/>
      <point x="541" y="578" type="line"/>
      <point x="511" y="595" type="line"/>
    </contour>
    <component base="O"/>
  </outline>
</glyph>
<glyph name="Thorn" format="2">
  <advance width="500"/>
  <unicode hex="00DE"/>
  <outline>
    <contour>
      <point x="190" y="0" type="line"/>
      <point x="190" y="563" type="line"/>
      <point x="50" y="563" type="line"/>
      <point x="50" y="0" type="line"/>
    </contour>
    <contour>
      <point x="171" y="471" type="line"/>
      <point x="171" y="359" type="line"/>
      <point x="259" y="359" type="line"/>
      <point x="316" y="359"/>
      <point x="361" y="332"/>
      <point x="361" y="275" type="curve"/>
      <point x="361" y="219"/>
      <point x="315" y="190"/>
      <point x="259" y="190" type="curve"/>
      <point x="172" y="190" type="line"/>
      <point x="172" y="92" type="line"/>
      <point x="280" y="92" type="line"/>
      <point x="404" y="92"/>
      <point x="487" y="161"/>
      <point x="487" y="273" type="curve"/>
      <point x="487" y="405"/>
      <point x="408" y="471"/>
      <point x="280" y="471" type="curve"/>
    </contour>
  </outline>
</glyph>
<glyph name="germandbls" format="2">
  <advance width="637"/>
  <unicode hex="00DF"/>
  <outline>
    <contour>
      <point x="429" y="-10" type="curve"/>
      <point x="520" y="-10"/>
      <point x="612" y="47"/>
      <point x="612" y="143" type="curve"/>
      <point x="612" y="293"/>
      <point x="397" y="279"/>
      <point x="397" y="336" type="curve"/>
      <point x="397" y="391"/>
      <point x="527" y="374"/>
      <point x="527" y="478" type="curve"/>
      <point x="527" y="570"/>
      <point x="387" y="563"/>
      <point x="323" y="563" type="curve"/>
      <point x="55" y="563" type="line"/>
      <point x="55" y="0" type="line"/>
      <point x="195" y="0" type="line"/>
      <point x="195" y="451" type="line"/>
      <point x="323" y="451" type="line"/>
      <point x="323" y="451"/>
      <point x="397" y="451"/>
      <point x="397" y="451" type="curve"/>
      <point x="397" y="369"/>
      <point x="288" y="404"/>
      <point x="288" y="334" type="curve"/>
      <point x="288" y="258"/>
      <point x="474" y="256"/>
      <point x="474" y="171" type="curve"/>
      <point x="474" y="145"/>
      <point x="457" y="111"/>
      <point x="410" y="111" type="curve"/>
      <point x="346" y="111"/>
      <point x="348" y="169"/>
      <point x="348" y="169" type="curve"/>
      <point x="229" y="169" type="line"/>
      <point x="229" y="90"/>
      <point x="265" y="-10"/>
    </contour>
  </outline>
</glyph>
<glyph name="adieresis" format="2">
  <advance width="545"/>
  <unicode hex="00E4"/>
  <guideline x="365" y="414" angle="0"/>
  <guideline x="365" y="477" angle="0"/>
  <guideline x="233" y="279" angle="90"/>
  <outline>
    <contour>
      <point x="198" y="-10" type="curve"/>
      <point x="345" y="-10"/>
      <point x="384" y="143"/>
      <point x="384" y="238" type="curve"/>
      <point x="384" y="312"/>
      <point x="323" y="424"/>
      <point x="198" y="424" type="curve"/>
      <point x="76" y="424"/>
      <point x="12" y="328"/>
      <point x="12" y="207" type="curve"/>
      <point x="12" y="89"/>
      <point x="74" y="-10"/>
    </contour>
    <contour>
      <point x="235" y="96" type="curve"/>
      <point x="159" y="96"/>
      <point x="151" y="155"/>
      <point x="151" y="208" type="curve"/>
      <point x="151" y="263"/>
      <point x="159" y="322"/>
      <point x="235" y="322" type="curve"/>
      <point x="313" y="322"/>
      <point x="320" y="263"/>
      <point x="320" y="208" type="curve"/>
      <point x="320" y="155"/>
      <point x="313" y="96"/>
    </contour>
    <contour>
      <point x="428" y="-10" type="curve"/>
      <point x="494" y="-10"/>
      <point x="519" y="23"/>
      <point x="518" y="21" type="curve"/>
      <point x="520" y="96" type="line"/>
      <point x="464" y="70"/>
      <point x="469" y="117"/>
      <point x="469" y="147" type="curve"/>
      <point x="469" y="414" type="line"/>
      <point x="330" y="414" type="line"/>
      <point x="330" y="94" type="line"/>
      <point x="330" y="74"/>
      <point x="323" y="-10"/>
    </contour>
    <component base="dieresiscomb" xOffset="31" yOffset="-204"/>
  </outline>
</glyph>
<glyph name="ae" format="2">
  <advance width="726"/>
  <unicode hex="00E6"/>
  <outline>
    <contour>
      <point x="141" y="0" type="curve" smooth="yes"/>
      <point x="258" y="0"/>
      <point x="290" y="110"/>
      <point x="292" y="135" type="curve"/>
      <point x="315" y="60"/>
      <point x="377" y="0"/>
      <point x="497" y="0" type="curve" smooth="yes"/>
      <point x="615" y="0"/>
      <point x="672" y="67"/>
      <point x="696" y="144" type="curve"/>
      <point x="563" y="171" type="line"/>
      <point x="555" y="140"/>
      <point x="539" y="120"/>
      <point x="496" y="120" type="curve" smooth="yes"/>
      <point x="446" y="120"/>
      <point x="414" y="146"/>
      <point x="414" y="199" type="curve"/>
      <point x="692" y="199" type="line"/>
      <point x="692" y="225" type="line" smooth="yes"/>
      <point x="692" y="340"/>
      <point x="605" y="427"/>
      <point x="498" y="427" type="curve" smooth="yes"/>
      <point x="439" y="427"/>
      <point x="395" y="413"/>
      <point x="362" y="391" type="curve"/>
      <point x="327" y="415"/>
      <point x="280" y="426"/>
      <point x="233" y="426" type="curve" smooth="yes"/>
      <point x="136" y="426"/>
      <point x="42" y="381"/>
      <point x="42" y="251" type="curve"/>
      <point x="172" y="251" type="line"/>
      <point x="164" y="309"/>
      <point x="202" y="325"/>
      <point x="232" y="325" type="curve" smooth="yes"/>
      <point x="260" y="325"/>
      <point x="280" y="310"/>
      <point x="280" y="289" type="curve" smooth="yes"/>
      <point x="280" y="262"/>
      <point x="266" y="254"/>
      <point x="180" y="235" type="curve" smooth="yes"/>
      <point x="96" y="216"/>
      <point x="16" y="193"/>
      <point x="16" y="110" type="curve" smooth="yes"/>
      <point x="16" y="45"/>
      <point x="66" y="0"/>
    </contour>
    <contour>
      <point x="201" y="97" type="curve" smooth="yes"/>
      <point x="186" y="95"/>
      <point x="160" y="100"/>
      <point x="157" y="127" type="curve" smooth="yes"/>
      <point x="154" y="163"/>
      <point x="189" y="189"/>
      <point x="224" y="202" type="curve" smooth="yes"/>
      <point x="240" y="208"/>
      <point x="272" y="217"/>
      <point x="280" y="226" type="curve"/>
      <point x="280" y="164"/>
      <point x="238" y="102"/>
    </contour>
    <contour>
      <point x="414" y="267" type="line" smooth="yes"/>
      <point x="414" y="267"/>
      <point x="419" y="331"/>
      <point x="492" y="331" type="curve" smooth="yes"/>
      <point x="564" y="331"/>
      <point x="552" y="267"/>
      <point x="552" y="267" type="curve" smooth="yes"/>
    </contour>
  </outline>
</glyph>
<glyph name="igrave" format="2">
  <advance width="241"/>
  <unicode hex="00EC"/>
  <guideline x="170" y="370" angle="90"/>
  <guideline x="191" y="370" angle="90"/>
  <guideline x="121" y="370" angle="90"/>
  <guideline x="232" y="470" angle="0"/>
  <guideline x="232" y="417" angle="0"/>
  <guideline x="160" y="370" angle="90"/>
  <guideline x="73" y="370" angle="90"/>
  <outline>
    <contour>
      <point x="51" y="0" type="line"/>
      <point x="191" y="0" type="line"/>
      <point x="191" y="414" type="line"/>
      <point x="190" y="414"/>
      <point x="52" y="414"/>
      <point x="51" y="414" type="curve"/>
    </contour>
    <component base="gravecomb" xOffset="-27" yOffset="-171"/>
  </outline>
</glyph>
<glyph name="iacute" format="2">
  <advance width="238"/>
  <unicode hex="00ED"/>
  <guideline x="159" y="370" angle="90"/>
  <guideline x="41" y="370" angle="90"/>
  <guideline x="73" y="370" angle="90"/>
  <guideline x="295" y="470" angle="0"/>
  <guideline x="295" y="417" angle="0"/>
  <guideline x="110" y="370" angle="90"/>
  <outline>
    <contour>
      <point x="40" y="0" type="line"/>
      <point x="180" y="0" type="line"/>
      <point x="180" y="417" type="line"/>
      <point x="179" y="417"/>
      <point x="41" y="417"/>
      <point x="40" y="417" type="curve"/>
    </contour>
    <component base="acutecomb" xOffset="44" yOffset="-171"/>
  </outline>
</glyph>
<glyph name="icircumflex" format="2">
  <advance width="289"/>
  <unicode hex="00EE"/>
  <guideline x="150" y="370" angle="90"/>
  <outline>
    <contour>
      <point x="80" y="0" type="line"/>
      <point x="220" y="0" type="line"/>
      <point x="220" y="417" type="line"/>
      <point x="219" y="417"/>
      <point x="81" y="417"/>
      <point x="80" y="417" type="curve"/>
    </contour>
    <component base="circumflexcomb" xOffset="-95" yOffset="-234"/>
  </outline>
</glyph>
<glyph name="idieresis" format="2">
  <advance width="296"/>
  <unicode hex="00EF"/>
  <guideline x="153" y="370" angle="90"/>
  <outline>
    <contour>
      <point x="83" y="0" type="line"/>
      <point x="223" y="0" type="line"/>
      <point x="223" y="417" type="line"/>
      <point x="222" y="417"/>
      <point x="84" y="417"/>
      <point x="83" y="417" type="curve"/>
    </contour>
    <component base="dieresiscomb" xOffset="-70" yOffset="-204"/>
  </outline>
</glyph>
<glyph name="eth" format="2">
  <advance width="538"/>
  <unicode hex="00F0"/>
  <outline>
    <contour>
      <point x="258" y="-10" type="curve"/>
      <point x="584" y="-10"/>
      <point x="571" y="468"/>
      <point x="261" y="630" type="curve"/>
      <point x="154" y="513" type="line"/>
      <point x="154" y="513"/>
      <point x="347" y="414"/>
      <point x="378" y="303" type="curve"/>
      <point x="378" y="303"/>
      <point x="377" y="303"/>
      <point x="376" y="303" type="curve"/>
      <point x="376" y="303"/>
      <point x="332" y="394"/>
      <point x="213" y="394" type="curve"/>
      <point x="-23" y="394"/>
      <point x="-32" y="-10"/>
    </contour>
    <contour>
      <point x="384" y="181" type="curve"/>
      <point x="364" y="77"/>
      <point x="190" y="79"/>
      <point x="174" y="192" type="curve"/>
      <point x="154" y="329"/>
      <point x="384" y="324"/>
    </contour>
    <contour>
      <point x="203" y="418" type="line"/>
      <point x="449" y="567" type="line"/>
      <point x="399" y="604" type="line"/>
      <point x="153" y="455" type="line"/>
    </contour>
  </outline>
</glyph>
<glyph name="divide" format="2">
  <advance width="317"/>
  <unicode hex="00F7"/>
  <outline>
    <contour>
      <point x="40" y="178" type="line"/>
      <point x="262" y="178" type="line"/>
      <point x="262" y="272" type="line"/>
      <point x="40" y="272" type="line"/>
    </contour>
    <contour>
      <point x="150" y="307" type="curve"/>
      <point x="181" y="307"/>
      <point x="195" y="326"/>
      <point x="195" y="351" type="curve"/>
      <point x="195" y="378"/>
      <point x="179" y="395"/>
      <point x="150" y="395" type="curve"/>
      <point x="119" y="395"/>
      <point x="104" y="376"/>
      <point x="105" y="351" type="curve"/>
      <point x="105" y="326"/>
      <point x="119" y="307"/>
    </contour>
    <contour>
      <point x="150" y="51" type="curve"/>
      <point x="181" y="51"/>
      <point x="195" y="70"/>
      <point x="195" y="95" type="curve"/>
      <point x="195" y="122"/>
      <point x="179" y="139"/>
      <point x="150" y="139" type="curve"/>
      <point x="119" y="139"/>
      <point x="104" y="120"/>
      <point x="105" y="95" type="curve"/>
      <point x="105" y="70"/>
      <point x="119" y="51"/>
    </contour>
  </outline>
</glyph>
<glyph name="oslash" format="2">
  <advance width="479"/>
  <unicode hex="00F8"/>
  <guideline x="230" y="207" angle="90"/>
  <guideline x="315" y="207" angle="0"/>
  <outline>
    <contour>
      <point x="62" y="-27" type="line"/>
      <point x="92" y="-44" type="line"/>
      <point x="398" y="443" type="line"/>
      <point x="368" y="460" type="line"/>
    </contour>
    <component base="o"/>
  </outline>
</glyph>
<glyph name="thorn" format="2">
  <advance width="512"/>
  <unicode hex="00FE"/>
  <outline>
    <contour>
      <point x="331" y="-10" type="curve"/>
      <point x="438" y="-10"/>
      <point x="477" y="99"/>
      <point x="477" y="206" type="curve"/>
      <point x="477" y="310"/>
      <point x="436" y="413"/>
      <point x="332" y="413" type="curve"/>
      <point x="227" y="413"/>
      <point x="195" y="307"/>
      <point x="194" y="304" type="curve"/>
      <point x="194" y="78" type="line"/>
      <point x="196" y="72"/>
      <point x="242" y="-10"/>
    </contour>
    <contour>
      <point x="50" y="-199" type="line"/>
      <point x="194" y="-199" type="line"/>
      <point x="194" y="72" type="line"/>
      <point x="194" y="563" type="line"/>
      <point x="50" y="563" type="line"/>
    </contour>
    <contour>
      <point x="255" y="105" type="curve"/>
      <point x="195" y="105"/>
      <point x="190" y="142"/>
      <point x="190" y="197" type="curve" smooth="yes"/>
      <point x="190" y="256"/>
      <point x="199" y="292"/>
      <point x="257" y="292" type="curve"/>
      <point x="317" y="292"/>
      <point x="323" y="244"/>
      <point x="323" y="197" type="curve"/>
      <point x="323" y="151"/>
      <point x="317" y="105"/>
    </contour>
  </outline>
</glyph>
<glyph name="Aogonek" format="2">
  <advance width="609"/>
  <unicode hex="0104"/>
  <outline>
    <contour>
      <point x="495" y="-180" type="curve"/>
      <point x="580" y="-180"/>
      <point x="619" y="-120"/>
      <point x="619" y="-120" type="curve"/>
      <point x="548" y="-56" type="line"/>
      <point x="548" y="-56"/>
      <point x="531" y="-82"/>
      <point x="508" y="-82" type="curve"/>
      <point x="493" y="-82"/>
      <point x="483" y="-74"/>
      <point x="483" y="-60" type="curve" smooth="yes"/>
      <point x="483" y="-21"/>
      <point x="577" y="0"/>
      <point x="577" y="0" type="curve"/>
      <point x="558" y="62" type="line"/>
      <point x="558" y="62"/>
      <point x="381" y="20"/>
      <point x="383" y="-85" type="curve"/>
      <point x="383" y="-157"/>
      <point x="446" y="-180"/>
    </contour>
    <component base="A"/>
  </outline>
</glyph>
<glyph name="dcaron" format="2">
  <advance width="649"/>
  <unicode hex="010F"/>
  <guideline x="512" y="204" angle="90"/>
  <guideline x="460" y="204" angle="90"/>
  <outline>
    <contour>
      <point x="512" y="389" type="line"/>
      <point x="593" y="389" type="line"/>
      <point x="669" y="563" type="line"/>
      <point x="539" y="563" type="line"/>
    </contour>
    <component base="d"/>
  </outline>
</glyph>
<glyph name="dcroat" format="2">
  <advance width="521"/>
  <unicode hex="0111"/>
  <guideline x="506" y="625" angle="90"/>
  <guideline x="456" y="625" angle="90"/>
  <outline>
    <contour>
      <point x="195" y="-10" type="curve" smooth="yes"/>
      <point x="290" y="-10"/>
      <point x="323" y="56"/>
      <point x="323" y="56" type="curve"/>
      <point x="325" y="56" type="line"/>
      <point x="347" y="0" type="line"/>
      <point x="469" y="0" type="line"/>
      <point x="469" y="563" type="line"/>
      <point x="325" y="563" type="line"/>
      <point x="325" y="338" type="line"/>
      <point x="323" y="338" type="line" smooth="yes"/>
      <point x="323" y="338"/>
      <point x="296" y="414"/>
      <point x="195" y="414" type="curve" smooth="yes"/>
      <point x="72" y="414"/>
      <point x="33" y="335"/>
      <point x="33" y="198" type="curve" smooth="yes"/>
      <point x="33" y="69"/>
      <point x="70" y="-10"/>
    </contour>
    <contour>
      <point x="247" y="105" type="curve" smooth="yes"/>
      <point x="176" y="105"/>
      <point x="169" y="151"/>
      <point x="169" y="199" type="curve" smooth="yes"/>
      <point x="169" y="247"/>
      <point x="176" y="292"/>
      <point x="247" y="292" type="curve" smooth="yes"/>
      <point x="318" y="292"/>
      <point x="325" y="247"/>
      <point x="325" y="199" type="curve" smooth="yes"/>
      <point x="325" y="151"/>
      <point x="318" y="105"/>
    </contour>
    <contour>
      <point x="191" y="446" type="line"/>
      <point x="506" y="446" type="line"/>
      <point x="506" y="526" type="line"/>
      <point x="191" y="526" type="line"/>
    </contour>
  </outline>
</glyph>
<glyph name="Eogonek" format="2">
  <advance width="523"/>
  <unicode hex="0118"/>
  <outline>
    <contour>
      <point x="429" y="-180" type="curve"/>
      <point x="514" y="-180"/>
      <point x="553" y="-120"/>
      <point x="553" y="-120" type="curve"/>
      <point x="482" y="-56" type="line"/>
      <point x="482" y="-56"/>
      <point x="465" y="-82"/>
      <point x="442" y="-82" type="curve"/>
      <point x="427" y="-82"/>
      <point x="417" y="-74"/>
      <point x="417" y="-60" type="curve" smooth="yes"/>
      <point x="417" y="-21"/>
      <point x="487" y="0"/>
      <point x="487" y="0" type="curve"/>
      <point x="487" y="62" type="line"/>
      <point x="487" y="62"/>
      <point x="317" y="20"/>
      <point x="317" y="-85" type="curve"/>
      <point x="317" y="-157"/>
      <point x="380" y="-180"/>
    </contour>
    <component base="E"/>
  </outline>
</glyph>
<glyph name="gbreve" format="2">
  <advance width="476"/>
  <unicode hex="011F"/>
  <outline>
    <contour>
      <point x="165" y="-199" type="line"/>
      <point x="284" y="-199" type="line" smooth="yes"/>
      <point x="404" y="-199"/>
      <point x="466" y="-154"/>
      <point x="466" y="0" type="curve"/>
      <point x="466" y="414" type="line"/>
      <point x="322" y="414" type="line"/>
      <point x="322" y="338" type="line"/>
      <point x="320" y="338" type="line" smooth="yes"/>
      <point x="320" y="338"/>
      <point x="296" y="414"/>
      <point x="195" y="414" type="curve" smooth="yes"/>
      <point x="72" y="414"/>
      <point x="31" y="336"/>
      <point x="31" y="199" type="curve" smooth="yes"/>
      <point x="31" y="70"/>
      <point x="70" y="-10"/>
      <point x="195" y="-10" type="curve" smooth="yes"/>
      <point x="290" y="-10"/>
      <point x="320" y="56"/>
      <point x="320" y="56" type="curve"/>
      <point x="322" y="56" type="line"/>
      <point x="322" y="-67" type="line"/>
      <point x="165" y="-67" type="line"/>
    </contour>
    <contour>
      <point x="244" y="105" type="curve" smooth="yes"/>
      <point x="173" y="105"/>
      <point x="166" y="151"/>
      <point x="166" y="199" type="curve" smooth="yes"/>
      <point x="166" y="247"/>
      <point x="173" y="292"/>
      <point x="244" y="292" type="curve" smooth="yes"/>
      <point x="315" y="292"/>
      <point x="322" y="247"/>
      <point x="322" y="199" type="curve" smooth="yes"/>
      <point x="322" y="151"/>
      <point x="315" y="105"/>
    </contour>
    <component base="brevecomb" xOffset="59" yOffset="-240"/>
  </outline>
</glyph>
<glyph name="Hbar" format="2">
  <advance width="600"/>
  <unicode hex="0126"/>
  <guideline x="545" y="380" angle="90"/>
  <guideline x="591" y="380" angle="90"/>
  <guideline x="4" y="380" angle="90"/>
  <guideline x="50" y="380" angle="90"/>
  <outline>
    <contour>
      <point x="405" y="0" type="line"/>
      <point x="545" y="0" type="line"/>
      <point x="545" y="563" type="line"/>
      <point x="405" y="563" type="line"/>
    </contour>
    <contour>
      <point x="50" y="0" type="line"/>
      <point x="190" y="0" type="line"/>
      <point x="190" y="563" type="line"/>
      <point x="50" y="563" type="line"/>
    </contour>
    <contour>
      <point x="110" y="230" type="line"/>
      <point x="494" y="230" type="line"/>
      <point x="494" y="336" type="line"/>
      <point x="110" y="336" type="line"/>
    </contour>
    <contour>
      <point x="4" y="404" type="line"/>
      <point x="591" y="404" type="line"/>
      <point x="591" y="500" type="line"/>
      <point x="4" y="500" type="line"/>
    </contour>
  </outline>
</glyph>
<glyph name="hbar" format="2">
  <advance width="491"/>
  <unicode hex="0127"/>
  <guideline x="45" y="625" angle="90"/>
  <guideline x="-5" y="625" angle="90"/>
  <outline>
    <contour>
      <point x="305" y="0" type="line"/>
      <point x="445" y="0" type="line"/>
      <point x="445" y="146" type="line"/>
      <point x="445" y="228"/>
      <point x="469" y="417"/>
      <point x="305" y="417" type="curve"/>
      <point x="201" y="417"/>
      <point x="181" y="273"/>
      <point x="185" y="295" type="curve"/>
      <point x="185" y="149" type="line"/>
      <point x="185" y="249"/>
      <point x="198" y="295"/>
      <point x="240" y="295" type="curve"/>
      <point x="318" y="295"/>
      <point x="305" y="219"/>
      <point x="305" y="131" type="curve"/>
    </contour>
    <contour>
      <point x="45" y="0" type="line"/>
      <point x="185" y="0" type="line"/>
      <point x="185" y="563" type="line"/>
      <point x="45" y="563" type="line"/>
    </contour>
    <contour>
      <point x="310" y="446" type="line"/>
      <point x="310" y="526" type="line"/>
      <point x="-5" y="526" type="line"/>
      <point x="-5" y="446" type="line"/>
    </contour>
  </outline>
</glyph>
<glyph name="itilde" format="2">
  <advance width="256"/>
  <unicode hex="0129"/>
  <guideline x="173" y="370" angle="90"/>
  <guideline x="75" y="370" angle="90"/>
  <guideline x="124" y="370" angle="90"/>
  <outline>
    <contour>
      <point x="54" y="0" type="line"/>
      <point x="194" y="0" type="line"/>
      <point x="194" y="417" type="line"/>
      <point x="193" y="417"/>
      <point x="55" y="417"/>
      <point x="54" y="417" type="curve"/>
    </contour>
    <component base="tildecomb" xOffset="-73" yOffset="-186"/>
  </outline>
</glyph>
<glyph name="imacron" format="2">
  <advance width="260"/>
  <unicode hex="012B"/>
  <guideline x="116" y="370" angle="90"/>
  <outline>
    <contour>
      <point x="46" y="0" type="line"/>
      <point x="186" y="0" type="line"/>
      <point x="186" y="417" type="line"/>
      <point x="185" y="417"/>
      <point x="47" y="417"/>
      <point x="46" y="417" type="curve"/>
    </contour>
    <component base="macron" xOffset="-75" yOffset="-246"/>
  </outline>
</glyph>
<glyph name="Iogonek" format="2">
  <advance width="415"/>
  <unicode hex="012E"/>
  <outline>
    <contour>
      <point x="210" y="-180" type="curve"/>
      <point x="295" y="-180"/>
      <point x="334" y="-120"/>
      <point x="334" y="-120" type="curve"/>
      <point x="263" y="-56" type="line"/>
      <point x="263" y="-56"/>
      <point x="246" y="-82"/>
      <point x="223" y="-82" type="curve"/>
      <point x="208" y="-82"/>
      <point x="198" y="-74"/>
      <point x="198" y="-60" type="curve" smooth="yes"/>
      <point x="198" y="-21"/>
      <point x="268" y="0"/>
      <point x="268" y="0" type="curve"/>
      <point x="268" y="62" type="line"/>
      <point x="268" y="62"/>
      <point x="98" y="20"/>
      <point x="98" y="-85" type="curve"/>
      <point x="98" y="-157"/>
      <point x="161" y="-180"/>
    </contour>
    <component base="I"/>
  </outline>
</glyph>
<glyph name="iogonek" format="2">
  <advance width="266"/>
  <unicode hex="012F"/>
  <outline>
    <contour>
      <point x="50" y="0" type="line"/>
      <point x="190" y="0" type="line"/>
      <point x="190" y="417" type="line"/>
      <point x="190" y="417"/>
      <point x="165" y="403"/>
      <point x="119" y="403" type="curve" smooth="yes"/>
      <point x="73" y="403"/>
      <point x="50" y="417"/>
      <point x="50" y="417" type="curve"/>
    </contour>
    <contour>
      <point x="120" y="430" type="curve" smooth="yes"/>
      <point x="177" y="430"/>
      <point x="193" y="462"/>
      <point x="193" y="504" type="curve" smooth="yes"/>
      <point x="193" y="543"/>
      <point x="177" y="575"/>
      <point x="120" y="575" type="curve" smooth="yes"/>
      <point x="61" y="575"/>
      <point x="45" y="543"/>
      <point x="45" y="504" type="curve" smooth="yes"/>
      <point x="45" y="463"/>
      <point x="60" y="430"/>
    </contour>
    <contour>
      <point x="132" y="-180" type="curve"/>
      <point x="217" y="-180"/>
      <point x="256" y="-120"/>
      <point x="256" y="-120" type="curve"/>
      <point x="185" y="-56" type="line"/>
      <point x="185" y="-56"/>
      <point x="168" y="-82"/>
      <point x="145" y="-82" type="curve"/>
      <point x="130" y="-82"/>
      <point x="120" y="-74"/>
      <point x="120" y="-60" type="curve" smooth="yes"/>
      <point x="120" y="-21"/>
      <point x="190" y="0"/>
      <point x="190" y="0" type="curve"/>
      <point x="190" y="62" type="line"/>
      <point x="190" y="62"/>
      <point x="20" y="20"/>
      <point x="20" y="-85" type="curve"/>
      <point x="20" y="-157"/>
      <point x="83" y="-180"/>
    </contour>
  </outline>
</glyph>
<glyph name="idotless" format="2">
  <advance width="230"/>
  <unicode hex="0131"/>
  <outline>
    <contour>
      <point x="45" y="0" type="line"/>
      <point x="185" y="0" type="line"/>
      <point x="185" y="417" type="line"/>
      <point x="184" y="417"/>
      <point x="46" y="417"/>
      <point x="45" y="417" type="curve"/>
    </contour>
  </outline>
</glyph>
<glyph name="Kcommaaccent" format="2">
  <advance width="600"/>
  <unicode hex="0136"/>
  <outline>
    <contour>
      <point x="197" y="169" type="line"/>
      <point x="607" y="563" type="line"/>
      <point x="411" y="563" type="line"/>
      <point x="197" y="322" type="line"/>
    </contour>
    <contour>
      <point x="60" y="0" type="line"/>
      <point x="199" y="0" type="line"/>
      <point x="199" y="563" type="line"/>
      <point x="60" y="563" type="line"/>
    </contour>
    <contour>
      <point x="446" y="0" type="line"/>
      <point x="609" y="0" type="line"/>
      <point x="353" y="385" type="line"/>
      <point x="252" y="286" type="line"/>
    </contour>
    <component base="commaaccentcomb" xOffset="187"/>
  </outline>
</glyph>
<glyph name="kcommaaccent" format="2">
  <advance width="483"/>
  <unicode hex="0137"/>
  <outline>
    <contour>
      <point x="190" y="0" type="line"/>
      <point x="190" y="563" type="line"/>
      <point x="50" y="563" type="line"/>
      <point x="50" y="0" type="line"/>
    </contour>
    <contour>
      <point x="281" y="312" type="line"/>
      <point x="179" y="214" type="line"/>
      <point x="324" y="1" type="line"/>
      <point x="489" y="1" type="line"/>
    </contour>
    <contour>
      <point x="188" y="96" type="line"/>
      <point x="486" y="417" type="line"/>
      <point x="318" y="417" type="line"/>
      <point x="188" y="249" type="line"/>
    </contour>
    <component base="commaaccentcomb" xOffset="119"/>
  </outline>
</glyph>
<glyph name="Lslash" format="2">
  <advance width="473"/>
  <unicode hex="0141"/>
  <outline>
    <contour>
      <point x="1" y="160" type="line"/>
      <point x="303" y="294" type="line"/>
      <point x="303" y="414" type="line"/>
      <point x="1" y="280" type="line"/>
    </contour>
    <component base="L"/>
  </outline>
</glyph>
<glyph name="lslash" format="2">
  <advance width="285"/>
  <unicode hex="0142"/>
  <outline>
    <contour>
      <point x="-9" y="160" type="line"/>
      <point x="253" y="294" type="line"/>
      <point x="253" y="414" type="line"/>
      <point x="-9" y="280" type="line"/>
    </contour>
    <component base="l"/>
  </outline>
</glyph>
<glyph name="Eng" format="2">
  <advance width="600"/>
  <unicode hex="014A"/>
  <outline>
    <contour>
      <point x="418" y="-207" type="curve"/>
      <point x="529" y="-207"/>
      <point x="575" y="-138"/>
      <point x="575" y="-65" type="curve"/>
      <point x="575" y="0" type="line"/>
      <point x="435" y="0" type="line"/>
      <point x="435" y="-43" type="line"/>
      <point x="435" y="-71"/>
      <point x="418" y="-79"/>
      <point x="405" y="-79" type="curve"/>
      <point x="384" y="-79"/>
      <point x="370" y="-63"/>
      <point x="370" y="-63" type="curve"/>
      <point x="295" y="-156" type="line"/>
      <point x="295" y="-156"/>
      <point x="337" y="-207"/>
    </contour>
    <component base="N"/>
  </outline>
</glyph>
<glyph name="eng" format="2">
  <advance width="506"/>
  <unicode hex="014B"/>
  <outline>
    <contour>
      <point x="304" y="-198" type="curve"/>
      <point x="415" y="-198"/>
      <point x="461" y="-129"/>
      <point x="461" y="-56" type="curve"/>
      <point x="461" y="9" type="line"/>
      <point x="321" y="9" type="line"/>
      <point x="321" y="-34" type="line"/>
      <point x="321" y="-62"/>
      <point x="304" y="-70"/>
      <point x="291" y="-70" type="curve"/>
      <point x="270" y="-70"/>
      <point x="256" y="-54"/>
      <point x="256" y="-54" type="curve"/>
      <point x="181" y="-147" type="line"/>
      <point x="181" y="-147"/>
      <point x="223" y="-198"/>
    </contour>
    <component base="n"/>
  </outline>
</glyph>
<glyph name="Ohungarumlaut" format="2">
  <advance width="600"/>
  <unicode hex="0150"/>
  <outline>
    <contour>
      <point x="154" y="640" type="line"/>
      <point x="216" y="610" type="line"/>
      <point x="328" y="745" type="line"/>
      <point x="221" y="798" type="line"/>
    </contour>
    <contour>
      <point x="355" y="640" type="line"/>
      <point x="417" y="610" type="line"/>
      <point x="529" y="745" type="line"/>
      <point x="422" y="798" type="line"/>
    </contour>
    <component base="O"/>
  </outline>
</glyph>
<glyph name="ohungarumlaut" format="2">
  <advance width="499"/>
  <unicode hex="0151"/>
  <outline>
    <contour>
      <point x="94" y="491" type="line"/>
      <point x="156" y="461" type="line"/>
      <point x="268" y="596" type="line"/>
      <point x="161" y="649" type="line"/>
    </contour>
    <contour>
      <point x="295" y="491" type="line"/>
      <point x="357" y="461" type="line"/>
      <point x="469" y="596" type="line"/>
      <point x="362" y="649" type="line"/>
    </contour>
    <component base="o"/>
  </outline>
</glyph>
<glyph name="OE" format="2">
  <advance width="858"/>
  <unicode hex="0152"/>
  <outline>
    <contour>
      <point x="395" y="0" type="curve"/>
      <point x="418" y="0"/>
      <point x="431" y="0"/>
      <point x="523" y="0" type="curve"/>
      <point x="523" y="563" type="line"/>
      <point x="425" y="563"/>
      <point x="416" y="563"/>
      <point x="395" y="563" type="curve"/>
      <point x="173" y="563"/>
      <point x="40" y="469"/>
      <point x="40" y="282" type="curve"/>
      <point x="40" y="60"/>
      <point x="173" y="0"/>
    </contour>
    <contour>
      <point x="361" y="114" type="curve"/>
      <point x="253" y="114"/>
      <point x="189" y="144"/>
      <point x="189" y="283" type="curve"/>
      <point x="189" y="389"/>
      <point x="253" y="443"/>
      <point x="361" y="443" type="curve"/>
      <point x="385" y="443" type="line"/>
      <point x="385" y="114" type="line"/>
      <point x="346" y="114"/>
      <point x="369" y="114"/>
    </contour>
    <contour>
      <point x="385" y="0" type="line"/>
      <point x="822" y="0" type="line"/>
      <point x="822" y="111" type="line"/>
      <point x="522" y="111" type="line"/>
      <point x="522" y="229" type="line"/>
      <point x="737" y="229" type="line"/>
      <point x="737" y="341" type="line"/>
      <point x="522" y="341" type="line"/>
      <point x="522" y="444" type="line"/>
      <point x="811" y="444" type="line"/>
      <point x="811" y="563" type="line"/>
      <point x="385" y="563" type="line"/>
    </contour>
  </outline>
</glyph>
<glyph name="oe" format="2">
  <advance width="754"/>
  <unicode hex="0153"/>
  <outline>
    <contour>
      <point x="231" y="-10" type="curve"/>
      <point x="380" y="-10"/>
      <point x="449" y="82"/>
      <point x="449" y="202" type="curve"/>
      <point x="449" y="330"/>
      <point x="374" y="415"/>
      <point x="231" y="415" type="curve"/>
      <point x="84" y="414"/>
      <point x="10" y="325"/>
      <point x="12" y="202" type="curve"/>
      <point x="12" y="79"/>
      <point x="84" y="-10"/>
    </contour>
    <contour>
      <point x="231" y="106" type="curve"/>
      <point x="156" y="106"/>
      <point x="146" y="159"/>
      <point x="146" y="207" type="curve"/>
      <point x="146" y="256"/>
      <point x="156" y="309"/>
      <point x="231" y="309" type="curve"/>
      <point x="305" y="309"/>
      <point x="315" y="256"/>
      <point x="315" y="207" type="curve"/>
      <point x="315" y="159"/>
      <point x="305" y="106"/>
    </contour>
    <contour>
      <point x="533" y="-10" type="curve"/>
      <point x="651" y="-10"/>
      <point x="708" y="57"/>
      <point x="732" y="134" type="curve"/>
      <point x="599" y="161" type="line"/>
      <point x="591" y="130"/>
      <point x="575" y="110"/>
      <point x="532" y="110" type="curve" smooth="yes"/>
      <point x="482" y="110"/>
      <point x="450" y="136"/>
      <point x="450" y="189" type="curve"/>
      <point x="728" y="189" type="line"/>
      <point x="728" y="196"/>
      <point x="728" y="215"/>
      <point x="728" y="215" type="curve" smooth="yes"/>
      <point x="731" y="330"/>
      <point x="641" y="417"/>
      <point x="534" y="417" type="curve"/>
      <point x="367" y="417"/>
      <point x="313" y="305"/>
      <point x="316" y="197" type="curve" smooth="yes"/>
      <point x="319" y="92"/>
      <point x="376" y="-10"/>
    </contour>
    <contour>
      <point x="450" y="257" type="line"/>
      <point x="450" y="257"/>
      <point x="449" y="321"/>
      <point x="528" y="321" type="curve" smooth="yes"/>
      <point x="600" y="321"/>
      <point x="588" y="257"/>
      <point x="588" y="257" type="curve"/>
    </contour>
  </outline>
</glyph>
<glyph name="Tbar" format="2">
  <advance width="480"/>
  <unicode hex="0166"/>
  <outline>
    <contour>
      <point x="10" y="444" type="line"/>
      <point x="455" y="444" type="line"/>
      <point x="455" y="563" type="line"/>
      <point x="10" y="563" type="line"/>
    </contour>
    <contour>
      <point x="58" y="237" type="line"/>
      <point x="408" y="237" type="line"/>
      <point x="408" y="333" type="line"/>
      <point x="58" y="333" type="line"/>
    </contour>
    <contour>
      <point x="303" y="545" type="line"/>
      <point x="163" y="545" type="line"/>
      <point x="163" y="0" type="line"/>
      <point x="303" y="0" type="line"/>
    </contour>
  </outline>
</glyph>
<glyph name="tbar" format="2">
  <advance width="334"/>
  <unicode hex="0167"/>
  <outline>
    <contour>
      <point x="296" y="19" type="curve"/>
      <point x="299" y="96" type="line"/>
      <point x="270" y="87"/>
      <point x="203" y="71"/>
      <point x="203" y="186" type="curve"/>
      <point x="203" y="335" type="line"/>
      <point x="73" y="335" type="line"/>
      <point x="73" y="145" type="line"/>
      <point x="73" y="0"/>
      <point x="200" y="-45"/>
    </contour>
    <contour>
      <point x="15" y="159" type="line"/>
      <point x="296" y="159" type="line"/>
      <point x="296" y="255" type="line"/>
      <point x="15" y="255" type="line"/>
    </contour>
    <contour>
      <point x="15" y="310" type="line"/>
      <point x="296" y="310" type="line"/>
      <point x="296" y="417" type="line"/>
      <point x="203" y="417" type="line"/>
      <point x="203" y="522" type="line"/>
      <point x="93" y="522" type="line"/>
      <point x="93" y="429"/>
      <point x="62" y="417"/>
      <point x="15" y="417" type="curve"/>
    </contour>
  </outline>
</glyph>
<glyph name="Uhungarumlaut" format="2">
  <advance width="600"/>
  <unicode hex="0170"/>
  <outline>
    <contour>
      <point x="149" y="640" type="line"/>
      <point x="211" y="610" type="line"/>
      <point x="323" y="745" type="line"/>
      <point x="216" y="798" type="line"/>
    </contour>
    <contour>
      <point x="350" y="640" type="line"/>
      <point x="412" y="610" type="line"/>
      <point x="524" y="745" type="line"/>
      <point x="417" y="798" type="line"/>
    </contour>
    <component base="U"/>
  </outline>
</glyph>
<glyph name="uhungarumlaut" format="2">
  <advance width="509"/>
  <unicode hex="0171"/>
  <outline>
    <contour>
      <point x="84" y="491" type="line"/>
      <point x="146" y="461" type="line"/>
      <point x="258" y="596" type="line"/>
      <point x="151" y="649" type="line"/>
    </contour>
    <contour>
      <point x="285" y="491" type="line"/>
      <point x="347" y="461" type="line"/>
      <point x="459" y="596" type="line"/>
      <point x="352" y="649" type="line"/>
    </contour>
    <component base="u"/>
  </outline>
</glyph>
<glyph name="Uogonek" format="2">
  <advance width="614"/>
  <unicode hex="0172"/>
  <outline>
    <contour>
      <point x="316" y="-186" type="curve"/>
      <point x="401" y="-186"/>
      <point x="440" y="-126"/>
      <point x="440" y="-126" type="curve"/>
      <point x="369" y="-62" type="line"/>
      <point x="369" y="-62"/>
      <point x="352" y="-88"/>
      <point x="329" y="-88" type="curve"/>
      <point x="314" y="-88"/>
      <point x="304" y="-80"/>
      <point x="304" y="-66" type="curve" smooth="yes"/>
      <point x="304" y="-27"/>
      <point x="374" y="-6"/>
      <point x="374" y="-6" type="curve"/>
      <point x="374" y="56" type="line"/>
      <point x="374" y="56"/>
      <point x="204" y="14"/>
      <point x="204" y="-91" type="curve"/>
      <point x="204" y="-163"/>
      <point x="267" y="-186"/>
    </contour>
    <component base="U"/>
  </outline>
</glyph>
<glyph name="uogonek" format="2">
  <advance width="489"/>
  <unicode hex="0173"/>
  <outline>
    <contour>
      <point x="381" y="-180" type="curve"/>
      <point x="466" y="-180"/>
      <point x="505" y="-120"/>
      <point x="505" y="-120" type="curve"/>
      <point x="434" y="-56" type="line"/>
      <point x="434" y="-56"/>
      <point x="417" y="-82"/>
      <point x="394" y="-82" type="curve"/>
      <point x="379" y="-82"/>
      <point x="369" y="-74"/>
      <point x="369" y="-60" type="curve" smooth="yes"/>
      <point x="369" y="-21"/>
      <point x="439" y="0"/>
      <point x="439" y="0" type="curve"/>
      <point x="439" y="62" type="line"/>
      <point x="439" y="62"/>
      <point x="269" y="20"/>
      <point x="269" y="-85" type="curve"/>
      <point x="269" y="-157"/>
      <point x="332" y="-180"/>
    </contour>
    <component base="u"/>
  </outline>
</glyph>
<glyph name="caron" format="2">
  <advance width="449"/>
  <unicode hex="02C7"/>
  <outline>
    <contour>
      <point x="50" y="790" type="line"/>
      <point x="196" y="654" type="line"/>
      <point x="254" y="654" type="line"/>
      <point x="399" y="790" type="line"/>
      <point x="260" y="790" type="line"/>
      <point x="225" y="711" type="line"/>
      <point x="193" y="790" type="line"/>
    </contour>
  </outline>
</glyph>
<glyph name="gravecomb" format="2">
  <unicode hex="0300"/>
  <outline>
    <contour>
      <point x="125" y="632" type="line"/>
      <point x="187" y="632" type="line"/>
      <point x="187" y="649" type="line"/>
      <point x="148" y="746" type="line"/>
      <point x="33" y="746" type="line"/>
      <point x="33" y="724" type="line"/>
    </contour>
  </outline>
</glyph>
<glyph name="acutecomb" format="2">
  <unicode hex="0301"/>
  <guideline x="163" y="614" angle="153.8574"/>
  <guideline x="286" y="744" angle="153.8574"/>
  <outline>
    <contour>
      <point x="95" y="632" type="line"/>
      <point x="187" y="724" type="line"/>
      <point x="187" y="746" type="line"/>
      <point x="72" y="746" type="line"/>
      <point x="33" y="649" type="line"/>
      <point x="33" y="632" type="line"/>
    </contour>
  </outline>
</glyph>
<glyph name="circumflexcomb" format="2">
  <unicode hex="0302"/>
  <guideline x="245" y="694" angle="0"/>
  <guideline x="335" y="762" angle="319.0409"/>
  <outline>
    <contour>
      <point x="89" y="690" type="line"/>
      <point x="213" y="690" type="line"/>
      <point x="242" y="726" type="line"/>
      <point x="248" y="726" type="line"/>
      <point x="280" y="690" type="line"/>
      <point x="400" y="690" type="line"/>
      <point x="400" y="700" type="line"/>
      <point x="274" y="814" type="line"/>
      <point x="216" y="814" type="line"/>
      <point x="89" y="700" type="line"/>
    </contour>
  </outline>
</glyph>
<glyph name="tildecomb" format="2">
  <unicode hex="0303"/>
  <outline>
    <contour>
      <point x="179" y="715"/>
      <point x="177" y="657"/>
      <point x="253" y="657" type="curve" smooth="yes"/>
      <point x="343" y="657"/>
      <point x="343" y="740"/>
      <point x="343" y="790" type="curve"/>
      <point x="265" y="790" type="line"/>
      <point x="265" y="756"/>
      <point x="265" y="736"/>
      <point x="245" y="736" type="curve" smooth="yes"/>
      <point x="212" y="736"/>
      <point x="208" y="794"/>
      <point x="134" y="794" type="curve" smooth="yes"/>
      <point x="36" y="794"/>
      <point x="44" y="693"/>
      <point x="44" y="662" type="curve"/>
      <point x="122" y="662" type="line"/>
      <point x="122" y="696"/>
      <point x="122" y="715"/>
      <point x="143" y="715" type="curve" smooth="yes"/>
    </contour>
  </outline>
</glyph>
<glyph name="macroncomb" format="2">
  <unicode hex="0304"/>
  <outline>
    <contour>
      <point x="40" y="726" type="line"/>
      <point x="342" y="726" type="line"/>
      <point x="342" y="820" type="line"/>
      <point x="40" y="820" type="line"/>
    </contour>
  </outline>
</glyph>
<glyph name="brevecomb" format="2">
  <unicode hex="0306"/>
  <guideline x="201" y="652" angle="90"/>
  <outline>
    <contour>
      <point x="201" y="701" type="curve" smooth="yes"/>
      <point x="296" y="701"/>
      <point x="347" y="747"/>
      <point x="347" y="820" type="curve"/>
      <point x="250" y="820" type="line"/>
      <point x="250" y="785"/>
      <point x="231" y="774"/>
      <point x="201" y="774" type="curve" smooth="yes"/>
      <point x="172" y="774"/>
      <point x="151" y="787"/>
      <point x="151" y="820" type="curve"/>
      <point x="54" y="820" type="line"/>
      <point x="54" y="746"/>
      <point x="108" y="701"/>
    </contour>
  </outline>
</glyph>
<glyph name="dotaccentcomb" format="2">
  <unicode hex="0307"/>
  <outline>
    <contour>
      <point x="121" y="670" type="curve"/>
      <point x="181" y="670"/>
      <point x="195" y="705"/>
      <point x="195" y="746" type="curve"/>
      <point x="195" y="785"/>
      <point x="181" y="820"/>
      <point x="121" y="820" type="curve"/>
      <point x="61" y="820"/>
      <point x="45" y="785"/>
      <point x="45" y="746" type="curve"/>
      <point x="45" y="705"/>
      <point x="61" y="670"/>
    </contour>
  </outline>
</glyph>
<glyph name="dieresiscomb" format="2">
  <unicode hex="0308"/>
  <outline>
    <contour>
      <point x="121" y="660" type="curve"/>
      <point x="181" y="660"/>
      <point x="195" y="695"/>
      <point x="195" y="736" type="curve"/>
      <point x="195" y="775"/>
      <point x="181" y="810"/>
      <point x="121" y="810" type="curve"/>
      <point x="61" y="810"/>
      <point x="45" y="775"/>
      <point x="45" y="736" type="curve"/>
      <point x="45" y="695"/>
      <point x="61" y="660"/>
    </contour>
    <contour>
      <point x="327" y="660" type="curve"/>
      <point x="387" y="660"/>
      <point x="401" y="695"/>
      <point x="401" y="736" type="curve"/>
      <point x="401" y="775"/>
      <point x="387" y="810"/>
      <point x="327" y="810" type="curve"/>
      <point x="267" y="810"/>
      <point x="251" y="775"/>
      <point x="251" y="736" type="curve"/>
      <point x="251" y="695"/>
      <point x="267" y="660"/>
    </contour>
  </outline>
</glyph>
<glyph name="hookabovecomb" format="2">
  <unicode hex="0309"/>
  <guideline x="167" y="607" angle="0"/>
  <outline>
    <contour>
      <point x="107" y="593" type="line"/>
      <point x="192" y="593" type="line"/>
      <point x="207" y="623"/>
      <point x="257" y="633"/>
      <point x="257" y="699" type="curve" smooth="yes"/>
      <point x="257" y="816"/>
      <point x="77" y="821"/>
      <point x="48" y="719" type="curve"/>
      <point x="100" y="682" type="line"/>
      <point x="115" y="714"/>
      <point x="175" y="715"/>
      <point x="175" y="684" type="curve" smooth="yes"/>
      <point x="175" y="647"/>
      <point x="120" y="639"/>
      <point x="107" y="613" type="curve"/>
    </contour>
  </outline>
</glyph>
<glyph name="ringcomb" format="2">
  <unicode hex="030A"/>
  <outline>
    <contour>
      <point x="137" y="585" type="curve"/>
      <point x="211" y="585"/>
      <point x="247" y="630"/>
      <point x="247" y="691" type="curve"/>
      <point x="247" y="757"/>
      <point x="211" y="800"/>
      <point x="137" y="800" type="curve"/>
      <point x="61" y="800"/>
      <point x="30" y="757"/>
      <point x="30" y="691" type="curve"/>
      <point x="30" y="627"/>
      <point x="62" y="585"/>
    </contour>
    <contour>
      <point x="135" y="665" type="curve"/>
      <point x="114" y="665"/>
      <point x="105" y="677"/>
      <point x="105" y="694" type="curve"/>
      <point x="105" y="710"/>
      <point x="114" y="725"/>
      <point x="135" y="725" type="curve"/>
      <point x="158" y="725"/>
      <point x="166" y="711"/>
      <point x="166" y="694" type="curve"/>
      <point x="166" y="677"/>
      <point x="158" y="665"/>
    </contour>
  </outline>
</glyph>
<glyph name="hungarumlautcomb" format="2">
  <unicode hex="030B"/>
  <outline>
    <contour>
      <point x="33" y="662" type="line"/>
      <point x="95" y="632" type="line"/>
      <point x="207" y="767" type="line"/>
      <point x="100" y="820" type="line"/>
    </contour>
    <contour>
      <point x="234" y="662" type="line"/>
      <point x="296" y="632" type="line"/>
      <point x="408" y="767" type="line"/>
      <point x="301" y="820" type="line"/>
    </contour>
  </outline>
</glyph>
<glyph name="caroncomb" format="2">
  <unicode hex="030C"/>
  <guideline x="114" y="771" angle="0"/>
  <outline>
    <contour>
      <point x="50" y="790" type="line"/>
      <point x="50" y="772" type="line"/>
      <point x="196" y="654" type="line"/>
      <point x="254" y="654" type="line"/>
      <point x="399" y="771" type="line"/>
      <point x="399" y="790" type="line"/>
      <point x="260" y="790" type="line"/>
      <point x="225" y="732" type="line"/>
      <point x="193" y="790" type="line"/>
    </contour>
  </outline>
</glyph>
<glyph name="commaturnedabovecomb" format="2">
  <unicode hex="0312"/>
  <outline>
    <contour>
      <point x="184" y="819" type="line"/>
      <point x="58" y="819"/>
      <point x="50" y="646"/>
      <point x="50" y="613" type="curve"/>
      <point x="100" y="613" type="line"/>
      <point x="100" y="613"/>
      <point x="87" y="707"/>
      <point x="184" y="707" type="curve"/>
    </contour>
    <contour>
      <point x="112" y="679" type="curve" smooth="yes"/>
      <point x="65" y="679"/>
      <point x="50" y="649"/>
      <point x="50" y="615" type="curve" smooth="yes"/>
      <point x="50" y="576"/>
      <point x="70" y="549"/>
      <point x="115" y="549" type="curve" smooth="yes"/>
      <point x="161" y="549"/>
      <point x="180" y="577"/>
      <point x="180" y="614" type="curve" smooth="yes"/>
      <point x="180" y="649"/>
      <point x="161" y="679"/>
    </contour>
  </outline>
</glyph>
<glyph name="horncomb" format="2">
  <unicode hex="031B"/>
  <guideline x="86" y="658" angle="0"/>
  <outline>
    <contour>
      <point x="44" y="579" type="line"/>
      <point x="83" y="579" type="line" smooth="yes"/>
      <point x="190" y="579"/>
      <point x="215" y="613"/>
      <point x="215" y="718" type="curve"/>
      <point x="129" y="718" type="line"/>
      <point x="128" y="664"/>
      <point x="131" y="658"/>
      <point x="98" y="658" type="curve" smooth="yes"/>
      <point x="44" y="658" type="line"/>
    </contour>
  </outline>
</glyph>
<glyph name="dotbelowcomb" format="2">
  <unicode hex="0323"/>
  <outline>
    <contour>
      <point x="111" y="-150" type="curve"/>
      <point x="163" y="-150"/>
      <point x="175" y="-120"/>
      <point x="175" y="-84" type="curve"/>
      <point x="175" y="-50"/>
      <point x="163" y="-20"/>
      <point x="111" y="-20" type="curve"/>
      <point x="59" y="-20"/>
      <point x="45" y="-50"/>
      <point x="45" y="-84" type="curve"/>
      <point x="45" y="-120"/>
      <point x="59" y="-150"/>
    </contour>
  </outline>
</glyph>
<glyph name="commaaccentcomb" format="2">
  <unicode hex="0326"/>
  <guideline x="305" y="-35" angle="0"/>
  <outline>
    <contour>
      <point x="59" y="-296" type="line"/>
      <point x="90" y="-296" type="line" smooth="yes"/>
      <point x="171" y="-296"/>
      <point x="203" y="-217"/>
      <point x="203" y="-135" type="curve" smooth="yes"/>
      <point x="203" y="-55"/>
      <point x="173" y="-38"/>
      <point x="133" y="-38" type="curve" smooth="yes"/>
      <point x="79" y="-38"/>
      <point x="59" y="-69"/>
      <point x="59" y="-109" type="curve" smooth="yes"/>
      <point x="59" y="-148"/>
      <point x="79" y="-180"/>
      <point x="143" y="-180" type="curve"/>
      <point x="143" y="-208"/>
      <point x="126" y="-211"/>
      <point x="90" y="-211" type="curve" smooth="yes"/>
      <point x="59" y="-211" type="line"/>
    </contour>
  </outline>
</glyph>
<glyph name="cedillacomb" format="2">
  <unicode hex="0327"/>
  <outline>
    <contour>
      <point x="40" y="-120" type="line"/>
      <point x="148" y="-181"/>
      <point x="294" y="-156"/>
      <point x="294" y="-64" type="curve"/>
      <point x="294" y="12"/>
      <point x="190" y="24"/>
      <point x="148" y="-7" type="curve"/>
      <point x="184" y="54" type="line"/>
      <point x="124" y="77" type="line"/>
      <point x="78" y="-24" type="line"/>
      <point x="135" y="-50" type="line"/>
      <point x="157" y="-28"/>
      <point x="204" y="-38"/>
      <point x="203" y="-58" type="curve"/>
      <point x="203" y="-101"/>
      <point x="101" y="-71"/>
      <point x="79" y="-56" type="curve"/>
    </contour>
  </outline>
</glyph>
<glyph name="ogonekcomb" format="2">
  <unicode hex="0328"/>
  <outline>
    <contour>
      <point x="157" y="-199" type="curve" smooth="yes"/>
      <point x="242" y="-199"/>
      <point x="281" y="-139"/>
      <point x="281" y="-139" type="curve"/>
      <point x="210" y="-75" type="line"/>
      <point x="210" y="-75"/>
      <point x="193" y="-101"/>
      <point x="170" y="-101" type="curve" smooth="yes"/>
      <point x="155" y="-101"/>
      <point x="145" y="-93"/>
      <point x="145" y="-79" type="curve" smooth="yes"/>
      <point x="145" y="-40"/>
      <point x="211" y="-19"/>
      <point x="211" y="-19" type="curve"/>
      <point x="211" y="43" type="line"/>
      <point x="211" y="43"/>
      <point x="45" y="1"/>
      <point x="45" y="-104" type="curve" smooth="yes"/>
      <point x="45" y="-176"/>
      <point x="108" y="-199"/>
    </contour>
  </outline>
</glyph>
<glyph name="ihookabove" format="2">
  <advance width="257"/>
  <unicode hex="1EC9"/>
  <outline>
    <contour>
      <point x="54" y="0" type="line"/>
      <point x="194" y="0" type="line"/>
      <point x="194" y="414" type="line"/>
      <point x="193" y="414"/>
      <point x="55" y="414"/>
      <point x="54" y="414" type="curve"/>
    </contour>
    <component base="hookabovecomb" xOffset="-20" yOffset="-122"/>
  </outline>
</glyph>
<glyph name="endash" format="2">
  <advance width="437"/>
  <unicode hex="2013"/>
  <outline>
    <contour>
      <point x="40" y="178" type="line"/>
      <point x="382" y="178" type="line"/>
      <point x="382" y="272" type="line"/>
      <point x="40" y="272" type="line"/>
    </contour>
  </outline>
</glyph>
<glyph name="emdash" format="2">
  <advance width="617"/>
  <unicode hex="2014"/>
  <outline>
    <contour>
      <point x="40" y="178" type="line"/>
      <point x="562" y="178" type="line"/>
      <point x="562" y="272" type="line"/>
      <point x="40" y="272" type="line"/>
    </contour>
  </outline>
</glyph>
<glyph name="quoteleft" format="2">
  <advance width="279"/>
  <unicode hex="2018"/>
  <outline>
    <contour>
      <point x="127" y="265" type="curve" smooth="yes"/>
      <point x="179" y="265"/>
      <point x="199" y="296"/>
      <point x="199" y="336" type="curve" smooth="yes"/>
      <point x="199" y="375"/>
      <point x="179" y="407"/>
      <point x="124" y="407" type="curve" smooth="yes"/>
      <point x="71" y="407"/>
      <point x="55" y="375"/>
      <point x="55" y="337" type="curve" smooth="yes"/>
      <point x="55" y="295"/>
      <point x="75" y="265"/>
    </contour>
    <contour>
      <point x="55" y="335" type="curve"/>
      <point x="109" y="335" type="line"/>
      <point x="109" y="335"/>
      <point x="89" y="449"/>
      <point x="219" y="449" type="curve"/>
      <point x="219" y="563" type="line"/>
      <point x="61" y="563"/>
      <point x="55" y="366"/>
    </contour>
  </outline>
</glyph>
<glyph name="quoteright" format="2">
  <advance width="264"/>
  <unicode hex="2019"/>
  <outline>
    <contour>
      <point x="45" y="265" type="line"/>
      <point x="203" y="265"/>
      <point x="209" y="462"/>
      <point x="209" y="493" type="curve"/>
      <point x="155" y="493" type="line"/>
      <point x="155" y="493"/>
      <point x="175" y="379"/>
      <point x="45" y="379" type="curve"/>
    </contour>
    <contour>
      <point x="140" y="421" type="curve" smooth="yes"/>
      <point x="193" y="421"/>
      <point x="209" y="453"/>
      <point x="209" y="491" type="curve" smooth="yes"/>
      <point x="209" y="533"/>
      <point x="189" y="563"/>
      <point x="137" y="563" type="curve" smooth="yes"/>
      <point x="85" y="563"/>
      <point x="65" y="532"/>
      <point x="65" y="492" type="curve" smooth="yes"/>
      <point x="65" y="453"/>
      <point x="85" y="421"/>
    </contour>
  </outline>
</glyph>
<glyph name="quotesinglbase" format="2">
  <advance width="259"/>
  <unicode hex="201A"/>
  <outline>
    <contour>
      <point x="50" y="-103" type="line"/>
      <point x="208" y="-103"/>
      <point x="214" y="94"/>
      <point x="214" y="125" type="curve"/>
      <point x="160" y="125" type="line"/>
      <point x="160" y="125"/>
      <point x="180" y="11"/>
      <point x="50" y="11" type="curve"/>
    </contour>
    <contour>
      <point x="145" y="53" type="curve" smooth="yes"/>
      <point x="198" y="53"/>
      <point x="214" y="85"/>
      <point x="214" y="123" type="curve" smooth="yes"/>
      <point x="214" y="165"/>
      <point x="194" y="195"/>
      <point x="142" y="195" type="curve" smooth="yes"/>
      <point x="90" y="195"/>
      <point x="70" y="164"/>
      <point x="70" y="124" type="curve" smooth="yes"/>
      <point x="70" y="85"/>
      <point x="90" y="53"/>
    </contour>
  </outline>
</glyph>
<glyph name="quotedblleft" format="2">
  <advance width="464"/>
  <unicode hex="201C"/>
  <guideline x="80" y="266" angle="90"/>
  <outline>
    <contour>
      <point x="55" y="265" type="line"/>
      <point x="213" y="265"/>
      <point x="219" y="462"/>
      <point x="219" y="493" type="curve"/>
      <point x="165" y="493" type="line"/>
      <point x="165" y="493"/>
      <point x="185" y="379"/>
      <point x="55" y="379" type="curve"/>
    </contour>
    <contour>
      <point x="150" y="421" type="curve" smooth="yes"/>
      <point x="203" y="421"/>
      <point x="219" y="453"/>
      <point x="219" y="491" type="curve" smooth="yes"/>
      <point x="219" y="533"/>
      <point x="199" y="563"/>
      <point x="147" y="563" type="curve" smooth="yes"/>
      <point x="95" y="563"/>
      <point x="75" y="532"/>
      <point x="75" y="492" type="curve" smooth="yes"/>
      <point x="75" y="453"/>
      <point x="95" y="421"/>
    </contour>
    <contour>
      <point x="250" y="265" type="line"/>
      <point x="408" y="265"/>
      <point x="414" y="462"/>
      <point x="414" y="493" type="curve"/>
      <point x="360" y="493" type="line"/>
      <point x="360" y="493"/>
      <point x="380" y="379"/>
      <point x="250" y="379" type="curve"/>
    </contour>
    <contour>
      <point x="345" y="421" type="curve" smooth="yes"/>
      <point x="398" y="421"/>
      <point x="414" y="453"/>
      <point x="414" y="491" type="curve" smooth="yes"/>
      <point x="414" y="533"/>
      <point x="394" y="563"/>
      <point x="342" y="563" type="curve" smooth="yes"/>
      <point x="290" y="563"/>
      <point x="270" y="532"/>
      <point x="270" y="492" type="curve" smooth="yes"/>
      <point x="270" y="453"/>
      <point x="290" y="421"/>
    </contour>
  </outline>
</glyph>
<glyph name="quotedblright" format="2">
  <advance width="464"/>
  <unicode hex="201D"/>
  <outline>
    <contour>
      <point x="250" y="335" type="curve"/>
      <point x="304" y="335" type="line"/>
      <point x="304" y="335"/>
      <point x="284" y="449"/>
      <point x="414" y="449" type="curve"/>
      <point x="414" y="563" type="line"/>
      <point x="256" y="563"/>
      <point x="250" y="366"/>
    </contour>
    <contour>
      <point x="127" y="265" type="curve" smooth="yes"/>
      <point x="179" y="265"/>
      <point x="199" y="296"/>
      <point x="199" y="336" type="curve" smooth="yes"/>
      <point x="199" y="375"/>
      <point x="179" y="407"/>
      <point x="124" y="407" type="curve" smooth="yes"/>
      <point x="71" y="407"/>
      <point x="55" y="375"/>
      <point x="55" y="337" type="curve" smooth="yes"/>
      <point x="55" y="295"/>
      <point x="75" y="265"/>
    </contour>
    <contour>
      <point x="55" y="335" type="curve"/>
      <point x="109" y="335" type="line"/>
      <point x="109" y="335"/>
      <point x="89" y="449"/>
      <point x="219" y="449" type="curve"/>
      <point x="219" y="563" type="line"/>
      <point x="61" y="563"/>
      <point x="55" y="366"/>
    </contour>
    <contour>
      <point x="322" y="265" type="curve" smooth="yes"/>
      <point x="374" y="265"/>
      <point x="394" y="296"/>
      <point x="394" y="336" type="curve" smooth="yes"/>
      <point x="394" y="375"/>
      <point x="374" y="407"/>
      <point x="319" y="407" type="curve" smooth="yes"/>
      <point x="266" y="407"/>
      <point x="250" y="375"/>
      <point x="250" y="337" type="curve" smooth="yes"/>
      <point x="250" y="295"/>
      <point x="270" y="265"/>
    </contour>
  </outline>
</glyph>
<glyph name="quotedblbase" format="2">
  <advance width="420"/>
  <unicode hex="201E"/>
  <guideline x="30" y="64" angle="90"/>
  <guideline x="348" y="-52" angle="90"/>
  <outline>
    <contour>
      <point x="30" y="-103" type="line"/>
      <point x="188" y="-103"/>
      <point x="194" y="94"/>
      <point x="194" y="125" type="curve"/>
      <point x="140" y="125" type="line"/>
      <point x="140" y="125"/>
      <point x="160" y="11"/>
      <point x="30" y="11" type="curve"/>
    </contour>
    <contour>
      <point x="125" y="53" type="curve" smooth="yes"/>
      <point x="178" y="53"/>
      <point x="194" y="85"/>
      <point x="194" y="123" type="curve" smooth="yes"/>
      <point x="194" y="165"/>
      <point x="174" y="195"/>
      <point x="122" y="195" type="curve" smooth="yes"/>
      <point x="70" y="195"/>
      <point x="50" y="164"/>
      <point x="50" y="124" type="curve" smooth="yes"/>
      <point x="50" y="85"/>
      <point x="70" y="53"/>
    </contour>
    <contour>
      <point x="225" y="-103" type="line"/>
      <point x="383" y="-103"/>
      <point x="389" y="94"/>
      <point x="389" y="125" type="curve"/>
      <point x="335" y="125" type="line"/>
      <point x="335" y="125"/>
      <point x="355" y="11"/>
      <point x="225" y="11" type="curve"/>
    </contour>
    <contour>
      <point x="320" y="53" type="curve" smooth="yes"/>
      <point x="373" y="53"/>
      <point x="389" y="85"/>
      <point x="389" y="123" type="curve" smooth="yes"/>
      <point x="389" y="165"/>
      <point x="369" y="195"/>
      <point x="317" y="195" type="curve" smooth="yes"/>
      <point x="265" y="195"/>
      <point x="245" y="164"/>
      <point x="245" y="124" type="curve" smooth="yes"/>
      <point x="245" y="85"/>
      <point x="265" y="53"/>
    </contour>
  </outline>
</glyph>
<glyph name="bullet" format="2">
  <advance width="300"/>
  <unicode hex="2022"/>
  <outline>
    <contour>
      <point x="136" y="184" type="curve"/>
      <point x="208" y="184"/>
      <point x="225" y="226"/>
      <point x="225" y="275" type="curve"/>
      <point x="225" y="322"/>
      <point x="208" y="364"/>
      <point x="136" y="364" type="curve"/>
      <point x="64" y="364"/>
      <point x="45" y="322"/>
      <point x="45" y="275" type="curve"/>
      <point x="45" y="226"/>
      <point x="64" y="184"/>
    </contour>
  </outline>
</glyph>
<glyph name="ellipsis" format="2">
  <advance width="745"/>
  <unicode hex="2026"/>
  <outline>
    <contour>
      <point x="134" y="0" type="curve" smooth="yes"/>
      <point x="194" y="0"/>
      <point x="211" y="34"/>
      <point x="211" y="78" type="curve" smooth="yes"/>
      <point x="211" y="119"/>
      <point x="194" y="153"/>
      <point x="134" y="153" type="curve" smooth="yes"/>
      <point x="72" y="153"/>
      <point x="55" y="119"/>
      <point x="55" y="78" type="curve" smooth="yes"/>
      <point x="55" y="35"/>
      <point x="71" y="0"/>
    </contour>
    <contour>
      <point x="374" y="0" type="curve" smooth="yes"/>
      <point x="434" y="0"/>
      <point x="450" y="35"/>
      <point x="450" y="78" type="curve" smooth="yes"/>
      <point x="450" y="119"/>
      <point x="434" y="153"/>
      <point x="374" y="153" type="curve" smooth="yes"/>
      <point x="311" y="153"/>
      <point x="295" y="118"/>
      <point x="295" y="78" type="curve" smooth="yes"/>
      <point x="295" y="35"/>
      <point x="311" y="0"/>
    </contour>
    <contour>
      <point x="613" y="0" type="curve" smooth="yes"/>
      <point x="673" y="0"/>
      <point x="690" y="34"/>
      <point x="690" y="78" type="curve" smooth="yes"/>
      <point x="690" y="119"/>
      <point x="673" y="153"/>
      <point x="613" y="153" type="curve" smooth="yes"/>
      <point x="551" y="153"/>
      <point x="534" y="119"/>
      <point x="534" y="78" type="curve" smooth="yes"/>
      <point x="534" y="34"/>
      <point x="551" y="0"/>
    </contour>
  </outline>
</glyph>
<glyph name="perthousand" format="2">
  <advance width="829"/>
  <unicode hex="2030"/>
  <outline>
    <contour>
      <point x="153" y="0" type="line"/>
      <point x="350" y="268" type="line"/>
      <point x="591" y="497" type="line"/>
      <point x="497" y="563" type="line"/>
      <point x="305" y="305" type="line"/>
      <point x="58" y="67" type="line"/>
    </contour>
    <contour>
      <point x="499" y="-10" type="curve"/>
      <point x="581" y="-10"/>
      <point x="617" y="39"/>
      <point x="617" y="109" type="curve"/>
      <point x="617" y="178"/>
      <point x="581" y="225"/>
      <point x="499" y="225" type="curve"/>
      <point x="418" y="225"/>
      <point x="384" y="178"/>
      <point x="384" y="109" type="curve"/>
      <point x="384" y="36"/>
      <point x="419" y="-10"/>
    </contour>
    <contour>
      <point x="497" y="77" type="curve"/>
      <point x="474" y="77"/>
      <point x="464" y="91"/>
      <point x="464" y="109" type="curve"/>
      <point x="464" y="127"/>
      <point x="474" y="143"/>
      <point x="497" y="143" type="curve"/>
      <point x="522" y="143"/>
      <point x="532" y="128"/>
      <point x="532" y="109" type="curve"/>
      <point x="532" y="91"/>
      <point x="522" y="77"/>
    </contour>
    <contour>
      <point x="142" y="338" type="curve"/>
      <point x="223" y="338"/>
      <point x="261" y="387"/>
      <point x="261" y="454" type="curve"/>
      <point x="261" y="526"/>
      <point x="223" y="573"/>
      <point x="142" y="573" type="curve"/>
      <point x="60" y="573"/>
      <point x="26" y="526"/>
      <point x="26" y="454" type="curve"/>
      <point x="26" y="384"/>
      <point x="61" y="338"/>
    </contour>
    <contour>
      <point x="140" y="425" type="curve"/>
      <point x="117" y="425"/>
      <point x="107" y="439"/>
      <point x="107" y="457" type="curve"/>
      <point x="107" y="475"/>
      <point x="117" y="491"/>
      <point x="140" y="491" type="curve"/>
      <point x="165" y="491"/>
      <point x="174" y="476"/>
      <point x="174" y="457" type="curve"/>
      <point x="174" y="439"/>
      <point x="165" y="425"/>
    </contour>
    <contour>
      <point x="776" y="-10" type="curve"/>
      <point x="858" y="-10"/>
      <point x="894" y="39"/>
      <point x="894" y="109" type="curve"/>
      <point x="894" y="178"/>
      <point x="858" y="225"/>
      <point x="776" y="225" type="curve"/>
      <point x="695" y="225"/>
      <point x="661" y="178"/>
      <point x="661" y="109" type="curve"/>
      <point x="661" y="36"/>
      <point x="696" y="-10"/>
    </contour>
    <contour>
      <point x="774" y="77" type="curve"/>
      <point x="751" y="77"/>
      <point x="741" y="91"/>
      <point x="741" y="109" type="curve"/>
      <point x="741" y="127"/>
      <point x="751" y="143"/>
      <point x="774" y="143" type="curve"/>
      <point x="799" y="143"/>
      <point x="809" y="128"/>
      <point x="809" y="109" type="curve"/>
      <point x="809" y="91"/>
      <point x="799" y="77"/>
    </contour>
  </outline>
</glyph>
<glyph name="guilsinglleft" format="2">
  <advance width="425"/>
  <unicode hex="2039"/>
  <outline>
    <contour>
      <point x="385" y="427" type="line"/>
      <point x="40" y="238" type="line"/>
      <point x="385" y="49" type="line"/>
      <point x="385" y="156" type="line"/>
      <point x="136" y="238" type="line"/>
      <point x="385" y="321" type="line"/>
    </contour>
  </outline>
</glyph>
<glyph name="guilsinglright" format="2">
  <advance width="435"/>
  <unicode hex="203A"/>
  <outline>
    <contour>
      <point x="45" y="427" type="line"/>
      <point x="45" y="321" type="line"/>
      <point x="294" y="238" type="line"/>
      <point x="45" y="156" type="line"/>
      <point x="45" y="49" type="line"/>
      <point x="390" y="238" type="line"/>
    </contour>
  </outline>
</glyph>
<glyph name="fraction" format="2">
  <advance width="613"/>
  <unicode hex="2044"/>
  <outline>
    <contour>
      <point x="135" y="0" type="line"/>
      <point x="332" y="268" type="line"/>
      <point x="573" y="497" type="line"/>
      <point x="479" y="563" type="line"/>
      <point x="287" y="305" type="line"/>
      <point x="40" y="67" type="line"/>
    </contour>
  </outline>
</glyph>
<glyph name="euro" format="2">
  <advance width="654"/>
  <unicode hex="20AC"/>
  <outline>
    <contour>
      <point x="356" y="-10" type="curve"/>
      <point x="519" y="-10"/>
      <point x="597" y="97"/>
      <point x="614" y="215" type="curve"/>
      <point x="472" y="240" type="line"/>
      <point x="459" y="162"/>
      <point x="421" y="123"/>
      <point x="358" y="123" type="curve"/>
      <point x="270" y="123"/>
      <point x="236" y="180"/>
      <point x="236" y="282" type="curve"/>
      <point x="236" y="371"/>
      <point x="273" y="444"/>
      <point x="359" y="444" type="curve"/>
      <point x="437" y="444"/>
      <point x="458" y="404"/>
      <point x="473" y="330" type="curve"/>
      <point x="613" y="355" type="line"/>
      <point x="597" y="468"/>
      <point x="522" y="573"/>
      <point x="359" y="573" type="curve"/>
      <point x="211" y="573"/>
      <point x="95" y="462"/>
      <point x="91" y="277" type="curve"/>
      <point x="91" y="87"/>
      <point x="210" y="-10"/>
    </contour>
    <contour>
      <point x="40" y="184" type="line"/>
      <point x="374" y="184" type="line"/>
      <point x="389" y="259" type="line"/>
      <point x="40" y="259" type="line"/>
    </contour>
    <contour>
      <point x="404" y="301" type="line"/>
      <point x="419" y="376" type="line"/>
      <point x="40" y="376" type="line"/>
      <point x="40" y="305" type="line"/>
    </contour>
  </outline>
</glyph>
<glyph name="trademark" format="2">
  <advance width="478"/>
  <unicode hex="2122"/>
  <guideline x="681" y="354" angle="0"/>
  <outline>
    <contour>
      <point x="169" y="518" type="line"/>
      <point x="106" y="518" type="line"/>
      <point x="106" y="354" type="line"/>
      <point x="54" y="354" type="line"/>
      <point x="54" y="518" type="line"/>
      <point x="-10" y="518" type="line"/>
      <point x="-10" y="562" type="line"/>
      <point x="169" y="562" type="line"/>
    </contour>
    <contour>
      <point x="443" y="354" type="line"/>
      <point x="387" y="354" type="line"/>
      <point x="392" y="540" type="line"/>
      <point x="360" y="354" type="line"/>
      <point x="284" y="354" type="line"/>
      <point x="252" y="540" type="line"/>
      <point x="255" y="354" type="line"/>
      <point x="201" y="354" type="line"/>
      <point x="201" y="562" type="line"/>
      <point x="292" y="562" type="line"/>
      <point x="322" y="376" type="line"/>
      <point x="352" y="562" type="line"/>
      <point x="443" y="562" type="line"/>
    </contour>
  </outline>
</glyph>
<glyph name="leftArrow" format="2">
  <advance width="424"/>
  <unicode hex="2190"/>
  <outline>
    <contour>
      <point x="35" y="177" type="line"/>
      <point x="232" y="177"/>
      <point x="232" y="378"/>
      <point x="232" y="380" type="curve"/>
      <point x="150" y="380" type="line"/>
      <point x="150" y="376"/>
      <point x="149" y="283"/>
      <point x="35" y="283" type="curve"/>
    </contour>
    <contour>
      <point x="150" y="80" type="curve"/>
      <point x="232" y="80" type="line"/>
      <point x="232" y="81"/>
      <point x="232" y="283"/>
      <point x="35" y="283" type="curve"/>
      <point x="35" y="177" type="line"/>
      <point x="149" y="177"/>
      <point x="150" y="84"/>
    </contour>
    <contour>
      <point x="35" y="177" type="line"/>
      <point x="389" y="177" type="line"/>
      <point x="389" y="283" type="line"/>
      <point x="35" y="283" type="line"/>
    </contour>
  </outline>
</glyph>
<glyph name="upArrow" format="2">
  <advance width="370"/>
  <unicode hex="2191"/>
  <guideline x="101" y="447" angle="0"/>
  <outline>
    <contour>
      <point x="335" y="250" type="curve"/>
      <point x="335" y="332" type="line"/>
      <point x="331" y="332"/>
      <point x="238" y="333"/>
      <point x="238" y="447" type="curve"/>
      <point x="132" y="447" type="line"/>
      <point x="132" y="250"/>
      <point x="334" y="250"/>
    </contour>
    <contour>
      <point x="132" y="93" type="line"/>
      <point x="238" y="93" type="line"/>
      <point x="238" y="447" type="line"/>
      <point x="132" y="447" type="line"/>
    </contour>
    <contour>
      <point x="35" y="250" type="line"/>
      <point x="37" y="250"/>
      <point x="238" y="250"/>
      <point x="238" y="447" type="curve"/>
      <point x="132" y="447" type="line"/>
      <point x="132" y="333"/>
      <point x="39" y="332"/>
      <point x="35" y="332" type="curve"/>
    </contour>
  </outline>
</glyph>
<glyph name="rightArrow" format="2">
  <advance width="424"/>
  <unicode hex="2192"/>
  <outline>
    <contour>
      <point x="389" y="177" type="curve"/>
      <point x="389" y="283" type="line"/>
      <point x="275" y="283"/>
      <point x="274" y="376"/>
      <point x="274" y="380" type="curve"/>
      <point x="192" y="380" type="line"/>
      <point x="192" y="378"/>
      <point x="192" y="177"/>
    </contour>
    <contour>
      <point x="35" y="177" type="line"/>
      <point x="389" y="177" type="line"/>
      <point x="389" y="283" type="line"/>
      <point x="35" y="283" type="line"/>
    </contour>
    <contour>
      <point x="192" y="80" type="curve"/>
      <point x="274" y="80" type="line"/>
      <point x="274" y="84"/>
      <point x="275" y="177"/>
      <point x="389" y="177" type="curve"/>
      <point x="389" y="283" type="line"/>
      <point x="192" y="283"/>
      <point x="192" y="81"/>
    </contour>
  </outline>
</glyph>
<glyph name="downArrow" format="2">
  <advance width="370"/>
  <unicode hex="2193"/>
  <outline>
    <contour>
      <point x="132" y="93" type="curve"/>
      <point x="238" y="93" type="line"/>
      <point x="238" y="207"/>
      <point x="331" y="208"/>
      <point x="335" y="208" type="curve"/>
      <point x="335" y="290" type="line"/>
      <point x="334" y="290"/>
      <point x="132" y="290"/>
    </contour>
    <contour>
      <point x="132" y="93" type="curve"/>
      <point x="238" y="93" type="line"/>
      <point x="238" y="290"/>
      <point x="37" y="290"/>
      <point x="35" y="290" type="curve"/>
      <point x="35" y="208" type="line"/>
      <point x="39" y="208"/>
      <point x="132" y="207"/>
    </contour>
    <contour>
      <point x="132" y="93" type="line"/>
      <point x="238" y="93" type="line"/>
      <point x="238" y="447" type="line"/>
      <point x="132" y="447" type="line"/>
    </contour>
  </outline>
</glyph>
